<svg width="3249" height="650" xmlns="http://www.w3.org/2000/svg" xmlns:xlink="http://www.w3.org/1999/xlink" xml:space="preserve" overflow="hidden"><defs><clipPath id="clip0"><rect x="4791" y="78" width="3249" height="650"/></clipPath><clipPath id="clip1"><rect x="4880" y="129" width="3059" height="402"/></clipPath><clipPath id="clip2"><rect x="4880" y="129" width="3059" height="402"/></clipPath></defs><g clip-path="url(#clip0)" transform="translate(-4791 -78)"><rect x="4792" y="79.0001" width="3246" height="647" fill="#FFFFFF"/><g><path d="M4880.5 528.5 7935.5 528.5M4880.5 129.5 7935.5 129.5" stroke="#CADFF4" stroke-width="3.4375" stroke-linejoin="round" stroke-miterlimit="10" fill="none"/></g><g><path d="M5354.68 129.5 5354.68 528.5M5828.69 129.5 5828.69 528.5M6302.71 129.5 6302.71 528.5M6776.72 129.5 6776.72 528.5M7250.74 129.5 7250.74 528.5M7725.5 129.5 7725.5 528.5" stroke="#CADFF4" stroke-width="3.4375" stroke-linejoin="round" stroke-miterlimit="10" fill="none"/></g><g><path d="M0 0 0.000360892 399" stroke="#71AAE0" stroke-width="3.4375" stroke-linejoin="round" stroke-miterlimit="10" fill="none" fill-rule="evenodd" transform="matrix(1 0 0 -1 4880.5 528.5)"/></g><g><path d="M4880.5 528.5 7935.5 528.5" stroke="#71AAE0" stroke-width="3.4375" stroke-linejoin="round" stroke-miterlimit="10" fill="none" fill-rule="evenodd"/></g><g clip-path="url(#clip1)"><path d="M4880.5 129.5 4880.5 528.5 5453.68 528.5 5453.68 129.5 5512.68 129.5 5512.68 528.5 5532.68 528.5 5532.68 129.5 5591.68 129.5 5591.68 528.5 5611.68 528.5 5611.68 129.5 5670.69 129.5 5670.69 528.5 5690.69 528.5 5690.69 129.5 5710.69 129.5 5710.69 528.5 5769.69 528.5 5769.69 129.5 5789.69 129.5 5789.69 528.5 5848.69 528.5 5848.69 129.5 5868.69 129.5 5868.69 528.5 5927.69 528.5 5927.69 129.5 5986.7 129.5 5986.7 528.5 6006.7 528.5 6006.7 129.5 6026.7 129.5 6026.7 528.5 6085.7 528.5 6085.7 129.5 6105.7 129.5 6105.7 528.5 6164.7 528.5 6164.7 129.5 6223.7 129.5 6223.7 528.5 6243.71 528.5 6243.71 129.5 6263.71 129.5 6263.71 528.5 6322.71 528.5 6322.71 129.5 6381.71 129.5 6381.71 528.5 6401.71 528.5 6401.71 129.5 6421.71 129.5 6421.71 528.5 6480.71 528.5 6480.71 129.5 6539.71 129.5 6539.71 528.5 6559.72 528.5 6559.72 129.5 6579.72 129.5 6579.72 528.5 6638.72 528.5 6638.72 129.5 6658.72 129.5 6658.72 528.5 6717.72 528.5 6717.72 129.5 6737.72 129.5 6737.72 528.5 6796.72 528.5 6796.72 129.5 6816.72 129.5 6816.72 528.5 6875.73 528.5 6875.73 129.5 6895.73 129.5 6895.73 528.5 6954.73 528.5 6954.73 129.5 6974.73 129.5 6974.73 528.5 7033.73 528.5 7033.73 129.5 7053.73 129.5 7053.73 528.5 7112.73 528.5 7112.73 129.5 7132.73 129.5 7132.73 528.5 7191.74 528.5 7191.74 129.5 7211.74 129.5 7211.74 528.5 7270.74 528.5 7270.74 129.5 7329.74 129.5 7329.74 528.5 7349.74 528.5 7349.74 129.5 7369.74 129.5 7369.74 528.5 7942.76 528.5 7942.76 129.5 8001.76 129.5 8001.76 528.5 8021.76 528.5 8021.76 129.5 8080.77 129.5 8080.77 528.5 8100.77 528.5 8100.77 129.5 8159.77 129.5 8159.77 528.5 8179.77 528.5 8179.77 129.5 8198.77 129.5 8198.77 528.5 8258.77 528.5 8258.77 129.5 8277.77 129.5 8277.77 528.5 8337.77 528.5 8337.77 129.5 8356.77 129.5 8356.77 528.5 8416.78 528.5 8416.78 129.5 8475.78 129.5 8475.78 528.5 8495.78 528.5 8495.78 129.5 8514.78 129.5 8514.78 528.5 8574.78 528.5 8574.78 129.5 8593.78 129.5 8593.78 528.5 8653.78 528.5 8653.78 129.5 8712.79 129.5 8712.79 528.5 8732.79 528.5 8732.79 129.5 8751.79 129.5 8751.79 528.5 8811.79 528.5 8811.79 129.5 8870.79 129.5 8870.79 528.5 8890.79 528.5 8890.79 129.5 8909.79 129.5 8909.79 528.5 8969.79 528.5 8969.79 129.5 9028.8 129.5 9028.8 528.5 9048.8 528.5 9048.8 129.5 9067.8 129.5 9067.8 528.5 9127.8 528.5 9127.8 129.5 9146.8 129.5 9146.8 528.5 9206.8 528.5 9206.8 129.5 9225.8 129.5 9225.8 528.5 9285.8 528.5 9285.8 129.5 9304.8 129.5 9304.8 528.5 9364.81 528.5 9364.81 129.5 9383.81 129.5 9383.81 528.5 9443.81 528.5 9443.81 129.5 9462.81 129.5 9462.81 528.5 9522.81 528.5 9522.81 129.5 9541.81 129.5 9541.81 528.5 9601.81 528.5 9601.81 129.5 9620.82 129.5 9620.82 528.5 9680.82 528.5 9680.82 129.5 9699.82 129.5 9699.82 528.5 9759.82 528.5 9759.82 129.5 9818.82 129.5 9818.82 528.5 9838.82 528.5 9838.82 129.5 9857.82 129.5 9857.82 528.5 10430.8 528.5 10430.8 129.5 10490.8 129.5 10490.8 528.5 10509.8 528.5 10509.8 129.5 10569.8 129.5 10569.8 528.5 10588.8 528.5 10588.8 129.5 10648.8 129.5 10648.8 528.5 10667.8 528.5 10667.8 129.5 10687.9 129.5 10687.9 528.5 10746.9 528.5 10746.9 129.5 10766.9 129.5 10766.9 528.5 10825.9 528.5 10825.9 129.5 10845.9 129.5 10845.9 528.5 10904.9 528.5 10904.9 129.5 10964.9 129.5 10964.9 528.5 10983.9 528.5 10983.9 129.5 11003.9 129.5 11003.9 528.5 11062.9 528.5 11062.9 129.5 11082.9 129.5 11082.9 528.5 11141.9 528.5 11141.9 129.5 11201.9 129.5 11201.9 528.5 11220.9 528.5 11220.9 129.5 11240.9 129.5 11240.9 528.5 11299.9 528.5 11299.9 129.5 11359.9 129.5 11359.9 528.5 11378.9 528.5 11378.9 129.5 11398.9 129.5 11398.9 528.5 11457.9 528.5 11457.9 129.5 11517.9 129.5 11517.9 528.5 11536.9 528.5 11536.9 129.5 11556.9 129.5 11556.9 528.5 11615.9 528.5 11615.9 129.5 11635.9 129.5 11635.9 528.5 11694.9 528.5 11694.9 129.5 11714.9 129.5 11714.9 528.5 11773.9 528.5 11773.9 129.5 11793.9 129.5 11793.9 528.5 11852.9 528.5 11852.9 129.5 11872.9 129.5 11872.9 528.5 11931.9 528.5 11931.9 129.5 11951.9 129.5 11951.9 528.5 12010.9 528.5 12010.9 129.5 12030.9 129.5 12030.9 528.5 12089.9 528.5 12089.9 129.5 12109.9 129.5 12109.9 528.5 12168.9 528.5 12168.9 129.5 12188.9 129.5 12188.9 528.5 12247.9 528.5 12247.9 129.5 12307.9 129.5 12307.9 528.5 12326.9 528.5 12326.9 129.5 12346.9 129.5 12346.9 528.5 12919.9 528.5 12919.9 129.5 12978.9 129.5 12978.9 528.5 12998.9 528.5 12998.9 129.5 13057.9 129.5 13057.9 528.5 13077.9 528.5 13077.9 129.5 13136.9 129.5 13136.9 528.5 13156.9 528.5 13156.9 129.5 13176.9 129.5 13176.9 528.5 13235.9 528.5 13235.9 129.5 13255.9 129.5 13255.9 528.5 13314.9 528.5 13314.9 129.5 13334.9 129.5 13334.9 528.5 13393.9 528.5 13393.9 129.5 13452.9 129.5 13452.9 528.5 13472.9 528.5 13472.9 129.5 13492.9 129.5 13492.9 528.5 13551.9 528.5 13551.9 129.5 13571.9 129.5 13571.9 528.5 13630.9 528.5 13630.9 129.5 13689.9 129.5 13689.9 528.5 13710 528.5 13710 129.5 13730 129.5 13730 528.5 13789 528.5 13789 129.5 13848 129.5 13848 528.5 13868 528.5 13868 129.5 13888 129.5 13888 528.5 13947 528.5 13947 129.5 14006 129.5 14006 528.5 14026 528.5 14026 129.5 14046 129.5 14046 528.5 14105 528.5 14105 129.5 14125 129.5 14125 528.5 14184 528.5 14184 129.5 14204 129.5 14204 528.5 14263 528.5 14263 129.5 14283 129.5 14283 528.5 14342 528.5 14342 129.5 14362 129.5 14362 528.5 14421 528.5 14421 129.5 14441 129.5 14441 528.5 14500 528.5 14500 129.5 14520 129.5 14520 528.5 14579 528.5 14579 129.5 14599 129.5 14599 528.5 14658 528.5 14658 129.5 14678 129.5 14678 528.5 14737 528.5 14737 129.5 14796 129.5 14796 528.5 14816 528.5 14816 129.5 14836 129.5 14836 528.5 15409 528.5 15409 129.5 15468 129.5 15468 528.5 15488 528.5 15488 129.5 15547 129.5 15547 528.5 15567 528.5 15567 129.5 15626 129.5 15626 528.5 15646 528.5 15646 129.5 15665 129.5 15665 528.5 15725 528.5 15725 129.5 15744 129.5 15744 528.5 15804 528.5 15804 129.5 15823 129.5 15823 528.5 15883 528.5 15883 129.5 15942 129.5 15942 528.5 15962 528.5 15962 129.5 15981 129.5 15981 528.5 16041 528.5 16041 129.5 16060 129.5 16060 528.5 16120 528.5 16120 129.5 16179 129.5 16179 528.5 16199 528.5 16199 129.5 16218 129.5 16218 528.5 16278 528.5 16278 129.5 16337 129.5 16337 528.5 16357 528.5 16357 129.5 16376 129.5 16376 528.5 16436 528.5 16436 129.5 16495 129.5 16495 528.5 16515 528.5 16515 129.5 16535 129.5 16535 528.5 16594 528.5 16594 129.5 16614 129.5 16614 528.5 16673 528.5 16673 129.5 16693 129.5 16693 528.5 16752 528.5 16752 129.5 16772.1 129.5 16772.1 528.5 16831.1 528.5 16831.1 129.5 16851.1 129.5 16851.1 528.5 16910.1 528.5 16910.1 129.5 16930.1 129.5 16930.1 528.5 16989.1 528.5 16989.1 129.5 17009.1 129.5 17009.1 528.5 17068.1 528.5 17068.1 129.5 17088.1 129.5 17088.1 528.5 17147.1 528.5 17147.1 129.5 17167.1 129.5 17167.1 528.5 17226.1 528.5 17226.1 129.5 17285.1 129.5 17285.1 528.5 17305.1 528.5 17305.1 129.5 17325.1 129.5 17325.1 528.5 17897.1 528.5 17897.1 129.5 17957.1 129.5 17957.1 528.5 17976.1 528.5 17976.1 129.5 18036.1 129.5 18036.1 528.5 18055.1 528.5 18055.1 129.5 18115.1 129.5 18115.1 528.5 18134.1 528.5 18134.1 129.5 18154.1 129.5 18154.1 528.5 18213.1 528.5 18213.1 129.5 18233.1 129.5 18233.1 528.5 18292.1 528.5 18292.1 129.5 18312.1 129.5 18312.1 528.5 18371.1 528.5 18371.1 129.5 18431.1 129.5 18431.1 528.5 18450.1 528.5 18450.1 129.5 18470.1 129.5 18470.1 528.5 18529.1 528.5 18529.1 129.5 18549.1 129.5 18549.1 528.5 18608.1 528.5 18608.1 129.5 18668.1 129.5 18668.1 528.5 18687.1 528.5 18687.1 129.5 18707.1 129.5 18707.1 528.5 18766.1 528.5 18766.1 129.5 18826.1 129.5 18826.1 528.5 18845.1 528.5 18845.1 129.5 18865.1 129.5 18865.1 528.5 18924.1 528.5 18924.1 129.5 18984.1 129.5 18984.1 528.5 19003.1 528.5 19003.1 129.5 19023.1 129.5 19023.1 528.5 19082.1 528.5 19082.1 129.5 19102.1 129.5 19102.1 528.5 19161.1 528.5 19161.1 129.5 19181.1 129.5 19181.1 528.5 19240.1 528.5 19240.1 129.5 19260.1 129.5 19260.1 528.5 19319.1 528.5 19319.1 129.5 19339.1 129.5 19339.1 528.5 19398.1 528.5 19398.1 129.5 19418.1 129.5 19418.1 528.5 19477.1 528.5 19477.1 129.5 19497.1 129.5 19497.1 528.5 19556.1 528.5 19556.1 129.5 19576.1 129.5 19576.1 528.5 19635.1 528.5 19635.1 129.5 19655.1 129.5 19655.1 528.5 19715.1 528.5 19715.1 129.5 19774.1 129.5 19774.1 528.5 19794.1 528.5 19794.1 129.5 19813.2 129.5 19813.2 528.5 20386.2 528.5 20386.2 129.5 20445.2 129.5 20445.2 528.5 20465.2 528.5 20465.2 129.5 20524.2 129.5 20524.2 528.5 20544.2 528.5 20544.2 129.5 20603.2 129.5 20603.2 528.5 20623.2 528.5 20623.2 129.5 20643.2 129.5 20643.2 528.5 20702.2 528.5 20702.2 129.5 20722.2 129.5 20722.2 528.5 20781.2 528.5 20781.2 129.5 20801.2 129.5 20801.2 528.5 20860.2 528.5 20860.2 129.5 20919.2 129.5 20919.2 528.5 20939.2 528.5 20939.2 129.5 20959.2 129.5 20959.2 528.5 21018.2 528.5 21018.2 129.5 21038.2 129.5 21038.2 528.5 21097.2 528.5 21097.2 129.5 21156.2 129.5 21156.2 528.5 21176.2 528.5 21176.2 129.5 21196.2 129.5 21196.2 528.5 21255.2 528.5 21255.2 129.5 21314.2 129.5 21314.2 528.5 21334.2 528.5 21334.2 129.5 21354.2 129.5 21354.2 528.5 21413.2 528.5 21413.2 129.5 21472.2 129.5 21472.2 528.5 21492.2 528.5 21492.2 129.5 21512.2 129.5 21512.2 528.5 21571.2 528.5 21571.2 129.5 21591.2 129.5 21591.2 528.5 21650.2 528.5 21650.2 129.5 21670.2 129.5 21670.2 528.5 21729.2 528.5 21729.2 129.5 21749.2 129.5 21749.2 528.5 21808.2 528.5 21808.2 129.5 21828.2 129.5 21828.2 528.5 21887.2 528.5 21887.2 129.5 21907.2 129.5 21907.2 528.5 21966.2 528.5 21966.2 129.5 21986.2 129.5 21986.2 528.5 22045.2 528.5 22045.2 129.5 22065.2 129.5 22065.2 528.5 22124.2 528.5 22124.2 129.5 22144.2 129.5 22144.2 528.5 22203.2 528.5 22203.2 129.5 22262.2 129.5 22262.2 528.5 22282.2 528.5 22282.2 129.5 22302.2 129.5 22302.2 528.5 22875.2 528.5 22875.2 129.5 22934.3 129.5 22934.3 528.5 22954.3 528.5 22954.3 129.5 23013.3 129.5 23013.3 528.5 23033.3 528.5 23033.3 129.5 23092.3 129.5 23092.3 528.5 23112.3 528.5 23112.3 129.5 23132.3 129.5 23132.3 528.5 23191.3 528.5 23191.3 129.5 23211.3 129.5 23211.3 528.5 23270.3 528.5 23270.3 129.5 23290.3 129.5 23290.3 528.5 23349.3 528.5 23349.3 129.5 23408.3 129.5 23408.3 528.5 23428.3 528.5 23428.3 129.5 23448.3 129.5 23448.3 528.5 23507.3 528.5 23507.3 129.5 23527.3 129.5 23527.3 528.5 23586.3 528.5 23586.3 129.5 23645.3 129.5 23645.3 528.5 23665.3 528.5 23665.3 129.5 23685.3 129.5 23685.3 528.5 23744.3 528.5 23744.3 129.5 23803.3 129.5 23803.3 528.5 23823.3 528.5 23823.3 129.5 23843.3 129.5 23843.3 528.5 23902.3 528.5 23902.3 129.5 23961.3 129.5 23961.3 528.5 23981.3 528.5 23981.3 129.5 24001.3 129.5 24001.3 528.5 24060.3 528.5 24060.3 129.5 24080.3 129.5 24080.3 528.5 24139.3 528.5 24139.3 129.5 24159.3 129.5 24159.3 528.5 24218.3 528.5 24218.3 129.5 24238.3 129.5 24238.3 528.5 24297.3 528.5 24297.3 129.5 24317.3 129.5 24317.3 528.5 24376.3 528.5 24376.3 129.5 24396.3 129.5 24396.3 528.5 24455.3 528.5 24455.3 129.5 24475.3 129.5 24475.3 528.5 24534.3 528.5 24534.3 129.5 24554.3 129.5 24554.3 528.5 24613.3 528.5 24613.3 129.5 24633.3 129.5 24633.3 528.5 24692.3 528.5 24692.3 129.5 24751.3 129.5 24751.3 528.5 24771.3 528.5 24771.3 129.5 24791.3 129.5 24791.3 528.5 25363.3 528.5 25363.3 129.5 25423.3 129.5 25423.3 528.5 25442.3 528.5 25442.3 129.5 25502.3 129.5 25502.3 528.5 25521.3 528.5 25521.3 129.5 25581.3 129.5 25581.3 528.5 25600.3 528.5 25600.3 129.5 25620.3 129.5 25620.3 528.5 25679.3 528.5 25679.3 129.5 25699.3 129.5 25699.3 528.5 25758.3 528.5 25758.3 129.5 25778.3 129.5 25778.3 528.5 25837.3 528.5 25837.3 129.5 25897.3 129.5 25897.3 528.5 25916.3 528.5 25916.3 129.5 25936.3 129.5 25936.3 528.5 25995.4 528.5 25995.4 129.5 26015.4 129.5 26015.4 528.5 26075.4 528.5 26075.4 129.5 26134.4 129.5 26134.4 528.5 26154.4 528.5 26154.4 129.5 26173.4 129.5 26173.4 528.5 26233.4 528.5 26233.4 129.5 26292.4 129.5 26292.4 528.5 26312.4 528.5 26312.4 129.5 26331.4 129.5 26331.4 528.5 26391.4 528.5 26391.4 129.5 26450.4 129.5 26450.4 528.5 26470.4 528.5 26470.4 129.5 26489.4 129.5 26489.4 528.5 26549.4 528.5 26549.4 129.5 26568.4 129.5 26568.4 528.5 26628.4 528.5 26628.4 129.5 26647.4 129.5 26647.4 528.5 26707.4 528.5 26707.4 129.5 26726.4 129.5 26726.4 528.5 26786.4 528.5 26786.4 129.5 26805.4 129.5 26805.4 528.5 26865.4 528.5 26865.4 129.5 26884.4 129.5 26884.4 528.5 26944.4 528.5 26944.4 129.5 26963.4 129.5 26963.4 528.5 27023.4 528.5 27023.4 129.5 27042.4 129.5 27042.4 528.5 27102.4 528.5 27102.4 129.5 27121.4 129.5 27121.4 528.5 27181.4 528.5 27181.4 129.5 27240.4 129.5 27240.4 528.5 27260.4 528.5 27260.4 129.5 27279.4 129.5 27279.4 528.5 27852.4 528.5 27852.4 129.5 27911.4 129.5 27911.4 528.5 27931.4 528.5 27931.4 129.5 27990.4 129.5 27990.4 528.5 28010.4 528.5 28010.4 129.5 28069.4 129.5 28069.4 528.5 28089.4 528.5 28089.4 129.5 28109.4 129.5 28109.4 528.5 28168.4 528.5 28168.4 129.5 28188.4 129.5 28188.4 528.5 28247.4 528.5 28247.4 129.5 28267.4 129.5 28267.4 528.5 28326.4 528.5 28326.4 129.5 28385.4 129.5 28385.4 528.5 28405.4 528.5 28405.4 129.5 28425.4 129.5 28425.4 528.5 28484.4 528.5 28484.4 129.5 28504.4 129.5 28504.4 528.5 28563.5 528.5" stroke="#156082" stroke-width="3.4375" stroke-linecap="round" stroke-linejoin="round" stroke-miterlimit="10" fill="none"/></g><g clip-path="url(#clip2)"><path d="M4880.5 228.5 4880.5 428.5 4900.66 428.5 4900.66 228.5 4920.66 228.5 4920.66 428.5 4939.66 428.5 4939.66 228.5 4959.66 228.5 4959.66 428.5 4979.66 428.5 4979.66 228.5 4999.66 228.5 4999.66 428.5 5018.66 428.5 5018.66 228.5 5038.67 228.5 5038.67 428.5 5058.67 428.5 5058.67 228.5 5078.67 228.5 5078.67 428.5 5097.67 428.5 5097.67 228.5 5117.67 228.5 5117.67 428.5 5137.67 428.5 5137.67 228.5 5157.67 228.5 5157.67 428.5 5176.67 428.5 5176.67 228.5 5196.67 228.5 5196.67 428.5 5216.67 428.5 5216.67 228.5 5236.67 228.5 5236.67 428.5 5255.67 428.5 5255.67 228.5 5275.67 228.5 5275.67 428.5 5295.67 428.5 5295.67 228.5 5315.67 228.5 5315.67 428.5 5334.68 428.5 5334.68 228.5 5354.68 228.5 5354.68 428.5 5374.68 428.5 5374.68 228.5 5394.68 228.5 5394.68 428.5 5413.68 428.5 5413.68 228.5 5433.68 228.5 5433.68 428.5 5453.68 428.5 5453.68 228.5 5473.68 228.5 5473.68 428.5 5492.68 428.5 5492.68 228.5 5512.68 228.5 5512.68 428.5 5532.68 428.5 5532.68 228.5 5552.68 228.5 5552.68 428.5 5571.68 428.5 5571.68 228.5 5591.68 228.5 5591.68 428.5 5611.68 428.5 5611.68 228.5 5631.69 228.5 5631.69 428.5 5650.69 428.5 5650.69 228.5 5670.69 228.5 5670.69 428.5 5690.69 428.5 5690.69 228.5 5710.69 228.5 5710.69 428.5 5729.69 428.5 5729.69 228.5 5749.69 228.5 5749.69 428.5 5769.69 428.5 5769.69 228.5 5789.69 228.5 5789.69 428.5 5808.69 428.5 5808.69 228.5 5828.69 228.5 5828.69 428.5 5848.69 428.5 5848.69 228.5 5868.69 228.5 5868.69 428.5 5887.69 428.5 5887.69 228.5 5907.69 228.5 5907.69 428.5 5927.69 428.5 5927.69 228.5 5947.7 228.5 5947.7 428.5 5966.7 428.5 5966.7 228.5 5986.7 228.5 5986.7 428.5 6006.7 428.5 6006.7 228.5 6026.7 228.5 6026.7 428.5 6045.7 428.5 6045.7 228.5 6065.7 228.5 6065.7 428.5 6085.7 428.5 6085.7 228.5 6105.7 228.5 6105.7 428.5 6124.7 428.5 6124.7 228.5 6144.7 228.5 6144.7 428.5 6164.7 428.5 6164.7 228.5 6184.7 228.5 6184.7 428.5 6203.7 428.5 6203.7 228.5 6223.7 228.5 6223.7 428.5 6243.71 428.5 6243.71 228.5 6263.71 228.5 6263.71 428.5 6282.71 428.5 6282.71 228.5 6302.71 228.5 6302.71 428.5 6322.71 428.5 6322.71 228.5 6342.71 228.5 6342.71 428.5 6361.71 428.5 6361.71 228.5 6381.71 228.5 6381.71 428.5 6401.71 428.5 6401.71 228.5 6421.71 228.5 6421.71 428.5 6440.71 428.5 6440.71 228.5 6460.71 228.5 6460.71 428.5 6480.71 428.5 6480.71 228.5 6500.71 228.5 6500.71 428.5 6519.71 428.5 6519.71 228.5 6539.71 228.5 6539.71 428.5 6559.72 428.5 6559.72 228.5 6579.72 228.5 6579.72 428.5 6598.72 428.5 6598.72 228.5 6618.72 228.5 6618.72 428.5 6638.72 428.5 6638.72 228.5 6658.72 228.5 6658.72 428.5 6677.72 428.5 6677.72 228.5 6697.72 228.5 6697.72 428.5 6717.72 428.5 6717.72 228.5 6737.72 228.5 6737.72 428.5 6756.72 428.5 6756.72 228.5 6776.72 228.5 6776.72 428.5 6796.72 428.5 6796.72 228.5 6816.72 228.5 6816.72 428.5 6835.72 428.5 6835.72 228.5 6855.73 228.5 6855.73 428.5 6875.73 428.5 6875.73 228.5 6895.73 228.5 6895.73 428.5 6914.73 428.5 6914.73 228.5 6934.73 228.5 6934.73 428.5 6954.73 428.5 6954.73 228.5 6974.73 228.5 6974.73 428.5 6994.73 428.5 6994.73 228.5 7013.73 228.5 7013.73 428.5 7033.73 428.5 7033.73 228.5 7053.73 228.5 7053.73 428.5 7073.73 428.5 7073.73 228.5 7092.73 228.5 7092.73 428.5 7112.73 428.5 7112.73 228.5 7132.73 228.5 7132.73 428.5 7152.73 428.5 7152.73 228.5 7171.74 228.5 7171.74 428.5 7191.74 428.5 7191.74 228.5 7211.74 228.5 7211.74 428.5 7231.74 428.5 7231.74 228.5 7250.74 228.5 7250.74 428.5 7270.74 428.5 7270.74 228.5 7290.74 228.5 7290.74 428.5 7310.74 428.5 7310.74 228.5 7329.74 228.5 7329.74 428.5 7349.74 428.5 7349.74 228.5 7369.74 228.5 7369.74 428.5 7389.74 428.5 7389.74 228.5 7408.74 228.5 7408.74 428.5 7428.74 428.5 7428.74 228.5 7448.74 228.5 7448.74 428.5 7468.75 428.5 7468.75 228.5 7487.75 228.5 7487.75 428.5 7507.75 428.5 7507.75 228.5 7527.75 228.5 7527.75 428.5 7547.75 428.5 7547.75 228.5 7566.75 228.5 7566.75 428.5 7586.75 428.5 7586.75 228.5 7606.75 228.5 7606.75 428.5 7626.75 428.5 7626.75 228.5 7645.75 228.5 7645.75 428.5 7665.75 428.5 7665.75 228.5 7685.75 228.5 7685.75 428.5 7705.75 428.5 7705.75 228.5 7724.75 228.5 7724.75 428.5 7744.75 428.5 7744.75 228.5 7764.75 228.5 7764.75 428.5 7784.76 428.5 7784.76 228.5 7803.76 228.5 7803.76 428.5 7823.76 428.5 7823.76 228.5 7843.76 228.5 7843.76 428.5 7863.76 428.5 7863.76 228.5 7882.76 228.5 7882.76 428.5 7902.76 428.5 7902.76 228.5 7922.76 228.5 7922.76 428.5 7942.5 428.5 7942.5 228.5" stroke="#E97132" stroke-width="3.4375" stroke-linecap="round" stroke-linejoin="round" stroke-miterlimit="10" stroke-dasharray="24.0625 13.75" fill="none"/></g><g><text fill="#0E2841" font-family="Aptos Narrow,Aptos Narrow_MSFontService,sans-serif" font-weight="400" font-stretch="semi-condensed" font-size="41" transform="matrix(1 0 0 1 4821.76 540)">0</text></g><g><text fill="#0E2841" font-family="Aptos Narrow,Aptos Narrow_MSFontService,sans-serif" font-weight="400" font-stretch="semi-condensed" font-size="41" transform="matrix(1 0 0 1 4821.76 141)">1</text></g><g><text fill="#0E2841" font-family="Aptos Narrow,Aptos Narrow_MSFontService,sans-serif" font-weight="400" font-stretch="semi-condensed" font-size="41" transform="matrix(1 0 0 1 4870.29 593)">0</text></g><g><text fill="#0E2841" font-family="Aptos Narrow,Aptos Narrow_MSFontService,sans-serif" font-weight="400" font-stretch="semi-condensed" font-size="41" transform="matrix(1 0 0 1 5302.55 593)">10000</text></g><g><text fill="#0E2841" font-family="Aptos Narrow,Aptos Narrow_MSFontService,sans-serif" font-weight="400" font-stretch="semi-condensed" font-size="41" transform="matrix(1 0 0 1 5776.6 593)">20000</text></g><g><text fill="#0E2841" font-family="Aptos Narrow,Aptos Narrow_MSFontService,sans-serif" font-weight="400" font-stretch="semi-condensed" font-size="41" transform="matrix(1 0 0 1 6250.65 593)">30000</text></g><g><text fill="#0E2841" font-family="Aptos Narrow,Aptos Narrow_MSFontService,sans-serif" font-weight="400" font-stretch="semi-condensed" font-size="41" transform="matrix(1 0 0 1 6724.71 593)">40000</text></g><g><text fill="#0E2841" font-family="Aptos Narrow,Aptos Narrow_MSFontService,sans-serif" font-weight="400" font-stretch="semi-condensed" font-size="41" transform="matrix(1 0 0 1 7198.76 593)">50000</text></g><g><text fill="#0E2841" font-family="Aptos Narrow,Aptos Narrow_MSFontService,sans-serif" font-weight="400" font-stretch="semi-condensed" font-size="41" transform="matrix(1 0 0 1 7672.81 593)">60000</text></g><g><text fill="#0E2841" font-family="Aptos Narrow,Aptos Narrow_MSFontService,sans-serif" font-weight="700" font-stretch="semi-condensed" font-size="41" transform="matrix(1 0 0 1 6329.89 657)">Time (</text></g><g><text fill="#0E2841" font-family="Aptos Narrow,Aptos Narrow_MSFontService,sans-serif" font-weight="700" font-stretch="semi-condensed" font-size="41" transform="matrix(1 0 0 1 6433.04 657)">μ</text></g><g><text fill="#0E2841" font-family="Aptos Narrow,Aptos Narrow_MSFontService,sans-serif" font-weight="700" font-stretch="semi-condensed" font-size="41" transform="matrix(1 0 0 1 6454.84 657)">s) </text></g><rect x="4792.5" y="79.4999" width="3246" height="647" stroke="#CADFF4" stroke-width="3.4375" stroke-linejoin="round" stroke-miterlimit="10" fill="none"/></g></svg>