<svg width="3241" height="656" xmlns="http://www.w3.org/2000/svg" xmlns:xlink="http://www.w3.org/1999/xlink" xml:space="preserve" overflow="hidden"><defs><clipPath id="clip0"><rect x="4787" y="80" width="3241" height="656"/></clipPath><clipPath id="clip1"><rect x="4875" y="130" width="3053" height="411"/></clipPath><clipPath id="clip2"><rect x="4875" y="130" width="3053" height="411"/></clipPath></defs><g clip-path="url(#clip0)" transform="translate(-4787 -80)"><rect x="4787" y="80.0001" width="3241" height="656" fill="#FFFFFF"/><g clip-path="url(#clip1)"><path d="M4875.5 130.5 4875.5 538.5 5447.68 538.5 5447.68 130.5 5506.68 130.5 5506.68 538.5 5526.68 538.5 5526.68 130.5 5585.68 130.5 5585.68 538.5 5605.68 538.5 5605.68 130.5 5664.69 130.5 5664.69 538.5 5684.69 538.5 5684.69 130.5 5703.69 130.5 5703.69 538.5 5762.69 538.5 5762.69 130.5 5782.69 130.5 5782.69 538.5 5841.69 538.5 5841.69 130.5 5861.69 130.5 5861.69 538.5 5920.69 538.5 5920.69 130.5 5979.7 130.5 5979.7 538.5 5999.7 538.5 5999.7 130.5 6019.7 130.5 6019.7 538.5 6078.7 538.5 6078.7 130.5 6098.7 130.5 6098.7 538.5 6157.7 538.5 6157.7 130.5 6216.7 130.5 6216.7 538.5 6236.71 538.5 6236.71 130.5 6255.71 130.5 6255.71 538.5 6314.71 538.5 6314.71 130.5 6374.71 130.5 6374.71 538.5 6393.71 538.5 6393.71 130.5 6413.71 130.5 6413.71 538.5 6472.71 538.5 6472.71 130.5 6531.71 130.5 6531.71 538.5 6551.72 538.5 6551.72 130.5 6571.72 130.5 6571.72 538.5 6630.72 538.5 6630.72 130.5 6650.72 130.5 6650.72 538.5 6709.72 538.5 6709.72 130.5 6728.72 130.5 6728.72 538.5 6788.72 538.5 6788.72 130.5 6807.72 130.5 6807.72 538.5 6866.73 538.5 6866.73 130.5 6886.73 130.5 6886.73 538.5 6945.73 538.5 6945.73 130.5 6965.73 130.5 6965.73 538.5 7024.73 538.5 7024.73 130.5 7044.73 130.5 7044.73 538.5 7103.73 538.5 7103.73 130.5 7123.73 130.5 7123.73 538.5 7182.74 538.5 7182.74 130.5 7202.74 130.5 7202.74 538.5 7261.74 538.5 7261.74 130.5 7320.74 130.5 7320.74 538.5 7340.74 538.5 7340.74 130.5 7359.74 130.5 7359.74 538.5 7931.76 538.5 7931.76 130.5 7990.76 130.5 7990.76 538.5 8010.76 538.5 8010.76 130.5 8069.76 130.5 8069.76 538.5 8089.77 538.5 8089.77 130.5 8148.77 130.5 8148.77 538.5 8167.77 538.5 8167.77 130.5 8187.77 130.5 8187.77 538.5 8246.77 538.5 8246.77 130.5 8266.77 130.5 8266.77 538.5 8325.77 538.5 8325.77 130.5 8345.77 130.5 8345.77 538.5 8404.78 538.5 8404.78 130.5 8463.78 130.5 8463.78 538.5 8483.78 538.5 8483.78 130.5 8503.78 130.5 8503.78 538.5 8562.78 538.5 8562.78 130.5 8581.78 130.5 8581.78 538.5 8641.78 538.5 8641.78 130.5 8700.79 130.5 8700.79 538.5 8719.79 538.5 8719.79 130.5 8739.79 130.5 8739.79 538.5 8798.79 538.5 8798.79 130.5 8857.79 130.5 8857.79 538.5 8877.79 538.5 8877.79 130.5 8897.79 130.5 8897.79 538.5 8956.79 538.5 8956.79 130.5 9015.8 130.5 9015.8 538.5 9035.8 538.5 9035.8 130.5 9055.8 130.5 9055.8 538.5 9114.8 538.5 9114.8 130.5 9133.8 130.5 9133.8 538.5 9193.8 538.5 9193.8 130.5 9212.8 130.5 9212.8 538.5 9271.8 538.5 9271.8 130.5 9291.8 130.5 9291.8 538.5 9350.81 538.5 9350.81 130.5 9370.81 130.5 9370.81 538.5 9429.81 538.5 9429.81 130.5 9449.81 130.5 9449.81 538.5 9508.81 538.5 9508.81 130.5 9528.81 130.5 9528.81 538.5 9587.81 538.5 9587.81 130.5 9607.82 130.5 9607.82 538.5 9666.82 538.5 9666.82 130.5 9685.82 130.5 9685.82 538.5 9745.82 538.5 9745.82 130.5 9804.82 130.5 9804.82 538.5 9823.82 538.5 9823.82 130.5 9843.82 130.5 9843.82 538.5 10415.8 538.5 10415.8 130.5 10474.8 130.5 10474.8 538.5 10494.8 538.5 10494.8 130.5 10553.8 130.5 10553.8 538.5 10573.8 538.5 10573.8 130.5 10632.8 130.5 10632.8 538.5 10651.8 538.5 10651.8 130.5 10671.9 130.5 10671.9 538.5 10730.9 538.5 10730.9 130.5 10750.9 130.5 10750.9 538.5 10809.9 538.5 10809.9 130.5 10829.9 130.5 10829.9 538.5 10888.9 538.5 10888.9 130.5 10947.9 130.5 10947.9 538.5 10967.9 538.5 10967.9 130.5 10987.9 130.5 10987.9 538.5 11046.9 538.5 11046.9 130.5 11065.9 130.5 11065.9 538.5 11125.9 538.5 11125.9 130.5 11184.9 130.5 11184.9 538.5 11203.9 538.5 11203.9 130.5 11223.9 130.5 11223.9 538.5 11282.9 538.5 11282.9 130.5 11341.9 130.5 11341.9 538.5 11361.9 538.5 11361.9 130.5 11381.9 130.5 11381.9 538.5 11440.9 538.5 11440.9 130.5 11499.9 130.5 11499.9 538.5 11519.9 538.5 11519.9 130.5 11538.9 130.5 11538.9 538.5 11598.9 538.5 11598.9 130.5 11617.9 130.5 11617.9 538.5 11676.9 538.5 11676.9 130.5 11696.9 130.5 11696.9 538.5 11755.9 538.5 11755.9 130.5 11775.9 130.5 11775.9 538.5 11834.9 538.5 11834.9 130.5 11854.9 130.5 11854.9 538.5 11913.9 538.5 11913.9 130.5 11933.9 130.5 11933.9 538.5 11992.9 538.5 11992.9 130.5 12012.9 130.5 12012.9 538.5 12071.9 538.5 12071.9 130.5 12090.9 130.5 12090.9 538.5 12150.9 538.5 12150.9 130.5 12169.9 130.5 12169.9 538.5 12228.9 538.5 12228.9 130.5 12288.9 130.5 12288.9 538.5 12307.9 538.5 12307.9 130.5 12327.9 130.5 12327.9 538.5 12899.9 538.5 12899.9 130.5 12958.9 130.5 12958.9 538.5 12978.9 538.5 12978.9 130.5 13037.9 130.5 13037.9 538.5 13056.9 538.5 13056.9 130.5 13116.9 130.5 13116.9 538.5 13135.9 538.5 13135.9 130.5 13155.9 130.5 13155.9 538.5 13214.9 538.5 13214.9 130.5 13234.9 130.5 13234.9 538.5 13293.9 538.5 13293.9 130.5 13313.9 130.5 13313.9 538.5 13372.9 538.5 13372.9 130.5 13431.9 130.5 13431.9 538.5 13451.9 538.5 13451.9 130.5 13470.9 130.5 13470.9 538.5 13530.9 538.5 13530.9 130.5 13549.9 130.5 13549.9 538.5 13608.9 538.5 13608.9 130.5 13668.9 130.5 13668.9 538.5 13687.9 538.5 13687.9 130.5 13708 130.5 13708 538.5 13767 538.5 13767 130.5 13826 130.5 13826 538.5 13846 538.5 13846 130.5 13866 130.5 13866 538.5 13925 538.5 13925 130.5 13984 130.5 13984 538.5 14004 538.5 14004 130.5 14023 130.5 14023 538.5 14083 538.5 14083 130.5 14102 130.5 14102 538.5 14161 538.5 14161 130.5 14181 130.5 14181 538.5 14240 538.5 14240 130.5 14260 130.5 14260 538.5 14319 538.5 14319 130.5 14339 130.5 14339 538.5 14398 538.5 14398 130.5 14418 130.5 14418 538.5 14477 538.5 14477 130.5 14497 130.5 14497 538.5 14556 538.5 14556 130.5 14575 130.5 14575 538.5 14635 538.5 14635 130.5 14654 130.5 14654 538.5 14713 538.5 14713 130.5 14773 130.5 14773 538.5 14792 538.5 14792 130.5 14812 130.5 14812 538.5 15384 538.5 15384 130.5 15443 130.5 15443 538.5 15462 538.5 15462 130.5 15522 130.5 15522 538.5 15541 538.5 15541 130.5 15600 130.5 15600 538.5 15620 538.5 15620 130.5 15640 130.5 15640 538.5 15699 538.5 15699 130.5 15719 130.5 15719 538.5 15778 538.5 15778 130.5 15798 130.5 15798 538.5 15857 538.5 15857 130.5 15916 130.5 15916 538.5 15936 538.5 15936 130.5 15955 130.5 15955 538.5 16014 538.5 16014 130.5 16034 130.5 16034 538.5 16093 538.5 16093 130.5 16152 130.5 16152 538.5 16172 538.5 16172 130.5 16192 130.5 16192 538.5 16251 538.5 16251 130.5 16310 130.5 16310 538.5 16330 538.5 16330 130.5 16350 130.5 16350 538.5 16409 538.5 16409 130.5 16468 130.5 16468 538.5 16488 538.5 16488 130.5 16507 130.5 16507 538.5 16566 538.5 16566 130.5 16586 130.5 16586 538.5 16645 538.5 16645 130.5 16665 130.5 16665 538.5 16724 538.5 16724 130.5 16744.1 130.5 16744.1 538.5 16803.1 538.5 16803.1 130.5 16823.1 130.5 16823.1 538.5 16882.1 538.5 16882.1 130.5 16902.1 130.5 16902.1 538.5 16961.1 538.5 16961.1 130.5 16980.1 130.5 16980.1 538.5 17040.1 538.5 17040.1 130.5 17059.1 130.5 17059.1 538.5 17118.1 538.5 17118.1 130.5 17138.1 130.5 17138.1 538.5 17197.1 538.5 17197.1 130.5 17256.1 130.5 17256.1 538.5 17276.1 538.5 17276.1 130.5 17296.1 130.5 17296.1 538.5 17868.1 538.5 17868.1 130.5 17927.1 130.5 17927.1 538.5 17946.1 538.5 17946.1 130.5 18006.1 130.5 18006.1 538.5 18025.1 538.5 18025.1 130.5 18084.1 130.5 18084.1 538.5 18104.1 538.5 18104.1 130.5 18124.1 130.5 18124.1 538.5 18183.1 538.5 18183.1 130.5 18203.1 130.5 18203.1 538.5 18262.1 538.5 18262.1 130.5 18282.1 130.5 18282.1 538.5 18341.1 538.5 18341.1 130.5 18400.1 130.5 18400.1 538.5 18420.1 538.5 18420.1 130.5 18439.1 130.5 18439.1 538.5 18498.1 538.5 18498.1 130.5 18518.1 130.5 18518.1 538.5 18577.1 538.5 18577.1 130.5 18636.1 130.5 18636.1 538.5 18656.1 538.5 18656.1 130.5 18676.1 130.5 18676.1 538.5 18735.1 538.5 18735.1 130.5 18794.1 130.5 18794.1 538.5 18814.1 538.5 18814.1 130.5 18834.1 130.5 18834.1 538.5 18893.1 538.5 18893.1 130.5 18952.1 130.5 18952.1 538.5 18972.1 538.5 18972.1 130.5 18991.1 130.5 18991.1 538.5 19050.1 538.5 19050.1 130.5 19070.1 130.5 19070.1 538.5 19129.1 538.5 19129.1 130.5 19149.1 130.5 19149.1 538.5 19208.1 538.5 19208.1 130.5 19228.1 130.5 19228.1 538.5 19287.1 538.5 19287.1 130.5 19307.1 130.5 19307.1 538.5 19366.1 538.5 19366.1 130.5 19385.1 130.5 19385.1 538.5 19445.1 538.5 19445.1 130.5 19464.1 130.5 19464.1 538.5 19523.1 538.5 19523.1 130.5 19543.1 130.5 19543.1 538.5 19602.1 538.5 19602.1 130.5 19622.1 130.5 19622.1 538.5 19681.1 538.5 19681.1 130.5 19740.1 130.5 19740.1 538.5 19760.1 538.5 19760.1 130.5 19780.1 130.5 19780.1 538.5 20351.2 538.5 20351.2 130.5 20411.2 130.5 20411.2 538.5 20430.2 538.5 20430.2 130.5 20489.2 130.5 20489.2 538.5 20509.2 538.5 20509.2 130.5 20568.2 130.5 20568.2 538.5 20588.2 538.5 20588.2 130.5 20608.2 130.5 20608.2 538.5 20667.2 538.5 20667.2 130.5 20687.2 130.5 20687.2 538.5 20746.2 538.5 20746.2 130.5 20765.2 130.5 20765.2 538.5 20825.2 538.5 20825.2 130.5 20884.2 130.5 20884.2 538.5 20903.2 538.5 20903.2 130.5 20923.2 130.5 20923.2 538.5 20982.2 538.5 20982.2 130.5 21002.2 130.5 21002.2 538.5 21061.2 538.5 21061.2 130.5 21120.2 130.5 21120.2 538.5 21140.2 538.5 21140.2 130.5 21160.2 130.5 21160.2 538.5 21219.2 538.5 21219.2 130.5 21278.2 130.5 21278.2 538.5 21298.2 538.5 21298.2 130.5 21317.2 130.5 21317.2 538.5 21377.2 538.5 21377.2 130.5 21436.2 130.5 21436.2 538.5 21455.2 538.5 21455.2 130.5 21475.2 130.5 21475.2 538.5 21534.2 538.5 21534.2 130.5 21554.2 130.5 21554.2 538.5 21613.2 538.5 21613.2 130.5 21633.2 130.5 21633.2 538.5 21692.2 538.5 21692.2 130.5 21712.2 130.5 21712.2 538.5 21771.2 538.5 21771.2 130.5 21791.2 130.5 21791.2 538.5 21850.2 538.5 21850.2 130.5 21869.2 130.5 21869.2 538.5 21929.2 538.5 21929.2 130.5 21948.2 130.5 21948.2 538.5 22007.2 538.5 22007.2 130.5 22027.2 130.5 22027.2 538.5 22086.2 538.5 22086.2 130.5 22106.2 130.5 22106.2 538.5 22165.2 538.5 22165.2 130.5 22224.2 130.5 22224.2 538.5 22244.2 538.5 22244.2 130.5 22264.2 130.5 22264.2 538.5 22835.2 538.5 22835.2 130.5 22895.3 130.5 22895.3 538.5 22914.3 538.5 22914.3 130.5 22973.3 130.5 22973.3 538.5 22993.3 538.5 22993.3 130.5 23052.3 130.5 23052.3 538.5 23072.3 538.5 23072.3 130.5 23092.3 130.5 23092.3 538.5 23151.3 538.5 23151.3 130.5 23170.3 130.5 23170.3 538.5 23230.3 538.5 23230.3 130.5 23249.3 130.5 23249.3 538.5 23308.3 538.5 23308.3 130.5 23368.3 130.5 23368.3 538.5 23387.3 538.5 23387.3 130.5 23407.3 130.5 23407.3 538.5 23466.3 538.5 23466.3 130.5 23486.3 130.5 23486.3 538.5 23545.3 538.5 23545.3 130.5 23604.3 130.5 23604.3 538.5 23624.3 538.5 23624.3 130.5 23644.3 130.5 23644.3 538.5 23703.3 538.5 23703.3 130.5 23762.3 130.5 23762.3 538.5 23782.3 538.5 23782.3 130.5 23801.3 130.5 23801.3 538.5 23860.3 538.5 23860.3 130.5 23920.3 130.5 23920.3 538.5 23939.3 538.5 23939.3 130.5 23959.3 130.5 23959.3 538.5 24018.3 538.5 24018.3 130.5 24038.3 130.5 24038.3 538.5 24097.3 538.5 24097.3 130.5 24117.3 130.5 24117.3 538.5 24176.3 538.5 24176.3 130.5 24196.3 130.5 24196.3 538.5 24255.3 538.5 24255.3 130.5 24274.3 130.5 24274.3 538.5 24334.3 538.5 24334.3 130.5 24353.3 130.5 24353.3 538.5 24412.3 538.5 24412.3 130.5 24432.3 130.5 24432.3 538.5 24491.3 538.5 24491.3 130.5 24511.3 130.5 24511.3 538.5 24570.3 538.5 24570.3 130.5 24590.3 130.5 24590.3 538.5 24649.3 538.5 24649.3 130.5 24708.3 130.5 24708.3 538.5 24728.3 538.5 24728.3 130.5 24748.3 130.5 24748.3 538.5 25319.3 538.5 25319.3 130.5 25378.3 130.5 25378.3 538.5 25398.3 538.5 25398.3 130.5 25457.3 130.5 25457.3 538.5 25477.3 538.5 25477.3 130.5 25536.3 130.5 25536.3 538.5 25556.3 538.5 25556.3 130.5 25576.3 130.5 25576.3 538.5 25635.3 538.5 25635.3 130.5 25654.3 130.5 25654.3 538.5 25714.3 538.5 25714.3 130.5 25733.3 130.5 25733.3 538.5 25792.3 538.5 25792.3 130.5 25852.3 130.5 25852.3 538.5 25871.3 538.5 25871.3 130.5 25891.3 130.5 25891.3 538.5 25950.4 538.5 25950.4 130.5 25970.4 130.5 25970.4 538.5 26029.4 538.5 26029.4 130.5 26088.4 130.5 26088.4 538.5 26108.4 538.5 26108.4 130.5 26128.4 130.5 26128.4 538.5 26187.4 538.5 26187.4 130.5 26246.4 130.5 26246.4 538.5 26266.4 538.5 26266.4 130.5 26285.4 130.5 26285.4 538.5 26344.4 538.5 26344.4 130.5 26404.4 130.5 26404.4 538.5 26423.4 538.5 26423.4 130.5 26443.4 130.5 26443.4 538.5 26502.4 538.5 26502.4 130.5 26522.4 130.5 26522.4 538.5 26581.4 538.5 26581.4 130.5 26601.4 130.5 26601.4 538.5 26660.4 538.5 26660.4 130.5 26680.4 130.5 26680.4 538.5 26739.4 538.5 26739.4 130.5 26758.4 130.5 26758.4 538.5 26817.4 538.5 26817.4 130.5 26837.4 130.5 26837.4 538.5 26896.4 538.5 26896.4 130.5 26916.4 130.5 26916.4 538.5 26975.4 538.5 26975.4 130.5 26995.4 130.5 26995.4 538.5 27054.4 538.5 27054.4 130.5 27074.4 130.5 27074.4 538.5 27133.4 538.5 27133.4 130.5 27192.4 130.5 27192.4 538.5 27212.4 538.5 27212.4 130.5 27231.4 130.5 27231.4 538.5 27803.4 538.5 27803.4 130.5 27862.4 130.5 27862.4 538.5 27882.4 538.5 27882.4 130.5 27941.4 130.5 27941.4 538.5 27961.4 538.5 27961.4 130.5 28020.4 130.5 28020.4 538.5 28040.4 538.5 28040.4 130.5 28059.4 130.5 28059.4 538.5 28119.4 538.5 28119.4 130.5 28138.4 130.5 28138.4 538.5 28197.4 538.5 28197.4 130.5 28217.4 130.5 28217.4 538.5 28276.4 538.5 28276.4 130.5 28335.4 130.5 28335.4 538.5 28355.4 538.5 28355.4 130.5 28375.4 130.5 28375.4 538.5 28434.4 538.5 28434.4 130.5 28454.4 130.5 28454.4 538.5 28513.5 538.5" stroke="#156082" stroke-width="3.4375" stroke-linecap="round" stroke-linejoin="round" stroke-miterlimit="10" fill="none"/></g><g clip-path="url(#clip2)"><path d="M4875.5 232.5 4875.5 436.5 4895.66 436.5 4895.66 232.5 4915.66 232.5 4915.66 436.5 4934.66 436.5 4934.66 232.5 4954.66 232.5 4954.66 436.5 4974.66 436.5 4974.66 232.5 4994.66 232.5 4994.66 436.5 5013.66 436.5 5013.66 232.5 5033.67 232.5 5033.67 436.5 5053.67 436.5 5053.67 232.5 5072.67 232.5 5072.67 436.5 5092.67 436.5 5092.67 232.5 5112.67 232.5 5112.67 436.5 5132.67 436.5 5132.67 232.5 5151.67 232.5 5151.67 436.5 5171.67 436.5 5171.67 232.5 5191.67 232.5 5191.67 436.5 5210.67 436.5 5210.67 232.5 5230.67 232.5 5230.67 436.5 5250.67 436.5 5250.67 232.5 5270.67 232.5 5270.67 436.5 5289.67 436.5 5289.67 232.5 5309.67 232.5 5309.67 436.5 5329.68 436.5 5329.68 232.5 5348.68 232.5 5348.68 436.5 5368.68 436.5 5368.68 232.5 5388.68 232.5 5388.68 436.5 5408.68 436.5 5408.68 232.5 5427.68 232.5 5427.68 436.5 5447.68 436.5 5447.68 232.5 5467.68 232.5 5467.68 436.5 5486.68 436.5 5486.68 232.5 5506.68 232.5 5506.68 436.5 5526.68 436.5 5526.68 232.5 5546.68 232.5 5546.68 436.5 5565.68 436.5 5565.68 232.5 5585.68 232.5 5585.68 436.5 5605.68 436.5 5605.68 232.5 5624.68 232.5 5624.68 436.5 5644.69 436.5 5644.69 232.5 5664.69 232.5 5664.69 436.5 5684.69 436.5 5684.69 232.5 5703.69 232.5 5703.69 436.5 5723.69 436.5 5723.69 232.5 5743.69 232.5 5743.69 436.5 5762.69 436.5 5762.69 232.5 5782.69 232.5 5782.69 436.5 5802.69 436.5 5802.69 232.5 5822.69 232.5 5822.69 436.5 5841.69 436.5 5841.69 232.5 5861.69 232.5 5861.69 436.5 5881.69 436.5 5881.69 232.5 5900.69 232.5 5900.69 436.5 5920.69 436.5 5920.69 232.5 5940.7 232.5 5940.7 436.5 5960.7 436.5 5960.7 232.5 5979.7 232.5 5979.7 436.5 5999.7 436.5 5999.7 232.5 6019.7 232.5 6019.7 436.5 6038.7 436.5 6038.7 232.5 6058.7 232.5 6058.7 436.5 6078.7 436.5 6078.7 232.5 6098.7 232.5 6098.7 436.5 6117.7 436.5 6117.7 232.5 6137.7 232.5 6137.7 436.5 6157.7 436.5 6157.7 232.5 6176.7 232.5 6176.7 436.5 6196.7 436.5 6196.7 232.5 6216.7 232.5 6216.7 436.5 6236.71 436.5 6236.71 232.5 6255.71 232.5 6255.71 436.5 6275.71 436.5 6275.71 232.5 6295.71 232.5 6295.71 436.5 6314.71 436.5 6314.71 232.5 6334.71 232.5 6334.71 436.5 6354.71 436.5 6354.71 232.5 6374.71 232.5 6374.71 436.5 6393.71 436.5 6393.71 232.5 6413.71 232.5 6413.71 436.5 6433.71 436.5 6433.71 232.5 6452.71 232.5 6452.71 436.5 6472.71 436.5 6472.71 232.5 6492.71 232.5 6492.71 436.5 6512.71 436.5 6512.71 232.5 6531.71 232.5 6531.71 436.5 6551.72 436.5 6551.72 232.5 6571.72 232.5 6571.72 436.5 6590.72 436.5 6590.72 232.5 6610.72 232.5 6610.72 436.5 6630.72 436.5 6630.72 232.5 6650.72 232.5 6650.72 436.5 6669.72 436.5 6669.72 232.5 6689.72 232.5 6689.72 436.5 6709.72 436.5 6709.72 232.5 6728.72 232.5 6728.72 436.5 6748.72 436.5 6748.72 232.5 6768.72 232.5 6768.72 436.5 6788.72 436.5 6788.72 232.5 6807.72 232.5 6807.72 436.5 6827.72 436.5 6827.72 232.5 6847.73 232.5 6847.73 436.5 6866.73 436.5 6866.73 232.5 6886.73 232.5 6886.73 436.5 6906.73 436.5 6906.73 232.5 6926.73 232.5 6926.73 436.5 6945.73 436.5 6945.73 232.5 6965.73 232.5 6965.73 436.5 6985.73 436.5 6985.73 232.5 7004.73 232.5 7004.73 436.5 7024.73 436.5 7024.73 232.5 7044.73 232.5 7044.73 436.5 7064.73 436.5 7064.73 232.5 7083.73 232.5 7083.73 436.5 7103.73 436.5 7103.73 232.5 7123.73 232.5 7123.73 436.5 7142.73 436.5 7142.73 232.5 7162.74 232.5 7162.74 436.5 7182.74 436.5 7182.74 232.5 7202.74 232.5 7202.74 436.5 7221.74 436.5 7221.74 232.5 7241.74 232.5 7241.74 436.5 7261.74 436.5 7261.74 232.5 7280.74 232.5 7280.74 436.5 7300.74 436.5 7300.74 232.5 7320.74 232.5 7320.74 436.5 7340.74 436.5 7340.74 232.5 7359.74 232.5 7359.74 436.5 7379.74 436.5 7379.74 232.5 7399.74 232.5 7399.74 436.5 7418.74 436.5 7418.74 232.5 7438.74 232.5 7438.74 436.5 7458.75 436.5 7458.75 232.5 7478.75 232.5 7478.75 436.5 7497.75 436.5 7497.75 232.5 7517.75 232.5 7517.75 436.5 7537.75 436.5 7537.75 232.5 7556.75 232.5 7556.75 436.5 7576.75 436.5 7576.75 232.5 7596.75 232.5 7596.75 436.5 7615.75 436.5 7615.75 232.5 7635.75 232.5 7635.75 436.5 7655.75 436.5 7655.75 232.5 7675.75 232.5 7675.75 436.5 7694.75 436.5 7694.75 232.5 7714.75 232.5 7714.75 436.5 7734.75 436.5 7734.75 232.5 7753.75 232.5 7753.75 436.5 7773.76 436.5 7773.76 232.5 7793.76 232.5 7793.76 436.5 7813.76 436.5 7813.76 232.5 7832.76 232.5 7832.76 436.5 7852.76 436.5 7852.76 232.5 7872.76 232.5 7872.76 436.5 7891.76 436.5 7891.76 232.5 7911.76 232.5 7911.76 436.5 7931.5 436.5 7931.5 232.5" stroke="#E97132" stroke-width="3.4375" stroke-linecap="round" stroke-linejoin="round" stroke-miterlimit="10" stroke-dasharray="24.0625 13.75" fill="none"/></g><g><text fill="#0E2841" font-family="Aptos Narrow,Aptos Narrow_MSFontService,sans-serif" font-weight="400" font-stretch="semi-condensed" font-size="41" transform="matrix(1 0 0 1 4816.99 550)">0</text></g><g><text fill="#0E2841" font-family="Aptos Narrow,Aptos Narrow_MSFontService,sans-serif" font-weight="400" font-stretch="semi-condensed" font-size="41" transform="matrix(1 0 0 1 4816.99 142)">1</text></g><g><text fill="#0E2841" font-family="Aptos Narrow,Aptos Narrow_MSFontService,sans-serif" font-weight="400" font-stretch="semi-condensed" font-size="41" transform="matrix(1 0 0 1 4865.52 603)">0</text></g><g><text fill="#0E2841" font-family="Aptos Narrow,Aptos Narrow_MSFontService,sans-serif" font-weight="400" font-stretch="semi-condensed" font-size="41" transform="matrix(1 0 0 1 5296.87 603)">10000</text></g><g><text fill="#0E2841" font-family="Aptos Narrow,Aptos Narrow_MSFontService,sans-serif" font-weight="400" font-stretch="semi-condensed" font-size="41" transform="matrix(1 0 0 1 5770.01 603)">20000</text></g><g><text fill="#0E2841" font-family="Aptos Narrow,Aptos Narrow_MSFontService,sans-serif" font-weight="400" font-stretch="semi-condensed" font-size="41" transform="matrix(1 0 0 1 6243.15 603)">30000</text></g><g><text fill="#0E2841" font-family="Aptos Narrow,Aptos Narrow_MSFontService,sans-serif" font-weight="400" font-stretch="semi-condensed" font-size="41" transform="matrix(1 0 0 1 6716.29 603)">40000</text></g><g><text fill="#0E2841" font-family="Aptos Narrow,Aptos Narrow_MSFontService,sans-serif" font-weight="400" font-stretch="semi-condensed" font-size="41" transform="matrix(1 0 0 1 7189.43 603)">50000</text></g><g><text fill="#0E2841" font-family="Aptos Narrow,Aptos Narrow_MSFontService,sans-serif" font-weight="400" font-stretch="semi-condensed" font-size="41" transform="matrix(1 0 0 1 7662.57 603)">60000</text></g><g><text fill="#0E2841" font-family="Aptos Narrow,Aptos Narrow_MSFontService,sans-serif" font-weight="700" font-stretch="semi-condensed" font-size="41" transform="matrix(1 0 0 1 6322.19 667)">Time (</text></g><g><text fill="#0E2841" font-family="Aptos Narrow,Aptos Narrow_MSFontService,sans-serif" font-weight="700" font-stretch="semi-condensed" font-size="41" transform="matrix(1 0 0 1 6425.33 667)">μ</text></g><g><text fill="#0E2841" font-family="Aptos Narrow,Aptos Narrow_MSFontService,sans-serif" font-weight="700" font-stretch="semi-condensed" font-size="41" transform="matrix(1 0 0 1 6447.13 667)">s) </text></g></g></svg>