<svg width="3241" height="656" xmlns="http://www.w3.org/2000/svg" xmlns:xlink="http://www.w3.org/1999/xlink" xml:space="preserve" overflow="hidden"><defs><clipPath id="clip0"><rect x="4787" y="80" width="3241" height="656"/></clipPath><clipPath id="clip1"><rect x="4875" y="130" width="3053" height="411"/></clipPath></defs><g clip-path="url(#clip0)" transform="translate(-4787 -80)"><rect x="4787" y="80.0001" width="3241" height="656" fill="#FFFFFF"/><g clip-path="url(#clip1)"><path d="M4875.5 130.5 4875.5 538.5 5446.68 538.5 5446.68 130.5 5505.68 130.5 5505.68 538.5 5524.68 538.5 5524.68 130.5 5583.68 130.5 5583.68 538.5 5603.68 538.5 5603.68 130.5 5662.69 130.5 5662.69 538.5 5682.69 538.5 5682.69 130.5 5701.69 130.5 5701.69 538.5 5760.69 538.5 5760.69 130.5 5780.69 130.5 5780.69 538.5 5839.69 538.5 5839.69 130.5 5859.69 130.5 5859.69 538.5 5918.69 538.5 5918.69 130.5 5977.7 130.5 5977.7 538.5 5997.7 538.5 5997.7 130.5 6016.7 130.5 6016.7 538.5 6075.7 538.5 6075.7 130.5 6095.7 130.5 6095.7 538.5 6154.7 538.5 6154.7 130.5 6213.7 130.5 6213.7 538.5 6233.71 538.5 6233.71 130.5 6252.71 130.5 6252.71 538.5 6311.71 538.5 6311.71 130.5 6370.71 130.5 6370.71 538.5 6390.71 538.5 6390.71 130.5 6410.71 130.5 6410.71 538.5 6469.71 538.5 6469.71 130.5 6528.71 130.5 6528.71 538.5 6547.71 538.5 6547.71 130.5 6567.72 130.5 6567.72 538.5 6626.72 538.5 6626.72 130.5 6646.72 130.5 6646.72 538.5 6705.72 538.5 6705.72 130.5 6724.72 130.5 6724.72 538.5 6783.72 538.5 6783.72 130.5 6803.72 130.5 6803.72 538.5 6862.73 538.5 6862.73 130.5 6882.73 130.5 6882.73 538.5 6941.73 538.5 6941.73 130.5 6960.73 130.5 6960.73 538.5 7019.73 538.5 7019.73 130.5 7039.73 130.5 7039.73 538.5 7098.73 538.5 7098.73 130.5 7118.73 130.5 7118.73 538.5 7177.74 538.5 7177.74 130.5 7196.74 130.5 7196.74 538.5 7255.74 538.5 7255.74 130.5 7314.74 130.5 7314.74 538.5 7334.74 538.5 7334.74 130.5 7354.74 130.5 7354.74 538.5 7924.76 538.5 7924.76 130.5 7983.76 130.5 7983.76 538.5 8003.76 538.5 8003.76 130.5 8062.76 130.5 8062.76 538.5 8082.77 538.5 8082.77 130.5 8141.77 130.5 8141.77 538.5 8160.77 538.5 8160.77 130.5 8180.77 130.5 8180.77 538.5 8239.77 538.5 8239.77 130.5 8259.77 130.5 8259.77 538.5 8318.77 538.5 8318.77 130.5 8337.77 130.5 8337.77 538.5 8396.78 538.5 8396.78 130.5 8455.78 130.5 8455.78 538.5 8475.78 538.5 8475.78 130.5 8495.78 130.5 8495.78 538.5 8554.78 538.5 8554.78 130.5 8573.78 130.5 8573.78 538.5 8632.78 538.5 8632.78 130.5 8691.79 130.5 8691.79 538.5 8711.79 538.5 8711.79 130.5 8731.79 130.5 8731.79 538.5 8790.79 538.5 8790.79 130.5 8849.79 130.5 8849.79 538.5 8868.79 538.5 8868.79 130.5 8888.79 130.5 8888.79 538.5 8947.79 538.5 8947.79 130.5 9006.8 130.5 9006.8 538.5 9026.8 538.5 9026.8 130.5 9045.8 130.5 9045.8 538.5 9104.8 538.5 9104.8 130.5 9124.8 130.5 9124.8 538.5 9183.8 538.5 9183.8 130.5 9203.8 130.5 9203.8 538.5 9262.8 538.5 9262.8 130.5 9281.8 130.5 9281.8 538.5 9340.81 538.5 9340.81 130.5 9360.81 130.5 9360.81 538.5 9419.81 538.5 9419.81 130.5 9439.81 130.5 9439.81 538.5 9498.81 538.5 9498.81 130.5 9517.81 130.5 9517.81 538.5 9576.81 538.5 9576.81 130.5 9596.81 130.5 9596.81 538.5 9655.82 538.5 9655.82 130.5 9675.82 130.5 9675.82 538.5 9734.82 538.5 9734.82 130.5 9793.82 130.5 9793.82 538.5 9813.82 538.5 9813.82 130.5 9832.82 130.5 9832.82 538.5 10403.8 538.5 10403.8 130.5 10462.8 130.5 10462.8 538.5 10481.8 538.5 10481.8 130.5 10540.8 130.5 10540.8 538.5 10560.8 538.5 10560.8 130.5 10619.8 130.5 10619.8 538.5 10639.8 538.5 10639.8 130.5 10658.8 130.5 10658.8 538.5 10717.9 538.5 10717.9 130.5 10737.9 130.5 10737.9 538.5 10796.9 538.5 10796.9 130.5 10816.9 130.5 10816.9 538.5 10875.9 538.5 10875.9 130.5 10934.9 130.5 10934.9 538.5 10953.9 538.5 10953.9 130.5 10973.9 130.5 10973.9 538.5 11032.9 538.5 11032.9 130.5 11052.9 130.5 11052.9 538.5 11111.9 538.5 11111.9 130.5 11170.9 130.5 11170.9 538.5 11189.9 538.5 11189.9 130.5 11209.9 130.5 11209.9 538.5 11268.9 538.5 11268.9 130.5 11327.9 130.5 11327.9 538.5 11347.9 538.5 11347.9 130.5 11366.9 130.5 11366.9 538.5 11425.9 538.5 11425.9 130.5 11485.9 130.5 11485.9 538.5 11504.9 538.5 11504.9 130.5 11524.9 130.5 11524.9 538.5 11583.9 538.5 11583.9 130.5 11603.9 130.5 11603.9 538.5 11662.9 538.5 11662.9 130.5 11681.9 130.5 11681.9 538.5 11740.9 538.5 11740.9 130.5 11760.9 130.5 11760.9 538.5 11819.9 538.5 11819.9 130.5 11839.9 130.5 11839.9 538.5 11898.9 538.5 11898.9 130.5 11917.9 130.5 11917.9 538.5 11976.9 538.5 11976.9 130.5 11996.9 130.5 11996.9 538.5 12055.9 538.5 12055.9 130.5 12075.9 130.5 12075.9 538.5 12134.9 538.5 12134.9 130.5 12153.9 130.5 12153.9 538.5 12212.9 538.5 12212.9 130.5 12271.9 130.5 12271.9 538.5 12291.9 538.5 12291.9 130.5 12311.9 130.5 12311.9 538.5 12881.9 538.5 12881.9 130.5 12940.9 130.5 12940.9 538.5 12960.9 538.5 12960.9 130.5 13019.9 130.5 13019.9 538.5 13038.9 538.5 13038.9 130.5 13097.9 130.5 13097.9 538.5 13117.9 538.5 13117.9 130.5 13137.9 130.5 13137.9 538.5 13196.9 538.5 13196.9 130.5 13215.9 130.5 13215.9 538.5 13274.9 538.5 13274.9 130.5 13294.9 130.5 13294.9 538.5 13353.9 538.5 13353.9 130.5 13412.9 130.5 13412.9 538.5 13432.9 538.5 13432.9 130.5 13452.9 130.5 13452.9 538.5 13511.9 538.5 13511.9 130.5 13530.9 130.5 13530.9 538.5 13589.9 538.5 13589.9 130.5 13648.9 130.5 13648.9 538.5 13668.9 538.5 13668.9 130.5 13688.9 130.5 13688.9 538.5 13748 538.5 13748 130.5 13807 130.5 13807 538.5 13826 538.5 13826 130.5 13846 130.5 13846 538.5 13905 538.5 13905 130.5 13964 130.5 13964 538.5 13984 538.5 13984 130.5 14003 130.5 14003 538.5 14062 538.5 14062 130.5 14082 130.5 14082 538.5 14141 538.5 14141 130.5 14161 130.5 14161 538.5 14220 538.5 14220 130.5 14239 130.5 14239 538.5 14298 538.5 14298 130.5 14318 130.5 14318 538.5 14377 538.5 14377 130.5 14397 130.5 14397 538.5 14456 538.5 14456 130.5 14475 130.5 14475 538.5 14534 538.5 14534 130.5 14554 130.5 14554 538.5 14613 538.5 14613 130.5 14633 130.5 14633 538.5 14692 538.5 14692 130.5 14751 130.5 14751 538.5 14770 538.5 14770 130.5 14790 130.5 14790 538.5 15361 538.5 15361 130.5 15420 130.5 15420 538.5 15439 538.5 15439 130.5 15498 130.5 15498 538.5 15518 538.5 15518 130.5 15577 130.5 15577 538.5 15597 538.5 15597 130.5 15616 130.5 15616 538.5 15675 538.5 15675 130.5 15695 130.5 15695 538.5 15754 538.5 15754 130.5 15774 130.5 15774 538.5 15833 538.5 15833 130.5 15892 130.5 15892 538.5 15911 538.5 15911 130.5 15931 130.5 15931 538.5 15990 538.5 15990 130.5 16010 130.5 16010 538.5 16069 538.5 16069 130.5 16128 130.5 16128 538.5 16147 538.5 16147 130.5 16167 130.5 16167 538.5 16226 538.5 16226 130.5 16285 130.5 16285 538.5 16305 538.5 16305 130.5 16324 130.5 16324 538.5 16383 538.5 16383 130.5 16442 130.5 16442 538.5 16462 538.5 16462 130.5 16482 130.5 16482 538.5 16541 538.5 16541 130.5 16560 130.5 16560 538.5 16619 538.5 16619 130.5 16639 130.5 16639 538.5 16698 538.5 16698 130.5 16718 130.5 16718 538.5 16777.1 538.5 16777.1 130.5 16796.1 130.5 16796.1 538.5 16855.1 538.5 16855.1 130.5 16875.1 130.5 16875.1 538.5 16934.1 538.5 16934.1 130.5 16954.1 130.5 16954.1 538.5 17013.1 538.5 17013.1 130.5 17033.1 130.5 17033.1 538.5 17092.1 538.5 17092.1 130.5 17111.1 130.5 17111.1 538.5 17170.1 538.5 17170.1 130.5 17229.1 130.5 17229.1 538.5 17249.1 538.5 17249.1 130.5 17269.1 130.5 17269.1 538.5 17839.1 538.5 17839.1 130.5 17898.1 130.5 17898.1 538.5 17918.1 538.5 17918.1 130.5 17977.1 130.5 17977.1 538.5 17996.1 538.5 17996.1 130.5 18055.1 130.5 18055.1 538.5 18075.1 538.5 18075.1 130.5 18095.1 130.5 18095.1 538.5 18154.1 538.5 18154.1 130.5 18173.1 130.5 18173.1 538.5 18232.1 538.5 18232.1 130.5 18252.1 130.5 18252.1 538.5 18311.1 538.5 18311.1 130.5 18370.1 130.5 18370.1 538.5 18390.1 538.5 18390.1 130.5 18409.1 130.5 18409.1 538.5 18468.1 538.5 18468.1 130.5 18488.1 130.5 18488.1 538.5 18547.1 538.5 18547.1 130.5 18606.1 130.5 18606.1 538.5 18626.1 538.5 18626.1 130.5 18645.1 130.5 18645.1 538.5 18704.1 538.5 18704.1 130.5 18763.1 130.5 18763.1 538.5 18783.1 538.5 18783.1 130.5 18803.1 130.5 18803.1 538.5 18862.1 538.5 18862.1 130.5 18921.1 130.5 18921.1 538.5 18941.1 538.5 18941.1 130.5 18960.1 130.5 18960.1 538.5 19019.1 538.5 19019.1 130.5 19039.1 130.5 19039.1 538.5 19098.1 538.5 19098.1 130.5 19118.1 130.5 19118.1 538.5 19177.1 538.5 19177.1 130.5 19196.1 130.5 19196.1 538.5 19255.1 538.5 19255.1 130.5 19275.1 130.5 19275.1 538.5 19334.1 538.5 19334.1 130.5 19354.1 130.5 19354.1 538.5 19413.1 538.5 19413.1 130.5 19432.1 130.5 19432.1 538.5 19491.1 538.5 19491.1 130.5 19511.1 130.5 19511.1 538.5 19570.1 538.5 19570.1 130.5 19590.1 130.5 19590.1 538.5 19649.1 538.5 19649.1 130.5 19708.1 130.5 19708.1 538.5 19727.1 538.5 19727.1 130.5 19747.1 130.5 19747.1 538.5 20317.2 538.5 20317.2 130.5 20376.2 130.5 20376.2 538.5 20396.2 538.5 20396.2 130.5 20455.2 130.5 20455.2 538.5 20475.2 538.5 20475.2 130.5 20534.2 130.5 20534.2 538.5 20553.2 538.5 20553.2 130.5 20573.2 130.5 20573.2 538.5 20632.2 538.5 20632.2 130.5 20652.2 130.5 20652.2 538.5 20711.2 538.5 20711.2 130.5 20731.2 130.5 20731.2 538.5 20790.2 538.5 20790.2 130.5 20849.2 130.5 20849.2 538.5 20868.2 538.5 20868.2 130.5 20888.2 130.5 20888.2 538.5 20947.2 538.5 20947.2 130.5 20967.2 130.5 20967.2 538.5 21026.2 538.5 21026.2 130.5 21085.2 130.5 21085.2 538.5 21104.2 538.5 21104.2 130.5 21124.2 130.5 21124.2 538.5 21183.2 538.5 21183.2 130.5 21242.2 130.5 21242.2 538.5 21262.2 538.5 21262.2 130.5 21281.2 130.5 21281.2 538.5 21340.2 538.5 21340.2 130.5 21399.2 130.5 21399.2 538.5 21419.2 538.5 21419.2 130.5 21439.2 130.5 21439.2 538.5 21498.2 538.5 21498.2 130.5 21517.2 130.5 21517.2 538.5 21576.2 538.5 21576.2 130.5 21596.2 130.5 21596.2 538.5 21655.2 538.5 21655.2 130.5 21675.2 130.5 21675.2 538.5 21734.2 538.5 21734.2 130.5 21753.2 130.5 21753.2 538.5 21812.2 538.5 21812.2 130.5 21832.2 130.5 21832.2 538.5 21891.2 538.5 21891.2 130.5 21911.2 130.5 21911.2 538.5 21970.2 538.5 21970.2 130.5 21989.2 130.5 21989.2 538.5 22048.2 538.5 22048.2 130.5 22068.2 130.5 22068.2 538.5 22127.2 538.5 22127.2 130.5 22186.2 130.5 22186.2 538.5 22206.2 538.5 22206.2 130.5 22225.2 130.5 22225.2 538.5 22796.2 538.5 22796.2 130.5 22855.2 130.5 22855.2 538.5 22875.2 538.5 22875.2 130.5 22934.3 130.5 22934.3 538.5 22953.3 538.5 22953.3 130.5 23012.3 130.5 23012.3 538.5 23032.3 538.5 23032.3 130.5 23052.3 130.5 23052.3 538.5 23111.3 538.5 23111.3 130.5 23130.3 130.5 23130.3 538.5 23189.3 538.5 23189.3 130.5 23209.3 130.5 23209.3 538.5 23268.3 538.5 23268.3 130.5 23327.3 130.5 23327.3 538.5 23347.3 538.5 23347.3 130.5 23366.3 130.5 23366.3 538.5 23425.3 538.5 23425.3 130.5 23445.3 130.5 23445.3 538.5 23504.3 538.5 23504.3 130.5 23563.3 130.5 23563.3 538.5 23583.3 538.5 23583.3 130.5 23602.3 130.5 23602.3 538.5 23661.3 538.5 23661.3 130.5 23720.3 130.5 23720.3 538.5 23740.3 538.5 23740.3 130.5 23760.3 130.5 23760.3 538.5 23819.3 538.5 23819.3 130.5 23878.3 130.5 23878.3 538.5 23897.3 538.5 23897.3 130.5 23917.3 130.5 23917.3 538.5 23976.3 538.5 23976.3 130.5 23996.3 130.5 23996.3 538.5 24055.3 538.5 24055.3 130.5 24074.3 130.5 24074.3 538.5 24133.3 538.5 24133.3 130.5 24153.3 130.5 24153.3 538.5 24212.3 538.5 24212.3 130.5 24232.3 130.5 24232.3 538.5 24291.3 538.5 24291.3 130.5 24310.3 130.5 24310.3 538.5 24369.3 538.5 24369.3 130.5 24389.3 130.5 24389.3 538.5 24448.3 538.5 24448.3 130.5 24468.3 130.5 24468.3 538.5 24527.3 538.5 24527.3 130.5 24547.3 130.5 24547.3 538.5 24606.3 538.5 24606.3 130.5 24665.3 130.5 24665.3 538.5 24684.3 538.5 24684.3 130.5 24704.3 130.5 24704.3 538.5 25274.3 538.5 25274.3 130.5 25333.3 130.5 25333.3 538.5 25353.3 538.5 25353.3 130.5 25412.3 130.5 25412.3 538.5 25432.3 538.5 25432.3 130.5 25491.3 130.5 25491.3 538.5 25510.3 538.5 25510.3 130.5 25530.3 130.5 25530.3 538.5 25589.3 538.5 25589.3 130.5 25609.3 130.5 25609.3 538.5 25668.3 538.5 25668.3 130.5 25687.3 130.5 25687.3 538.5 25746.3 538.5 25746.3 130.5 25805.3 130.5 25805.3 538.5 25825.3 538.5 25825.3 130.5 25845.3 130.5 25845.3 538.5 25904.3 538.5 25904.3 130.5 25923.3 130.5 25923.3 538.5 25982.4 538.5 25982.4 130.5 26041.4 130.5 26041.4 538.5 26061.4 538.5 26061.4 130.5 26081.4 130.5 26081.4 538.5 26140.4 538.5 26140.4 130.5 26199.4 130.5 26199.4 538.5 26218.4 538.5 26218.4 130.5 26238.4 130.5 26238.4 538.5 26297.4 538.5 26297.4 130.5 26356.4 130.5 26356.4 538.5 26376.4 538.5 26376.4 130.5 26396.4 130.5 26396.4 538.5 26455.4 538.5 26455.4 130.5 26474.4 130.5 26474.4 538.5 26533.4 538.5 26533.4 130.5 26553.4 130.5 26553.4 538.5 26612.4 538.5 26612.4 130.5 26632.4 130.5 26632.4 538.5 26691.4 538.5 26691.4 130.5 26710.4 130.5 26710.4 538.5 26769.4 538.5 26769.4 130.5 26789.4 130.5 26789.4 538.5 26848.4 538.5 26848.4 130.5 26868.4 130.5 26868.4 538.5 26927.4 538.5 26927.4 130.5 26946.4 130.5 26946.4 538.5 27005.4 538.5 27005.4 130.5 27025.4 130.5 27025.4 538.5 27084.4 538.5 27084.4 130.5 27143.4 130.5 27143.4 538.5 27163.4 538.5 27163.4 130.5 27182.4 130.5 27182.4 538.5 27753.4 538.5 27753.4 130.5 27812.4 130.5 27812.4 538.5 27831.4 538.5 27831.4 130.5 27890.4 130.5 27890.4 538.5 27910.4 538.5 27910.4 130.5 27969.4 130.5 27969.4 538.5 27989.4 538.5 27989.4 130.5 28008.4 130.5 28008.4 538.5 28067.4 538.5 28067.4 130.5 28087.4 130.5 28087.4 538.5 28146.4 538.5 28146.4 130.5 28166.4 130.5 28166.4 538.5 28225.4 538.5 28225.4 130.5 28284.4 130.5 28284.4 538.5 28304.4 538.5 28304.4 130.5 28323.4 130.5 28323.4 538.5 28382.4 538.5 28382.4 130.5 28402.4 130.5 28402.4 538.5 28461.5 538.5" stroke="#156082" stroke-width="3.4375" stroke-linecap="round" stroke-linejoin="round" stroke-miterlimit="10" fill="none"/></g><g><path d="M4875.5 232.5 4875.5 436.5 4895.66 436.5 4895.66 232.5 4915.66 232.5 4915.66 436.5 4934.66 436.5 4934.66 232.5 4954.66 232.5 4954.66 436.5 4974.66 436.5 4974.66 232.5 4993.66 232.5 4993.66 436.5 5013.66 436.5 5013.66 232.5 5033.67 232.5 5033.67 436.5 5052.67 436.5 5052.67 232.5 5072.67 232.5 5072.67 436.5 5092.67 436.5 5092.67 232.5 5111.67 232.5 5111.67 436.5 5131.67 436.5 5131.67 232.5 5151.67 232.5 5151.67 436.5 5170.67 436.5 5170.67 232.5 5190.67 232.5 5190.67 436.5 5210.67 436.5 5210.67 232.5 5229.67 232.5 5229.67 436.5 5249.67 436.5 5249.67 232.5 5269.67 232.5 5269.67 436.5 5288.67 436.5 5288.67 232.5 5308.67 232.5 5308.67 436.5 5328.68 436.5 5328.68 232.5 5347.68 232.5 5347.68 436.5 5367.68 436.5 5367.68 232.5 5387.68 232.5 5387.68 436.5 5406.68 436.5 5406.68 232.5 5426.68 232.5 5426.68 436.5 5446.68 436.5 5446.68 232.5 5465.68 232.5 5465.68 436.5 5485.68 436.5 5485.68 232.5 5505.68 232.5 5505.68 436.5 5524.68 436.5 5524.68 232.5 5544.68 232.5 5544.68 436.5 5564.68 436.5 5564.68 232.5 5583.68 232.5 5583.68 436.5 5603.68 436.5 5603.68 232.5 5623.68 232.5 5623.68 436.5 5642.69 436.5 5642.69 232.5 5662.69 232.5 5662.69 436.5 5682.69 436.5 5682.69 232.5 5701.69 232.5 5701.69 436.5 5721.69 436.5 5721.69 232.5 5741.69 232.5 5741.69 436.5 5760.69 436.5 5760.69 232.5 5780.69 232.5 5780.69 436.5 5800.69 436.5 5800.69 232.5 5819.69 232.5 5819.69 436.5 5839.69 436.5 5839.69 232.5 5859.69 232.5 5859.69 436.5 5878.69 436.5 5878.69 232.5 5898.69 232.5 5898.69 436.5 5918.69 436.5 5918.69 232.5 5938.7 232.5 5938.7 436.5 5957.7 436.5 5957.7 232.5 5977.7 232.5 5977.7 436.5 5997.7 436.5 5997.7 232.5 6016.7 232.5 6016.7 436.5 6036.7 436.5 6036.7 232.5 6056.7 232.5 6056.7 436.5 6075.7 436.5 6075.7 232.5 6095.7 232.5 6095.7 436.5 6115.7 436.5 6115.7 232.5 6134.7 232.5 6134.7 436.5 6154.7 436.5 6154.7 232.5 6174.7 232.5 6174.7 436.5 6193.7 436.5 6193.7 232.5 6213.7 232.5 6213.7 436.5 6233.71 436.5 6233.71 232.5 6252.71 232.5 6252.71 436.5 6272.71 436.5 6272.71 232.5 6292.71 232.5 6292.71 436.5 6311.71 436.5 6311.71 232.5 6331.71 232.5 6331.71 436.5 6351.71 436.5 6351.71 232.5 6370.71 232.5 6370.71 436.5 6390.71 436.5 6390.71 232.5 6410.71 232.5 6410.71 436.5 6429.71 436.5 6429.71 232.5 6449.71 232.5 6449.71 436.5 6469.71 436.5 6469.71 232.5 6488.71 232.5 6488.71 436.5 6508.71 436.5 6508.71 232.5 6528.71 232.5 6528.71 436.5 6547.71 436.5 6547.71 232.5 6567.72 232.5 6567.72 436.5 6587.72 436.5 6587.72 232.5 6606.72 232.5 6606.72 436.5 6626.72 436.5 6626.72 232.5 6646.72 232.5 6646.72 436.5 6665.72 436.5 6665.72 232.5 6685.72 232.5 6685.72 436.5 6705.72 436.5 6705.72 232.5 6724.72 232.5 6724.72 436.5 6744.72 436.5 6744.72 232.5 6764.72 232.5 6764.72 436.5 6783.72 436.5 6783.72 232.5 6803.72 232.5 6803.72 436.5 6823.72 436.5 6823.72 232.5 6842.72 232.5 6842.72 436.5 6862.73 436.5 6862.73 232.5 6882.73 232.5 6882.73 436.5 6901.73 436.5 6901.73 232.5 6921.73 232.5 6921.73 436.5 6941.73 436.5 6941.73 232.5 6960.73 232.5 6960.73 436.5 6980.73 436.5 6980.73 232.5 7000.73 232.5 7000.73 436.5 7019.73 436.5 7019.73 232.5 7039.73 232.5 7039.73 436.5 7059.73 436.5 7059.73 232.5 7078.73 232.5 7078.73 436.5 7098.73 436.5 7098.73 232.5 7118.73 232.5 7118.73 436.5 7137.73 436.5 7137.73 232.5 7157.74 232.5 7157.74 436.5 7177.74 436.5 7177.74 232.5 7196.74 232.5 7196.74 436.5 7216.74 436.5 7216.74 232.5 7236.74 232.5 7236.74 436.5 7255.74 436.5 7255.74 232.5 7275.74 232.5 7275.74 436.5 7295.74 436.5 7295.74 232.5 7314.74 232.5 7314.74 436.5 7334.74 436.5 7334.74 232.5 7354.74 232.5 7354.74 436.5 7373.74 436.5 7373.74 232.5 7393.74 232.5 7393.74 436.5 7413.74 436.5 7413.74 232.5 7432.74 232.5 7432.74 436.5 7452.75 436.5 7452.75 232.5 7472.75 232.5 7472.75 436.5 7491.75 436.5 7491.75 232.5 7511.75 232.5 7511.75 436.5 7531.75 436.5 7531.75 232.5 7550.75 232.5 7550.75 436.5 7570.75 436.5 7570.75 232.5 7590.75 232.5 7590.75 436.5 7609.75 436.5 7609.75 232.5 7629.75 232.5 7629.75 436.5 7649.75 436.5 7649.75 232.5 7668.75 232.5 7668.75 436.5 7688.75 436.5 7688.75 232.5 7708.75 232.5 7708.75 436.5 7727.75 436.5 7727.75 232.5 7747.75 232.5 7747.75 436.5 7767.75 436.5 7767.75 232.5 7787.76 232.5 7787.76 436.5 7806.76 436.5 7806.76 232.5 7826.76 232.5 7826.76 436.5 7846.76 436.5 7846.76 232.5 7865.76 232.5 7865.76 436.5 7885.76 436.5 7885.76 232.5 7905.76 232.5 7905.76 436.5 7924.5 436.5 7924.5 232.5" stroke="#E97132" stroke-width="3.4375" stroke-linecap="round" stroke-linejoin="round" stroke-miterlimit="10" stroke-dasharray="24.0625 13.75" fill="none"/></g><g><text fill="#0E2841" font-family="Aptos Narrow,Aptos Narrow_MSFontService,sans-serif" font-weight="400" font-stretch="semi-condensed" font-size="41" transform="matrix(1 0 0 1 4816.99 550)">0</text></g><g><text fill="#0E2841" font-family="Aptos Narrow,Aptos Narrow_MSFontService,sans-serif" font-weight="400" font-stretch="semi-condensed" font-size="41" transform="matrix(1 0 0 1 4816.99 142)">1</text></g><g><text fill="#0E2841" font-family="Aptos Narrow,Aptos Narrow_MSFontService,sans-serif" font-weight="400" font-stretch="semi-condensed" font-size="41" transform="matrix(1 0 0 1 4865.52 603)">0</text></g><g><text fill="#0E2841" font-family="Aptos Narrow,Aptos Narrow_MSFontService,sans-serif" font-weight="400" font-stretch="semi-condensed" font-size="41" transform="matrix(1 0 0 1 5295.83 603)">10000</text></g><g><text fill="#0E2841" font-family="Aptos Narrow,Aptos Narrow_MSFontService,sans-serif" font-weight="400" font-stretch="semi-condensed" font-size="41" transform="matrix(1 0 0 1 5767.93 603)">20000</text></g><g><text fill="#0E2841" font-family="Aptos Narrow,Aptos Narrow_MSFontService,sans-serif" font-weight="400" font-stretch="semi-condensed" font-size="41" transform="matrix(1 0 0 1 6240.03 603)">30000</text></g><g><text fill="#0E2841" font-family="Aptos Narrow,Aptos Narrow_MSFontService,sans-serif" font-weight="400" font-stretch="semi-condensed" font-size="41" transform="matrix(1 0 0 1 6712.13 603)">40000</text></g><g><text fill="#0E2841" font-family="Aptos Narrow,Aptos Narrow_MSFontService,sans-serif" font-weight="400" font-stretch="semi-condensed" font-size="41" transform="matrix(1 0 0 1 7184.23 603)">50000</text></g><g><text fill="#0E2841" font-family="Aptos Narrow,Aptos Narrow_MSFontService,sans-serif" font-weight="400" font-stretch="semi-condensed" font-size="41" transform="matrix(1 0 0 1 7656.33 603)">60000</text></g><g><text fill="#0E2841" font-family="Aptos Narrow,Aptos Narrow_MSFontService,sans-serif" font-weight="700" font-stretch="semi-condensed" font-size="41" transform="matrix(1 0 0 1 6322.19 667)">Time (</text></g><g><text fill="#0E2841" font-family="Aptos Narrow,Aptos Narrow_MSFontService,sans-serif" font-weight="700" font-stretch="semi-condensed" font-size="41" transform="matrix(1 0 0 1 6425.33 667)">μ</text></g><g><text fill="#0E2841" font-family="Aptos Narrow,Aptos Narrow_MSFontService,sans-serif" font-weight="700" font-stretch="semi-condensed" font-size="41" transform="matrix(1 0 0 1 6447.13 667)">s) </text></g></g></svg>