<svg width="3045" height="1011" xmlns="http://www.w3.org/2000/svg" xmlns:xlink="http://www.w3.org/1999/xlink" xml:space="preserve" overflow="hidden"><defs><clipPath id="clip0"><rect x="2115" y="1230" width="3045" height="1011"/></clipPath></defs><g clip-path="url(#clip0)" transform="translate(-2115 -1230)"><rect x="2115" y="1230" width="3044" height="1010" fill="#FFFFFF"/><g><path d="M0 0 0.000360892 762" stroke="#71AAE0" stroke-width="4.58333" stroke-linejoin="round" stroke-miterlimit="10" fill="none" fill-rule="evenodd" transform="matrix(1 0 0 -1 2295.5 2042.5)"/></g><g><path d="M2295.5 2042.5 5056.5 2042.5" stroke="#CADFF4" stroke-width="3.4375" stroke-linejoin="round" stroke-miterlimit="10" fill="none" fill-rule="evenodd"/></g><g><path d="M2295.5 1852.5 2295.5 1661.5 2313.58 1661.5 2313.58 1852.5 2331.58 1852.5 2331.58 1661.5 2349.58 1661.5 2349.58 1852.5 2366.58 1852.5 2366.58 1661.5 2384.58 1661.5 2384.58 1852.5 2402.58 1852.5 2402.58 1661.5 2420.58 1661.5 2420.58 1852.5 2437.58 1852.5 2437.58 1661.5 2455.58 1661.5 2455.58 1852.5 2473.58 1852.5 2473.58 1661.5 2491.58 1661.5 2491.58 1852.5 2509.58 1852.5 2509.58 1661.5 2526.58 1661.5 2526.58 1852.5 2544.58 1852.5 2544.58 1661.5 2562.58 1661.5 2562.58 1852.5 2580.58 1852.5 2580.58 1661.5 2597.59 1661.5 2597.59 1852.5 2615.59 1852.5 2615.59 1661.5 2633.59 1661.5 2633.59 1852.5 2651.59 1852.5 2651.59 1661.5 2668.59 1661.5 2668.59 1852.5 2686.59 1852.5 2686.59 1661.5 2704.59 1661.5 2704.59 1852.5 2722.59 1852.5 2722.59 1661.5 2740.59 1661.5 2740.59 1852.5 2757.59 1852.5 2757.59 1661.5 2775.59 1661.5 2775.59 1852.5 2793.59 1852.5 2793.59 1661.5 2811.59 1661.5 2811.59 1852.5 2828.59 1852.5 2828.59 1661.5 2846.59 1661.5 2846.59 1852.5 2864.59 1852.5 2864.59 1661.5 2882.59 1661.5 2882.59 1852.5 2899.6 1852.5 2899.6 1661.5 2917.6 1661.5 2917.6 1852.5 2935.6 1852.5 2935.6 1661.5 2953.6 1661.5 2953.6 1852.5 2970.6 1852.5 2970.6 1661.5 2988.6 1661.5 2988.6 1852.5 3006.6 1852.5 3006.6 1661.5 3024.6 1661.5 3024.6 1852.5 3042.6 1852.5 3042.6 1661.5 3059.6 1661.5 3059.6 1852.5 3077.6 1852.5 3077.6 1661.5 3095.6 1661.5 3095.6 1852.5 3113.6 1852.5 3113.6 1661.5 3130.6 1661.5 3130.6 1852.5 3148.6 1852.5 3148.6 1661.5 3166.6 1661.5 3166.6 1852.5 3184.6 1852.5 3184.6 1661.5 3201.61 1661.5 3201.61 1852.5 3219.61 1852.5 3219.61 1661.5 3237.61 1661.5 3237.61 1852.5 3255.61 1852.5 3255.61 1661.5 3273.61 1661.5 3273.61 1852.5 3290.61 1852.5 3290.61 1661.5 3308.61 1661.5 3308.61 1852.5 3326.61 1852.5 3326.61 1661.5 3344.61 1661.5 3344.61 1852.5 3361.61 1852.5 3361.61 1661.5 3379.61 1661.5 3379.61 1852.5 3397.61 1852.5 3397.61 1661.5 3415.61 1661.5 3415.61 1852.5 3432.61 1852.5 3432.61 1661.5 3450.61 1661.5 3450.61 1852.5 3468.61 1852.5 3468.61 1661.5 3486.61 1661.5 3486.61 1852.5 3504.62 1852.5 3504.62 1661.5 3521.62 1661.5 3521.62 1852.5 3539.62 1852.5 3539.62 1661.5 3557.62 1661.5 3557.62 1852.5 3575.62 1852.5 3575.62 1661.5 3592.62 1661.5 3592.62 1852.5 3610.62 1852.5 3610.62 1661.5 3628.62 1661.5 3628.62 1852.5 3646.62 1852.5 3646.62 1661.5 3663.62 1661.5 3663.62 1852.5 3681.62 1852.5 3681.62 1661.5 3699.62 1661.5 3699.62 1852.5 3717.62 1852.5 3717.62 1661.5 3735.62 1661.5 3735.62 1852.5 3752.62 1852.5 3752.62 1661.5 3770.62 1661.5 3770.62 1852.5 3788.62 1852.5 3788.62 1661.5 3806.62 1661.5 3806.62 1852.5 3823.63 1852.5 3823.63 1661.5 3841.63 1661.5 3841.63 1852.5 3859.63 1852.5 3859.63 1661.5 3877.63 1661.5 3877.63 1852.5 3894.63 1852.5 3894.63 1661.5 3912.63 1661.5 3912.63 1852.5 3930.63 1852.5 3930.63 1661.5 3948.63 1661.5 3948.63 1852.5 3966.63 1852.5 3966.63 1661.5 3983.63 1661.5 3983.63 1852.5 4001.63 1852.5 4001.63 1661.5 4019.63 1661.5 4019.63 1852.5 4037.63 1852.5 4037.63 1661.5 4054.63 1661.5 4054.63 1852.5 4072.63 1852.5 4072.63 1661.5 4090.63 1661.5 4090.63 1852.5 4108.63 1852.5 4108.63 1661.5 4125.64 1661.5 4125.64 1852.5 4143.64 1852.5 4143.64 1661.5 4161.64 1661.5 4161.64 1852.5 4179.64 1852.5 4179.64 1661.5 4197.64 1661.5 4197.64 1852.5 4214.64 1852.5 4214.64 1661.5 4232.64 1661.5 4232.64 1852.5 4250.64 1852.5 4250.64 1661.5 4268.64 1661.5 4268.64 1852.5 4285.64 1852.5 4285.64 1661.5 4303.64 1661.5 4303.64 1852.5 4321.64 1852.5 4321.64 1661.5 4339.64 1661.5 4339.64 1852.5 4356.64 1852.5 4356.64 1661.5 4374.64 1661.5 4374.64 1852.5 4392.64 1852.5 4392.64 1661.5 4410.64 1661.5 4410.64 1852.5 4428.65 1852.5 4428.65 1661.5 4445.65 1661.5 4445.65 1852.5 4463.65 1852.5 4463.65 1661.5 4481.65 1661.5 4481.65 1852.5 4499.65 1852.5 4499.65 1661.5 4516.65 1661.5 4516.65 1852.5 4534.65 1852.5 4534.65 1661.5 4552.65 1661.5 4552.65 1852.5 4570.65 1852.5 4570.65 1661.5 4587.65 1661.5 4587.65 1852.5 4605.65 1852.5 4605.65 1661.5 4623.65 1661.5 4623.65 1852.5 4641.65 1852.5 4641.65 1661.5 4659.65 1661.5 4659.65 1852.5 4676.65 1852.5 4676.65 1661.5 4694.65 1661.5 4694.65 1852.5 4712.65 1852.5 4712.65 1661.5 4730.66 1661.5 4730.66 1852.5 4747.66 1852.5 4747.66 1661.5 4765.66 1661.5 4765.66 1852.5 4783.66 1852.5 4783.66 1661.5 4801.66 1661.5 4801.66 1852.5 4818.66 1852.5 4818.66 1661.5 4836.66 1661.5 4836.66 1852.5 4854.66 1852.5 4854.66 1661.5 4872.66 1661.5 4872.66 1852.5 4890.66 1852.5 4890.66 1661.5 4907.66 1661.5 4907.66 1852.5 4925.66 1852.5 4925.66 1661.5 4943.66 1661.5 4943.66 1852.5 4961.66 1852.5 4961.66 1661.5 4979.5 1661.5 4979.5 1852.5" stroke="#E97132" stroke-width="3.4375" stroke-linecap="round" stroke-linejoin="round" stroke-miterlimit="10" fill="none"/></g><g><path d="M2295.5 1280.5 2313.58 1280.5 2313.58 2042.5 2833.59 2042.5 2833.59 1280.5 2885.59 1280.5 2885.59 2042.5 2904.6 2042.5 2904.6 1280.5 2956.6 1280.5 2956.6 2042.5 2974.6 2042.5 2974.6 1280.5 3026.6 1280.5 3026.6 2042.5 3045.6 2042.5 3045.6 1280.5 3062.6 1280.5 3062.6 2042.5 3115.6 2042.5 3115.6 1280.5 3132.6 1280.5 3132.6 2042.5 3185.6 2042.5 3185.6 1280.5 3203.61 1280.5 3203.61 2042.5 3255.61 2042.5 3255.61 1280.5 3306.61 1280.5 3306.61 2042.5 3325.61 2042.5 3325.61 1280.5 3343.61 1280.5 3343.61 2042.5 3396.61 2042.5 3396.61 1280.5 3413.61 1280.5 3413.61 2042.5 3466.61 2042.5 3466.61 1280.5 3517.62 1280.5 3517.62 2042.5 3536.62 2042.5 3536.62 1280.5 3553.62 1280.5 3553.62 2042.5 3606.62 2042.5 3606.62 1280.5 3657.62 1280.5 3657.62 2042.5 3677.62 2042.5 3677.62 1280.5 3694.62 1280.5 3694.62 2042.5 3747.62 2042.5 3747.62 1280.5 3798.62 1280.5 3798.62 2042.5 3817.63 2042.5 3817.63 1280.5 3834.63 1280.5 3834.63 2042.5 3887.63 2042.5 3887.63 1280.5 3904.63 1280.5 3904.63 2042.5 3957.63 2042.5 3957.63 1280.5 3975.63 1280.5 3975.63 2042.5 4027.63 2042.5 4027.63 1280.5 4045.63 1280.5 4045.63 2042.5 4097.63 2042.5 4097.63 1280.5 4115.64 1280.5 4115.64 2042.5 4167.64 2042.5 4167.64 1280.5 4185.64 1280.5 4185.64 2042.5 4237.64 2042.5 4237.64 1280.5 4255.64 1280.5 4255.64 2042.5 4307.64 2042.5 4307.64 1280.5 4325.64 1280.5 4325.64 2042.5 4377.64 2042.5 4377.64 1280.5 4395.64 1280.5 4395.64 2042.5 4447.65 2042.5 4447.65 1280.5 4498.65 1280.5 4498.65 2042.5 4518.65 2042.5 4518.65 1280.5 4535.65 1280.5 4535.65 2042.5 5056.5 2042.5" stroke="#156082" stroke-width="3.4375" stroke-linecap="round" stroke-linejoin="round" stroke-miterlimit="10" fill="none"/></g><g><text fill="#0E2841" font-family="Aptos Narrow,Aptos Narrow_MSFontService,sans-serif" font-weight="400" font-stretch="semi-condensed" font-size="41" transform="matrix(1 0 0 1 2236.87 2054)">0</text></g><g><text fill="#0E2841" font-family="Aptos Narrow,Aptos Narrow_MSFontService,sans-serif" font-weight="400" font-stretch="semi-condensed" font-size="41" transform="matrix(1 0 0 1 2236.87 1292)">1</text></g><g><text fill="#0E2841" font-family="Aptos Narrow,Aptos Narrow_MSFontService,sans-serif" font-weight="400" font-stretch="semi-condensed" font-size="41" transform="matrix(1 0 0 1 2285.4 2108)">0</text></g><g><text fill="#0E2841" font-family="Aptos Narrow,Aptos Narrow_MSFontService,sans-serif" font-weight="400" font-stretch="semi-condensed" font-size="41" transform="matrix(1 0 0 1 2669.09 2108)">10000</text></g><g><text fill="#0E2841" font-family="Aptos Narrow,Aptos Narrow_MSFontService,sans-serif" font-weight="400" font-stretch="semi-condensed" font-size="41" transform="matrix(1 0 0 1 3094.58 2108)">20000</text></g><g><text fill="#0E2841" font-family="Aptos Narrow,Aptos Narrow_MSFontService,sans-serif" font-weight="400" font-stretch="semi-condensed" font-size="41" transform="matrix(1 0 0 1 3520.07 2108)">30000</text></g><g><text fill="#0E2841" font-family="Aptos Narrow,Aptos Narrow_MSFontService,sans-serif" font-weight="400" font-stretch="semi-condensed" font-size="41" transform="matrix(1 0 0 1 3945.56 2108)">40000</text></g><g><text fill="#0E2841" font-family="Aptos Narrow,Aptos Narrow_MSFontService,sans-serif" font-weight="400" font-stretch="semi-condensed" font-size="41" transform="matrix(1 0 0 1 4371.05 2108)">50000</text></g><g><text fill="#0E2841" font-family="Aptos Narrow,Aptos Narrow_MSFontService,sans-serif" font-weight="400" font-stretch="semi-condensed" font-size="41" transform="matrix(1 0 0 1 4796.54 2108)">60000</text></g><g><text fill="#0E2841" font-family="Aptos Narrow,Aptos Narrow_MSFontService,sans-serif" font-weight="700" font-stretch="semi-condensed" font-size="41" transform="matrix(6.12323e-17 -1 1 6.12323e-17 2211.78 1714)">Signal</text></g><g><text fill="#0E2841" font-family="Aptos Narrow,Aptos Narrow_MSFontService,sans-serif" font-weight="700" font-stretch="semi-condensed" font-size="41" transform="matrix(1 0 0 1 3597.77 2172)">Time (</text></g><g><text fill="#0E2841" font-family="Aptos Narrow,Aptos Narrow_MSFontService,sans-serif" font-weight="700" font-stretch="semi-condensed" font-size="41" transform="matrix(1 0 0 1 3700.91 2172)">μ</text></g><g><text fill="#0E2841" font-family="Aptos Narrow,Aptos Narrow_MSFontService,sans-serif" font-weight="700" font-stretch="semi-condensed" font-size="41" transform="matrix(1 0 0 1 3722.71 2172)">s)</text></g><rect x="2115.5" y="1230.5" width="3044" height="1010" stroke="#898989" stroke-width="1.14583" stroke-linejoin="round" stroke-miterlimit="10" fill="none"/></g></svg>