<svg width="3244" height="659" xmlns="http://www.w3.org/2000/svg" xmlns:xlink="http://www.w3.org/1999/xlink" xml:space="preserve" overflow="hidden"><defs><clipPath id="clip0"><rect x="3648" y="79" width="3244" height="659"/></clipPath><clipPath id="clip1"><rect x="3738" y="130" width="3052" height="411"/></clipPath><clipPath id="clip2"><rect x="3738" y="130" width="3052" height="411"/></clipPath></defs><g clip-path="url(#clip0)" transform="translate(-3648 -79)"><rect x="3649" y="80.0001" width="3241" height="656" fill="#FFFFFF"/><g><path d="M3738.5 538.5 6786.5 538.5M3738.5 130.5 6786.5 130.5" stroke="#CADFF4" stroke-width="3.4375" stroke-linejoin="round" stroke-miterlimit="10" fill="none"/></g><g><path d="M0 0 0.000360892 408" stroke="#71AAE0" stroke-width="3.4375" stroke-linejoin="round" stroke-miterlimit="10" fill="none" fill-rule="evenodd" transform="matrix(1 0 0 -1 3738.5 538.5)"/></g><g><path d="M3738.5 538.5 6786.5 538.501" stroke="#71AAE0" stroke-width="3.4375" stroke-linejoin="round" stroke-miterlimit="10" fill="none" fill-rule="evenodd"/></g><g clip-path="url(#clip1)"><path d="M3738.5 232.5 3738.5 436.5 3757.62 436.5 3757.62 232.5 3777.62 232.5 3777.62 436.5 3797.62 436.5 3797.62 232.5 3816.63 232.5 3816.63 436.5 3836.63 436.5 3836.63 232.5 3856.63 232.5 3856.63 436.5 3876.63 436.5 3876.63 232.5 3896.63 232.5 3896.63 436.5 3915.63 436.5 3915.63 232.5 3935.63 232.5 3935.63 436.5 3955.63 436.5 3955.63 232.5 3975.63 232.5 3975.63 436.5 3994.63 436.5 3994.63 232.5 4014.63 232.5 4014.63 436.5 4034.63 436.5 4034.63 232.5 4054.63 232.5 4054.63 436.5 4073.63 436.5 4073.63 232.5 4093.63 232.5 4093.63 436.5 4113.64 436.5 4113.64 232.5 4133.64 232.5 4133.64 436.5 4153.64 436.5 4153.64 232.5 4172.64 232.5 4172.64 436.5 4192.64 436.5 4192.64 232.5 4212.64 232.5 4212.64 436.5 4232.64 436.5 4232.64 232.5 4251.64 232.5 4251.64 436.5 4271.64 436.5 4271.64 232.5 4291.64 232.5 4291.64 436.5 4311.64 436.5 4311.64 232.5 4331.64 232.5 4331.64 436.5 4350.64 436.5 4350.64 232.5 4370.64 232.5 4370.64 436.5 4390.64 436.5 4390.64 232.5 4410.65 232.5 4410.65 436.5 4429.65 436.5 4429.65 232.5 4449.65 232.5 4449.65 436.5 4469.65 436.5 4469.65 232.5 4489.65 232.5 4489.65 436.5 4508.65 436.5 4508.65 232.5 4528.65 232.5 4528.65 436.5 4548.65 436.5 4548.65 232.5 4568.65 232.5 4568.65 436.5 4588.65 436.5 4588.65 232.5 4607.65 232.5 4607.65 436.5 4627.65 436.5 4627.65 232.5 4647.65 232.5 4647.65 436.5 4667.65 436.5 4667.65 232.5 4686.65 232.5 4686.65 436.5 4706.65 436.5 4706.65 232.5 4726.66 232.5 4726.66 436.5 4746.66 436.5 4746.66 232.5 4765.66 232.5 4765.66 436.5 4785.66 436.5 4785.66 232.5 4805.66 232.5 4805.66 436.5 4825.66 436.5 4825.66 232.5 4845.66 232.5 4845.66 436.5 4864.66 436.5 4864.66 232.5 4884.66 232.5 4884.66 436.5 4904.66 436.5 4904.66 232.5 4924.66 232.5 4924.66 436.5 4943.66 436.5 4943.66 232.5 4963.66 232.5 4963.66 436.5 4983.66 436.5 4983.66 232.5 5003.66 232.5 5003.66 436.5 5022.67 436.5 5022.67 232.5 5042.67 232.5 5042.67 436.5 5062.67 436.5 5062.67 232.5 5082.67 232.5 5082.67 436.5 5102.67 436.5 5102.67 232.5 5121.67 232.5 5121.67 436.5 5141.67 436.5 5141.67 232.5 5161.67 232.5 5161.67 436.5 5181.67 436.5 5181.67 232.5 5200.67 232.5 5200.67 436.5 5220.67 436.5 5220.67 232.5 5240.67 232.5 5240.67 436.5 5260.67 436.5 5260.67 232.5 5279.67 232.5 5279.67 436.5 5299.67 436.5 5299.67 232.5 5319.67 232.5 5319.67 436.5 5339.68 436.5 5339.68 232.5 5359.68 232.5 5359.68 436.5 5378.68 436.5 5378.68 232.5 5398.68 232.5 5398.68 436.5 5418.68 436.5 5418.68 232.5 5438.68 232.5 5438.68 436.5 5457.68 436.5 5457.68 232.5 5477.68 232.5 5477.68 436.5 5497.68 436.5 5497.68 232.5 5517.68 232.5 5517.68 436.5 5536.68 436.5 5536.68 232.5 5556.68 232.5 5556.68 436.5 5576.68 436.5 5576.68 232.5 5596.68 232.5 5596.68 436.5 5616.68 436.5 5616.68 232.5 5635.69 232.5 5635.69 436.5 5655.69 436.5 5655.69 232.5 5675.69 232.5 5675.69 436.5 5695.69 436.5 5695.69 232.5 5714.69 232.5 5714.69 436.5 5734.69 436.5 5734.69 232.5 5754.69 232.5 5754.69 436.5 5774.69 436.5 5774.69 232.5 5794.69 232.5 5794.69 436.5 5813.69 436.5 5813.69 232.5 5833.69 232.5 5833.69 436.5 5853.69 436.5 5853.69 232.5 5873.69 232.5 5873.69 436.5 5892.69 436.5 5892.69 232.5 5912.69 232.5 5912.69 436.5 5932.69 436.5 5932.69 232.5 5952.7 232.5 5952.7 436.5 5971.7 436.5 5971.7 232.5 5991.7 232.5 5991.7 436.5 6011.7 436.5 6011.7 232.5 6031.7 232.5 6031.7 436.5 6051.7 436.5 6051.7 232.5 6070.7 232.5 6070.7 436.5 6090.7 436.5 6090.7 232.5 6110.7 232.5 6110.7 436.5 6130.7 436.5 6130.7 232.5 6149.7 232.5 6149.7 436.5 6169.7 436.5 6169.7 232.5 6189.7 232.5 6189.7 436.5 6209.7 436.5 6209.7 232.5 6228.7 232.5 6228.7 436.5 6248.71 436.5 6248.71 232.5 6268.71 232.5 6268.71 436.5 6288.71 436.5 6288.71 232.5 6308.71 232.5 6308.71 436.5 6327.71 436.5 6327.71 232.5 6347.71 232.5 6347.71 436.5 6367.71 436.5 6367.71 232.5 6387.71 232.5 6387.71 436.5 6406.71 436.5 6406.71 232.5 6426.71 232.5 6426.71 436.5 6446.71 436.5 6446.71 232.5 6466.71 232.5 6466.71 436.5 6485.71 436.5 6485.71 232.5 6505.71 232.5 6505.71 436.5 6525.71 436.5 6525.71 232.5 6545.71 232.5 6545.71 436.5 6565.72 436.5 6565.72 232.5 6584.72 232.5 6584.72 436.5 6604.72 436.5 6604.72 232.5 6624.72 232.5 6624.72 436.5 6644.72 436.5 6644.72 232.5 6663.72 232.5 6663.72 436.5 6683.72 436.5 6683.72 232.5 6703.72 232.5 6703.72 436.5 6723.72 436.5 6723.72 232.5 6742.72 232.5 6742.72 436.5 6762.72 436.5 6762.72 232.5 6782.72 232.5 6782.72 436.5 6802.5 436.5 6802.5 232.5" stroke="#E97132" stroke-width="3.4375" stroke-linecap="round" stroke-linejoin="round" stroke-miterlimit="10" fill="none"/></g><g clip-path="url(#clip2)"><path d="M3407.5 538.5 3407.5 130.5 3426.61 130.5 3426.61 538.5 3485.61 538.5 3485.61 130.5 3504.61 130.5 3504.61 538.5 3562.62 538.5 3562.62 130.5 3581.62 130.5 3581.62 538.5 3640.62 538.5 3640.62 130.5 3697.62 130.5 3697.62 538.5 3719.62 538.5 3719.62 130.5 3737.62 130.5 3737.62 538.5 4317.64 538.5 4317.64 130.5 4374.64 130.5 4374.64 538.5 4395.64 538.5 4395.64 130.5 4452.65 130.5 4452.65 538.5 4473.65 538.5 4473.65 130.5 4530.65 130.5 4530.65 538.5 4552.65 538.5 4552.65 130.5 4571.65 130.5 4571.65 538.5 4630.65 538.5 4630.65 130.5 4649.65 130.5 4649.65 538.5 4707.65 538.5 4707.65 130.5 4726.66 130.5 4726.66 538.5 4785.66 538.5 4785.66 130.5 4842.66 130.5 4842.66 538.5 4863.66 538.5 4863.66 130.5 4882.66 130.5 4882.66 538.5 4942.66 538.5 4942.66 130.5 4961.66 130.5 4961.66 538.5 5019.67 538.5 5019.67 130.5 5076.67 130.5 5076.67 538.5 5098.67 538.5 5098.67 130.5 5117.67 130.5 5117.67 538.5 5176.67 538.5 5176.67 130.5 5232.67 130.5 5232.67 538.5 5254.67 538.5 5254.67 130.5 5273.67 130.5 5273.67 538.5 5332.67 538.5 5332.67 130.5 5388.68 130.5 5388.68 538.5 5410.68 538.5 5410.68 130.5 5428.68 130.5 5428.68 538.5 5488.68 538.5 5488.68 130.5 5506.68 130.5 5506.68 538.5 5566.68 538.5 5566.68 130.5 5584.68 130.5 5584.68 538.5 5643.69 538.5 5643.69 130.5 5662.69 130.5 5662.69 538.5 5721.69 538.5 5721.69 130.5 5740.69 130.5 5740.69 538.5 5799.69 538.5 5799.69 130.5 5818.69 130.5 5818.69 538.5 5877.69 538.5 5877.69 130.5 5896.69 130.5 5896.69 538.5 5955.7 538.5 5955.7 130.5 5974.7 130.5 5974.7 538.5 6032.7 538.5 6032.7 130.5 6051.7 130.5 6051.7 538.5 6110.7 538.5 6110.7 130.5 6167.7 130.5 6167.7 538.5 6188.7 538.5 6188.7 130.5 6207.7 130.5 6207.7 538.5 6786.72 538.5 6786.72 130.5 6843.72 130.5 6843.72 538.5 6865.73 538.5 6865.73 130.5 6921.73 130.5 6921.73 538.5 6943.73 538.5 6943.73 130.5 7000.73 130.5 7000.73 538.5 7022.73 538.5 7022.73 130.5 7041.73 130.5 7041.73 538.5 7099.73 538.5 7099.73 130.5 7118.73 130.5 7118.73 538.5 7177.74 538.5 7177.74 130.5 7196.74 130.5 7196.74 538.5 7255.74 538.5 7255.74 130.5 7312.74 130.5 7312.74 538.5 7333.74 538.5 7333.74 130.5 7352.74 130.5 7352.74 538.5 7412.74 538.5 7412.74 130.5 7430.74 130.5 7430.74 538.5 7489.75 538.5 7489.75 130.5 7546.75 130.5 7546.75 538.5 7568.75 538.5 7568.75 130.5 7586.75 130.5 7586.75 538.5 7645.75 538.5 7645.75 130.5 7702.75 130.5 7702.75 538.5 7724.75 538.5 7724.75 130.5 7743.75 130.5 7743.75 538.5 7802.76 538.5 7802.76 130.5 7857.76 130.5 7857.76 538.5 7880.76 538.5 7880.76 130.5 7899.76 130.5 7899.76 538.5 7958.76 538.5 7958.76 130.5 7976.76 130.5 7976.76 538.5 8036.76 538.5 8036.76 130.5 8054.76 130.5 8054.76 538.5 8113.77 538.5 8113.77 130.5 8132.77 130.5 8132.77 538.5 8191.77 538.5 8191.77 130.5 8210.77 130.5 8210.77 538.5 8269.77 538.5 8269.77 130.5 8288.77 130.5 8288.77 538.5 8347.77 538.5 8347.77 130.5 8366.77 130.5 8366.77 538.5 8424.78 538.5 8424.78 130.5 8444.78 130.5 8444.78 538.5 8502.78 538.5 8502.78 130.5 8521.78 130.5 8521.78 538.5 8580.78 538.5 8580.78 130.5 8637.78 130.5 8637.78 538.5 8658.78 538.5 8658.78 130.5 8677.79 130.5 8677.79 538.5 9256.8 538.5 9256.8 130.5 9314.81 130.5 9314.81 538.5 9335.81 538.5 9335.81 130.5 9391.81 130.5 9391.81 538.5 9413.81 538.5 9413.81 130.5 9470.81 130.5 9470.81 538.5 9492.81 538.5 9492.81 130.5 9511.81 130.5 9511.81 538.5 9570.81 538.5 9570.81 130.5 9589.81 130.5 9589.81 538.5 9647.82 538.5 9647.82 130.5 9667.82 130.5 9667.82 538.5 9725.82 538.5 9725.82 130.5 9782.82 130.5 9782.82 538.5 9804.82 538.5 9804.82 130.5 9823.82 130.5 9823.82 538.5 9882.82 538.5 9882.82 130.5 9901.82 130.5 9901.82 538.5 9959.83 538.5 9959.83 130.5 10016.8 130.5 10016.8 538.5 10037.8 538.5 10037.8 130.5 10057.8 130.5 10057.8 538.5 10116.8 538.5 10116.8 130.5 10172.8 130.5 10172.8 538.5 10194.8 538.5 10194.8 130.5 10213.8 130.5 10213.8 538.5 10272.8 538.5 10272.8 130.5 10328.8 130.5 10328.8 538.5 10350.8 538.5 10350.8 130.5 10369.8 130.5 10369.8 538.5 10428.8 538.5 10428.8 130.5 10447.8 130.5 10447.8 538.5 10506.8 538.5 10506.8 130.5 10525.8 130.5 10525.8 538.5 10584.8 538.5 10584.8 130.5 10603.8 130.5 10603.8 538.5 10662.8 538.5 10662.8 130.5 10681.9 130.5 10681.9 538.5 10740.9 538.5 10740.9 130.5 10759.9 130.5 10759.9 538.5 10817.9 538.5 10817.9 130.5 10836.9 130.5 10836.9 538.5 10895.9 538.5 10895.9 130.5 10914.9 130.5 10914.9 538.5 10973.9 538.5 10973.9 130.5 10992.9 130.5 10992.9 538.5 11051.9 538.5 11051.9 130.5 11107.9 130.5 11107.9 538.5 11129.9 538.5 11129.9 130.5 11148.9 130.5 11148.9 538.5 11727.9 538.5 11727.9 130.5 11784.9 130.5 11784.9 538.5 11805.9 538.5 11805.9 130.5 11863.9 130.5 11863.9 538.5 11884.9 538.5 11884.9 130.5 11941.9 130.5 11941.9 538.5 11962.9 538.5 11962.9 130.5 11981.9 130.5 11981.9 538.5 12041.9 538.5 12041.9 130.5 12059.9 130.5 12059.9 538.5 12118.9 538.5 12118.9 130.5 12137.9 130.5 12137.9 538.5 12196.9 538.5 12196.9 130.5 12253.9 130.5 12253.9 538.5 12274.9 538.5 12274.9 130.5 12293.9 130.5 12293.9 538.5 12352.9 538.5 12352.9 130.5 12371.9 130.5 12371.9 538.5 12430.9 538.5 12430.9 130.5 12487.9 130.5 12487.9 538.5 12508.9 538.5 12508.9 130.5 12527.9 130.5 12527.9 538.5 12586.9 538.5 12586.9 130.5 12643.9 130.5 12643.9 538.5 12665.9 538.5 12665.9 130.5 12684.9 130.5 12684.9 538.5 12743.9 538.5 12743.9 130.5 12799.9 130.5 12799.9 538.5 12821.9 538.5 12821.9 130.5 12840.9 130.5 12840.9 538.5 12899.9 538.5 12899.9 130.5 12918.9 130.5 12918.9 538.5 12977.9 538.5 12977.9 130.5 12995.9 130.5 12995.9 538.5 13054.9 538.5 13054.9 130.5 13073.9 130.5 13073.9 538.5 13132.9 538.5 13132.9 130.5 13151.9 130.5 13151.9 538.5 13210.9 538.5 13210.9 130.5 13229.9 130.5 13229.9 538.5 13288.9 538.5 13288.9 130.5 13307.9 130.5 13307.9 538.5 13366.9 538.5 13366.9 130.5 13385.9 130.5 13385.9 538.5 13443.9 538.5 13443.9 130.5 13463.9 130.5 13463.9 538.5 13521.9 538.5 13521.9 130.5 13578.9 130.5 13578.9 538.5 13600.9 538.5 13600.9 130.5 13619.9 130.5 13619.9 538.5 14199 538.5 14199 130.5 14256 130.5 14256 538.5 14277 538.5 14277 130.5 14335 130.5 14335 538.5 14356 538.5 14356 130.5 14413 130.5 14413 538.5 14434 538.5 14434 130.5 14453 130.5 14453 538.5 14512 538.5 14512 130.5 14531 130.5 14531 538.5 14590 538.5 14590 130.5 14609 130.5 14609 538.5 14668 538.5 14668 130.5 14724 130.5 14724 538.5 14746 538.5 14746 130.5 14765 130.5 14765 538.5 14824 538.5 14824 130.5 14843 130.5 14843 538.5 14902 538.5 14902 130.5 14959 130.5 14959 538.5 14981 538.5 14981 130.5 14999 130.5 14999 538.5 15058 538.5 15058 130.5 15115 130.5 15115 538.5 15137 538.5 15137 130.5 15156 130.5 15156 538.5 15215 538.5 15215 130.5 15271 130.5 15271 538.5 15293 538.5 15293 130.5 15312 130.5 15312 538.5 15371 538.5 15371 130.5 15389 130.5 15389 538.5 15449 538.5 15449 130.5 15468 130.5 15468 538.5 15527 538.5 15527 130.5 15545 130.5 15545 538.5 15604 538.5 15604 130.5 15623 130.5 15623 538.5 15682 538.5 15682 130.5 15701 130.5 15701 538.5 15760 538.5 15760 130.5 15778 130.5 15778 538.5 15837 538.5 15837 130.5 15857 130.5 15857 538.5 15915 538.5 15915 130.5 15935 130.5 15935 538.5 15993 538.5 15993 130.5 16050 130.5 16050 538.5 16072 538.5 16072 130.5 16091 130.5 16091 538.5 16670 538.5 16670 130.5 16727 130.5 16727 538.5 16748 538.5 16748 130.5 16805.1 130.5 16805.1 538.5 16827.1 538.5 16827.1 130.5 16884.1 130.5 16884.1 538.5 16905.1 538.5 16905.1 130.5 16925.1 130.5 16925.1 538.5 16983.1 538.5 16983.1 130.5 17002.1 130.5 17002.1 538.5 17061.1 538.5 17061.1 130.5 17080.1 130.5 17080.1 538.5 17138.1 538.5 17138.1 130.5 17195.1 130.5 17195.1 538.5 17217.1 538.5 17217.1 130.5 17236.1 130.5 17236.1 538.5 17295.1 538.5 17295.1 130.5 17315.1 130.5 17315.1 538.5 17373.1 538.5 17373.1 130.5 17430.1 130.5 17430.1 538.5 17451.1 538.5 17451.1 130.5 17470.1 130.5 17470.1 538.5 17529.1 538.5 17529.1 130.5 17586.1 130.5 17586.1 538.5 17607.1 538.5 17607.1 130.5 17626.1 130.5 17626.1 538.5 17685.1 538.5 17685.1 130.5 17742.1 130.5 17742.1 538.5 17764.1 538.5 17764.1 130.5 17782.1 130.5 17782.1 538.5 17842.1 538.5 17842.1 130.5 17860.1 130.5 17860.1 538.5 17919.1 538.5 17919.1 130.5 17938.1 130.5 17938.1 538.5 17997.1 538.5 17997.1 130.5 18016.1 130.5 18016.1 538.5 18075.1 538.5 18075.1 130.5 18094.1 130.5 18094.1 538.5 18153.1 538.5 18153.1 130.5 18172.1 130.5 18172.1 538.5 18231.1 538.5 18231.1 130.5 18250.1 130.5 18250.1 538.5 18308.1 538.5 18308.1 130.5 18328.1 130.5 18328.1 538.5 18386.1 538.5 18386.1 130.5 18404.1 130.5 18404.1 538.5 18464.1 538.5 18464.1 130.5 18520.1 130.5 18520.1 538.5 18542.1 538.5 18542.1 130.5 18561.1 130.5 18561.1 538.5 19140.1 538.5 19140.1 130.5 19198.1 130.5 19198.1 538.5 19219.1 538.5 19219.1 130.5 19276.1 130.5 19276.1 538.5 19297.1 538.5 19297.1 130.5 19354.1 130.5 19354.1 538.5 19376.1 538.5 19376.1 130.5 19395.1 130.5 19395.1 538.5 19453.1 538.5 19453.1 130.5 19472.1 130.5 19472.1 538.5 19531.1 538.5 19531.1 130.5 19550.1 130.5 19550.1 538.5 19609.1 538.5 19609.1 130.5 19666.1 130.5 19666.1 538.5 19687.1 538.5 19687.1 130.5 19706.1 130.5 19706.1 538.5 19765.1 538.5 19765.1 130.5 19784.1 130.5 19784.1 538.5 19843.2 538.5 19843.2 130.5 19900.2 130.5 19900.2 538.5 19922.2 538.5 19922.2 130.5 19940.2 130.5 19940.2 538.5 19999.2 538.5 19999.2 130.5 20056.2 130.5 20056.2 538.5 20078.2 538.5 20078.2 130.5 20096.2 130.5 20096.2 538.5 20155.2 538.5 20155.2 130.5 20212.2 130.5 20212.2 538.5 20234.2 538.5 20234.2 130.5 20252.2 130.5 20252.2 538.5 20312.2 538.5 20312.2 130.5 20330.2 130.5 20330.2 538.5 20389.2 538.5 20389.2 130.5 20408.2 130.5 20408.2 538.5 20467.2 538.5 20467.2 130.5 20486.2 130.5 20486.2 538.5 20545.2 538.5 20545.2 130.5 20563.2 130.5 20563.2 538.5 20623.2 538.5 20623.2 130.5 20642.2 130.5 20642.2 538.5 20700.2 538.5 20700.2 130.5 20719.2 130.5 20719.2 538.5 20778.2 538.5 20778.2 130.5 20797.2 130.5 20797.2 538.5 20856.2 538.5 20856.2 130.5 20875.2 130.5 20875.2 538.5 20933.2 538.5 20933.2 130.5 20990.2 130.5 20990.2 538.5 21012.2 538.5 21012.2 130.5 21030.2 130.5 21030.2 538.5 21610.2 538.5 21610.2 130.5 21667.2 130.5 21667.2 538.5 21688.2 538.5 21688.2 130.5 21745.2 130.5 21745.2 538.5 21766.2 538.5 21766.2 130.5 21823.2 130.5 21823.2 538.5 21845.2 538.5 21845.2 130.5 21864.2 130.5 21864.2 538.5 21923.2 538.5 21923.2 130.5 21941.2 130.5 21941.2 538.5 22000.2 538.5 22000.2 130.5 22019.2 130.5 22019.2 538.5 22078.2 538.5 22078.2 130.5 22135.2 130.5 22135.2 538.5 22156.2 538.5 22156.2 130.5 22175.2 130.5 22175.2 538.5 22234.2 538.5 22234.2 130.5 22253.2 130.5 22253.2 538.5 22312.2 538.5 22312.2 130.5 22369.2 130.5 22369.2 538.5 22390.2 538.5 22390.2 130.5 22409.2 130.5 22409.2 538.5 22468.2 538.5 22468.2 130.5 22525.2 130.5 22525.2 538.5 22546.2 538.5 22546.2 130.5 22565.2 130.5 22565.2 538.5 22624.2 538.5 22624.2 130.5 22680.2 130.5 22680.2 538.5 22703.2 538.5 22703.2 130.5 22721.2 130.5 22721.2 538.5 22780.2 538.5 22780.2 130.5 22799.2 130.5 22799.2 538.5 22858.2 538.5 22858.2 130.5 22877.2 130.5 22877.2 538.5 22936.3 538.5 22936.3 130.5 22955.3 130.5 22955.3 538.5 23014.3 538.5 23014.3 130.5 23033.3 130.5 23033.3 538.5 23091.3 538.5 23091.3 130.5 23110.3 130.5 23110.3 538.5 23169.3 538.5 23169.3 130.5 23188.3 130.5 23188.3 538.5 23247.3 538.5 23247.3 130.5 23266.3 130.5 23266.3 538.5 23324.3 538.5 23324.3 130.5 23344.3 130.5 23344.3 538.5 23403.3 538.5 23403.3 130.5 23459.3 130.5 23459.3 538.5 23481.3 538.5 23481.3 130.5 23500.3 130.5 23500.3 538.5 24079.3 538.5 24079.3 130.5 24136.3 130.5 24136.3 538.5 24157.3 538.5 24157.3 130.5 24214.3 130.5 24214.3 538.5 24236.3 538.5 24236.3 130.5 24293.3 130.5 24293.3 538.5 24314.3 538.5 24314.3 130.5 24333.3 130.5 24333.3 538.5 24392.3 538.5 24392.3 130.5 24411.3 130.5 24411.3 538.5 24470.3 538.5 24470.3 130.5 24489.3 130.5 24489.3 538.5 24547.3 538.5 24547.3 130.5 24603.3 130.5 24603.3 538.5 24626.3 538.5 24626.3 130.5 24645.3 130.5 24645.3 538.5 24704.3 538.5 24704.3 130.5 24723.3 130.5 24723.3 538.5 24782.3 538.5 24782.3 130.5 24838.3 130.5 24838.3 538.5 24860.3 538.5 24860.3 130.5 24879.3 130.5 24879.3 538.5 24938.3 538.5 24938.3 130.5 24994.3 130.5 24994.3 538.5 25016.3 538.5 25016.3 130.5 25035.3 130.5 25035.3 538.5 25094.3 538.5 25094.3 130.5 25150.3 130.5 25150.3 538.5 25172.3 538.5 25172.3 130.5 25191.3 130.5 25191.3 538.5 25250.3 538.5 25250.3 130.5 25269.3 130.5 25269.3 538.5 25328.3 538.5 25328.3 130.5 25347.3 130.5 25347.3 538.5 25406.3 538.5 25406.3 130.5 25425.3 130.5 25425.3 538.5 25484.3 538.5 25484.3 130.5 25502.3 130.5 25502.3 538.5 25561.3 538.5 25561.3 130.5 25580.3 130.5 25580.3 538.5 25639.3 538.5 25639.3 130.5 25658.3 130.5 25658.3 538.5 25717.3 538.5 25717.3 130.5 25736.3 130.5 25736.3 538.5 25795.3 538.5 25795.3 130.5 25814.3 130.5 25814.3 538.5 25872.3 538.5 25872.3 130.5 25929.3 130.5 25929.3 538.5 25951.4 538.5 25951.4 130.5 25970.4 130.5 25970.4 538.5 26549.4 538.5 26549.4 130.5 26606.4 130.5 26606.4 538.5 26627.4 538.5 26627.4 130.5 26684.4 130.5 26684.4 538.5 26706.4 538.5 26706.4 130.5 26762.4 130.5 26762.4 538.5 26784.4 538.5 26784.4 130.5 26803.4 130.5 26803.4 538.5 26862.4 538.5 26862.4 130.5 26881.4 130.5 26881.4 538.5 26940.4 538.5 26940.4 130.5 26959.4 130.5 26959.4 538.5 27017.4 538.5 27017.4 130.5 27074.4 130.5 27074.4 538.5 27096.4 538.5 27096.4 130.5 27115.4 130.5 27115.4 538.5 27174.4 538.5 27174.4 130.5 27193.4 130.5 27193.4 538.5 27252.4 538.5 27252.4 130.5 27308.4 130.5 27308.4 538.5 27330.4 538.5 27330.4 130.5 27349.4 130.5 27349.4 538.5 27408.4 538.5 27408.4 130.5 27464.4 130.5 27464.4 538.5 27486.4 538.5 27486.4 130.5 27505.4 130.5 27505.4 538.5 27564.4 538.5 27564.4 130.5 27620.4 130.5 27620.4 538.5 27642.4 538.5 27642.4 130.5 27661.4 130.5 27661.4 538.5 27720.4 538.5 27720.4 130.5 27739.4 130.5 27739.4 538.5 27798.4 538.5 27798.4 130.5 27817.4 130.5 27817.4 538.5 27876.4 538.5 27876.4 130.5 27895.4 130.5 27895.4 538.5 27954.4 538.5 27954.4 130.5 27972.4 130.5 27972.4 538.5 28031.4 538.5 28031.4 130.5 28050.4 130.5 28050.4 538.5 28109.4 538.5 28109.4 130.5 28128.4 130.5 28128.4 538.5 28187.4 538.5 28187.4 130.5 28206.4 130.5 28206.4 538.5 28265.4 538.5 28265.4 130.5 28284.4 130.5 28284.4 538.5 28343.4 538.5 28343.4 130.5 28399.4 130.5 28399.4 538.5 28421.4 538.5 28421.4 130.5 28440.4 130.5 28440.4 538.5 29019.5 538.5 29019.5 130.5 29076.5 130.5 29076.5 538.5 29097.5 538.5 29097.5 130.5 29154.5 130.5 29154.5 538.5 29176.5 538.5 29176.5 130.5 29233.5 130.5 29233.5 538.5 29254.5 538.5 29254.5 130.5 29273.5 130.5 29273.5 538.5 29332.5 538.5 29332.5 130.5 29351.5 130.5 29351.5 538.5 29410.5 538.5 29410.5 130.5 29429.5 130.5 29429.5 538.5 29487.5 538.5 29487.5 130.5 29544.5 130.5 29544.5 538.5 29565.5 538.5 29565.5 130.5 29585.5 130.5 29585.5 538.5 29644.5 538.5 29644.5 130.5 29663.5 130.5 29663.5 538.5 29722.5 538.5 29722.5 130.5 29779.5 130.5 29779.5 538.5 29800.5 538.5 29800.5 130.5 29819.5 130.5 29819.5 538.5 29878.5 538.5 29878.5 130.5 29935.5 130.5 29935.5 538.5 29956.5 538.5 29956.5 130.5 29975.5 130.5 29975.5 538.5 30034.5 538.5 30034.5 130.5 30091.5 130.5 30091.5 538.5 30113.5 538.5 30113.5 130.5 30131.5 130.5 30131.5 538.5 30190.5 538.5 30190.5 130.5 30209.5 130.5 30209.5 538.5 30268.5 538.5 30268.5 130.5 30287.5 130.5 30287.5 538.5 30346.5 538.5 30346.5 130.5 30365.5 130.5 30365.5 538.5 30424.5 538.5 30424.5 130.5 30443.5 130.5 30443.5 538.5 30502.5 538.5 30502.5 130.5 30522.5 130.5 30522.5 538.5 30579.5 538.5 30579.5 130.5 30598.5 130.5 30598.5 538.5 30657.5 538.5 30657.5 130.5 30676.5 130.5 30676.5 538.5 30735.5 538.5 30735.5 130.5 30754.5 130.5 30754.5 538.5 30813.5 538.5 30813.5 130.5 30870.5 130.5 30870.5 538.5 30891.5 538.5 30891.5 130.5 30910.5 130.5 30910.5 538.5 31489.5 538.5 31489.5 130.5 31547.5 130.5 31547.5 538.5 31568.5 538.5 31568.5 130.5 31625.5 130.5 31625.5 538.5 31646.5 538.5 31646.5 130.5 31703.5 130.5 31703.5 538.5 31725.5 538.5 31725.5 130.5 31744.5 130.5 31744.5 538.5 31802.5 538.5 31802.5 130.5 31822.5 130.5 31822.5 538.5 31880.5 538.5 31880.5 130.5 31899.5 130.5 31899.5 538.5 31958.5 538.5 31958.5 130.5 32015.5 130.5 32015.5 538.5 32036.6 538.5 32036.6 130.5 32056.6 130.5 32056.6 538.5 32115.6 538.5 32115.6 130.5 32134.6 130.5 32134.6 538.5 32192.6 538.5 32192.6 130.5 32249.6 130.5 32249.6 538.5 32271.6 538.5 32271.6 130.5 32290.6 130.5 32290.6 538.5 32349.6 538.5 32349.6 130.5 32405.6 130.5 32405.6 538.5 32427.6 538.5 32427.6 130.5 32446.6 130.5 32446.6 538.5 32505.6 538.5 32505.6 130.5 32561.6 130.5 32561.6 538.5 32584.6 538.5 32584.6 130.5 32602.6 130.5 32602.6 538.5 32661.6 538.5 32661.6 130.5 32680.6 130.5 32680.6 538.5 32739.6 538.5 32739.6 130.5 32758.6 130.5 32758.6 538.5 32817.6 538.5 32817.6 130.5 32836.6 130.5 32836.6 538.5 32894.6 538.5 32894.6 130.5 32914.6 130.5 32914.6 538.5 32972.6 538.5 32972.6 130.5 32991.6 130.5 32991.6 538.5 33050.6 538.5 33050.6 130.5 33069.6 130.5 33069.6 538.5 33128.6 538.5 33128.6 130.5 33147.6 130.5 33147.6 538.5 33206.6 538.5 33206.6 130.5 33225.6 130.5 33225.6 538.5 33284.6 538.5 33284.6 130.5 33341.6 130.5 33341.6 538.5 33362.6 538.5 33362.6 130.5 33381.6 130.5 33381.6 538.5 33960.6 538.5 33960.6 130.5 34017.6 130.5 34017.6 538.5 34038.6 538.5 34038.6 130.5 34096.6 130.5 34096.6 538.5 34117.6 538.5 34117.6 130.5 34174.6 130.5 34174.6 538.5 34195.6 538.5 34195.6 130.5 34214.6 130.5 34214.6 538.5 34273.6 538.5 34273.6 130.5 34292.6 130.5 34292.6 538.5 34351.6 538.5 34351.6 130.5 34370.6 130.5 34370.6 538.5 34429.6 538.5 34429.6 130.5 34486.6 130.5 34486.6 538.5 34507.6 538.5 34507.6 130.5 34525.6 130.5 34525.6 538.5 34585.6 538.5 34585.6 130.5 34604.6 130.5 34604.6 538.5 34663.6 538.5 34663.6 130.5 34720.6 130.5 34720.6 538.5 34741.6 538.5 34741.6 130.5 34760.6 130.5 34760.6 538.5 34819.6 538.5 34819.6 130.5 34876.6 130.5 34876.6 538.5 34898.6 538.5 34898.6 130.5 34916.6 130.5 34916.6 538.5 34976.6 538.5 34976.6 130.5 35032.6 130.5 35032.6 538.5 35054.6 538.5 35054.6 130.5 35073.6 130.5 35073.6 538.5 35132.7 538.5 35132.7 130.5 35151.7 130.5 35151.7 538.5 35210.7 538.5 35210.7 130.5 35229.7 130.5 35229.7 538.5 35287.7 538.5 35287.7 130.5 35307.7 130.5 35307.7 538.5 35365.7 538.5 35365.7 130.5 35384.7 130.5 35384.7 538.5 35443.7 538.5 35443.7 130.5 35462.7 130.5 35462.7 538.5 35521.7 538.5 35521.7 130.5 35540.7 130.5 35540.7 538.5 35599.7 538.5 35599.7 130.5 35618.7 130.5 35618.7 538.5 35676.7 538.5 35676.7 130.5 35696.7 130.5 35696.7 538.5 35754.7 538.5 35754.7 130.5 35810.7 130.5 35810.7 538.5 35833.7 538.5 35833.7 130.5 35851.7 130.5 35851.7 538.5 36431.7 538.5 36431.7 130.5 36488.7 130.5 36488.7 538.5 36509.7 538.5 36509.7 130.5 36566.7 130.5 36566.7 538.5 36588.7 538.5 36588.7 130.5 36645.7 130.5 36645.7 538.5 36666.7 538.5 36666.7 130.5 36685.7 130.5 36685.7 538.5 36744.7 538.5 36744.7 130.5 36763.7 130.5 36763.7 538.5 36822.7 538.5 36822.7 130.5 36841.7 130.5 36841.7 538.5 36899.7 538.5 36899.7 130.5 36956.7 130.5 36956.7 538.5 36978.7 538.5 36978.7 130.5 36997.7 130.5 36997.7 538.5 37056.7 538.5 37056.7 130.5 37075.7 130.5 37075.7 538.5 37134.7 538.5 37134.7 130.5 37190.7 130.5 37190.7 538.5 37212.7 538.5 37212.7 130.5 37231.7 130.5 37231.7 538.5 37290.7 538.5 37290.7 130.5 37346.7 130.5 37346.7 538.5 37368.7 538.5 37368.7 130.5 37387.7 130.5 37387.7 538.5 37446.7 538.5 37446.7 130.5 37503.7 130.5 37503.7 538.5 37524.7 538.5 37524.7 130.5 37543.7 130.5 37543.7 538.5 37602.7 538.5 37602.7 130.5 37621.7 130.5 37621.7 538.5 37680.7 538.5 37680.7 130.5 37699.7 130.5 37699.7 538.5 37758.7 538.5 37758.7 130.5 37777.7 130.5 37777.7 538.5 37836.7 538.5 37836.7 130.5 37855.7 130.5 37855.7 538.5 37913.7 538.5 37913.7 130.5 37932.7 130.5 37932.7 538.5 37991.7 538.5 37991.7 130.5 38010.7 130.5 38010.7 538.5 38069.8 538.5 38069.8 130.5 38088.8 130.5 38088.8 538.5 38147.8 538.5 38147.8 130.5 38165.8 130.5 38165.8 538.5 38225.8 538.5 38225.8 130.5 38281.8 130.5 38281.8 538.5 38303.8 538.5 38303.8 130.5 38322.8 130.5 38322.8 538.5 38901.8 538.5 38901.8 130.5 38958.8 130.5 38958.8 538.5 38980.8 538.5 38980.8 130.5 39037.8 130.5 39037.8 538.5 39058.8 538.5 39058.8 130.5 39115.8 130.5 39115.8 538.5 39136.8 538.5 39136.8 130.5 39156.8 130.5 39156.8 538.5 39214.8 538.5 39214.8 130.5 39233.8 130.5 39233.8 538.5 39292.8 538.5 39292.8 130.5 39311.8 130.5 39311.8 538.5 39370.8 538.5 39370.8 130.5 39427.8 130.5 39427.8 538.5 39448.8 538.5 39448.8 130.5 39466.8 130.5 39466.8 538.5 39526.8 538.5 39526.8 130.5 39545.8 130.5 39545.8 538.5 39604.8 538.5 39604.8 130.5 39661.8 130.5 39661.8 538.5 39682.8 538.5 39682.8 130.5 39702.8 130.5 39702.8 538.5 39760.8 538.5 39760.8 130.5 39817.8 130.5 39817.8 538.5 39839.8 538.5 39839.8 130.5 39857.8 130.5 39857.8 538.5 39916.8 538.5 39916.8 130.5 39973.8 130.5 39973.8 538.5 39995.8 538.5 39995.8 130.5 40013.8 130.5 40013.8 538.5 40073.8 538.5 40073.8 130.5 40090.8 130.5 40090.8 538.5 40151.8 538.5 40151.8 130.5 40169.8 130.5 40169.8 538.5 40228.8 538.5 40228.8 130.5 40247.8 130.5 40247.8 538.5 40306.8 538.5 40306.8 130.5 40325.8 130.5 40325.8 538.5 40384.8 538.5 40384.8 130.5 40403.8 130.5 40403.8 538.5 40462.8 538.5 40462.8 130.5 40481.8 130.5 40481.8 538.5 40539.8 538.5 40539.8 130.5 40558.8 130.5 40558.8 538.5 40617.8 538.5 40617.8 130.5 40636.8 130.5 40636.8 538.5 40695.8 538.5 40695.8 130.5 40752.8 130.5 40752.8 538.5 40773.8 538.5 40773.8 130.5 40792.8 130.5 40792.8 538.5 41372.9 538.5 41372.9 130.5 41429.9 130.5 41429.9 538.5 41450.9 538.5 41450.9 130.5 41507.9 130.5 41507.9 538.5 41528.9 538.5 41528.9 130.5 41585.9 130.5 41585.9 538.5 41606.9 538.5 41606.9 130.5 41625.9 130.5 41625.9 538.5 41684.9 538.5 41684.9 130.5 41703.9 130.5 41703.9 538.5 41762.9 538.5 41762.9 130.5 41781.9 130.5 41781.9 538.5 41840.9 538.5 41840.9 130.5 41897.9 130.5 41897.9 538.5 41918.9 538.5 41918.9 130.5 41937.9 130.5 41937.9 538.5 41996.9 538.5 41996.9 130.5 42015.9 130.5 42015.9 538.5 42073.9 538.5 42073.9 130.5 42131.9 130.5 42131.9 538.5 42152.9 538.5 42152.9 130.5 42171.9 130.5 42171.9 538.5 42230.9 538.5 42230.9 130.5 42287.9 130.5 42287.9 538.5 42308.9 538.5 42308.9 130.5 42327.9 130.5 42327.9 538.5 42386.9 538.5 42386.9 130.5 42443.9 130.5 42443.9 538.5 42465.9 538.5 42465.9 130.5 42483.9 130.5 42483.9 538.5 42543.9 538.5 42543.9 130.5 42561.9 130.5 42561.9 538.5 42620.9 538.5 42620.9 130.5 42639.9 130.5 42639.9 538.5 42698.9 538.5 42698.9 130.5 42717.9 130.5 42717.9 538.5 42776.9 538.5 42776.9 130.5 42795.9 130.5 42795.9 538.5 42854.9 538.5 42854.9 130.5 42872.9 130.5 42872.9 538.5 42931.9 538.5 42931.9 130.5 42950.9 130.5 42950.9 538.5 43009.9 538.5 43009.9 130.5 43028.9 130.5 43028.9 538.5 43087.9 538.5 43087.9 130.5 43106.9 130.5 43106.9 538.5 43165.9 538.5 43165.9 130.5 43222.9 130.5 43222.9 538.5 43243.9 538.5 43243.9 130.5 43262.9 130.5 43262.9 538.5 43841.9 538.5 43841.9 130.5 43898.9 130.5 43898.9 538.5 43919.9 538.5 43919.9 130.5 43976.9 130.5 43976.9 538.5 43998.9 538.5 43998.9 130.5 44054.9 130.5 44054.9 538.5 44076.9 538.5 44076.9 130.5 44096.9 130.5 44096.9 538.5 44154.9 538.5 44154.9 130.5 44173.9 130.5 44173.9 538.5 44231.9 538.5 44231.9 130.5 44252 130.5 44252 538.5 44310 538.5 44310 130.5 44367 130.5 44367 538.5 44388 538.5 44388 130.5 44407 130.5 44407 538.5 44467 538.5 44467 130.5 44486 130.5 44486 538.5 44544 538.5 44544 130.5 44601 130.5 44601 538.5 44623 538.5 44623 130.5 44641 130.5 44641 538.5 44701 538.5 44701 130.5 44757 130.5 44757 538.5 44779 538.5 44779 130.5 44797 130.5 44797 538.5 44857 538.5 44857 130.5 44913 130.5 44913 538.5 44935 538.5 44935 130.5 44953 130.5 44953 538.5 45013 538.5 45013 130.5 45032 130.5 45032 538.5 45091 538.5 45091 130.5 45109 130.5 45109 538.5 45168 538.5 45168 130.5 45187 130.5 45187 538.5 45246 538.5 45246 130.5 45265 130.5 45265 538.5 45324 538.5 45324 130.5 45343 130.5 45343 538.5 45401 538.5 45401 130.5 45420 130.5 45420 538.5 45479 538.5 45479 130.5 45498 130.5 45498 538.5 45557 538.5 45557 130.5 45576 130.5 45576 538.5 45635 538.5 45635 130.5 45691 130.5 45691 538.5 45713 538.5 45713 130.5 45732 130.5 45732 538.5 46311 538.5 46311 130.5 46368 130.5 46368 538.5 46389 538.5 46389 130.5 46447 130.5 46447 538.5 46468 538.5 46468 130.5 46525 130.5 46525 538.5 46546 538.5 46546 130.5 46565 130.5 46565 538.5 46624 538.5 46624 130.5 46643 130.5 46643 538.5 46702 538.5 46702 130.5 46721 130.5 46721 538.5 46779 538.5 46779 130.5 46837 130.5 46837 538.5 46858 538.5 46858 130.5 46877 130.5 46877 538.5 46936 538.5 46936 130.5 46955 130.5 46955 538.5 47014 538.5 47014 130.5 47070 130.5 47070 538.5 47092 538.5 47092 130.5 47111 130.5 47111 538.5 47170 538.5 47170 130.5 47226.1 130.5 47226.1 538.5 47248.1 538.5 47248.1 130.5 47267.1 130.5 47267.1 538.5 47326.1 538.5 47326.1 130.5 47382.1 130.5 47382.1 538.5 47404.1 538.5 47404.1 130.5 47423.1 130.5 47423.1 538.5 47482.1 538.5 47482.1 130.5 47501.1 130.5 47501.1 538.5 47560.1 538.5 47560.1 130.5 47579.1 130.5 47579.1 538.5 47638.1 538.5 47638.1 130.5 47656.1 130.5 47656.1 538.5 47716.1 538.5 47716.1 130.5 47734.1 130.5 47734.1 538.5 47793.1 538.5 47793.1 130.5 47812.1 130.5 47812.1 538.5 47871.1 538.5 47871.1 130.5 47890.1 130.5 47890.1 538.5 47948.1 538.5 47948.1 130.5 47968.1 130.5 47968.1 538.5 48026.1 538.5 48026.1 130.5 48045.1 130.5 48045.1 538.5 48104.1 538.5 48104.1 130.5 48161.1 130.5 48161.1 538.5 48182.1 538.5 48182.1 130.5 48201.1 130.5 48201.1 538.5 48780.1 538.5 48780.1 130.5 48838.1 130.5 48838.1 538.5 48859.1 538.5 48859.1 130.5 48916.1 130.5 48916.1 538.5 48937.1 538.5 48937.1 130.5 48994.1 130.5 48994.1 538.5 49016.1 538.5 49016.1 130.5 49034.1 130.5 49034.1 538.5 49093.1 538.5 49093.1 130.5 49112.1 130.5 49112.1 538.5 49171.1 538.5 49171.1 130.5 49190.1 130.5 49190.1 538.5 49248.1 538.5 49248.1 130.5 49305.1 130.5 49305.1 538.5 49327.1 538.5 49327.1 130.5 49346.1 130.5 49346.1 538.5 49405.1 538.5 49405.1 130.5 49424.1 130.5 49424.1 538.5 49483.1 538.5 49483.1 130.5 49539.1 130.5 49539.1 538.5 49561.1 538.5 49561.1 130.5 49580.1 130.5 49580.1 538.5 49639.1 538.5 49639.1 130.5 49695.1 130.5 49695.1 538.5 49717.1 538.5 49717.1 130.5 49736.1 130.5 49736.1 538.5 49795.1 538.5 49795.1 130.5 49851.1 130.5 49851.1 538.5 49873.1 538.5 49873.1 130.5 49892.1 130.5 49892.1 538.5 49951.1 538.5 49951.1 130.5 49970.1 130.5 49970.1 538.5 50029.1 538.5 50029.1 130.5 50048.1 130.5 50048.1 538.5 50107.1 538.5 50107.1 130.5 50126.1 130.5 50126.1 538.5 50185.1 538.5 50185.1 130.5 50203.1 130.5 50203.1 538.5 50262.1 538.5 50262.1 130.5 50281.1 130.5 50281.1 538.5 50340.2 538.5 50340.2 130.5 50359.2 130.5 50359.2 538.5 50418.2 538.5 50418.2 130.5 50437.2 130.5 50437.2 538.5 50496.2 538.5 50496.2 130.5 50515.2 130.5 50515.2 538.5 50573.2 538.5 50573.2 130.5 50630.5 130.5 50630.5 538.5" stroke="#156082" stroke-width="3.4375" stroke-linecap="round" stroke-linejoin="round" stroke-miterlimit="10" fill="none"/></g><g><text fill="#0E2841" font-family="Aptos Narrow,Aptos Narrow_MSFontService,sans-serif" font-weight="400" font-stretch="semi-condensed" font-size="41" transform="matrix(1 0 0 1 3679.04 550)">0</text></g><g><text fill="#0E2841" font-family="Aptos Narrow,Aptos Narrow_MSFontService,sans-serif" font-weight="400" font-stretch="semi-condensed" font-size="41" transform="matrix(1 0 0 1 3679.04 142)">1</text></g><g><text fill="#0E2841" font-family="Aptos Narrow,Aptos Narrow_MSFontService,sans-serif" font-weight="400" font-stretch="semi-condensed" font-size="41" transform="matrix(1 0 0 1 3727.57 603)">0</text></g><g><text fill="#0E2841" font-family="Aptos Narrow,Aptos Narrow_MSFontService,sans-serif" font-weight="400" font-stretch="semi-condensed" font-size="41" transform="matrix(1 0 0 1 4158.92 603)">10000</text></g><g><text fill="#0E2841" font-family="Aptos Narrow,Aptos Narrow_MSFontService,sans-serif" font-weight="400" font-stretch="semi-condensed" font-size="41" transform="matrix(1 0 0 1 4632.06 603)">20000</text></g><g><text fill="#0E2841" font-family="Aptos Narrow,Aptos Narrow_MSFontService,sans-serif" font-weight="400" font-stretch="semi-condensed" font-size="41" transform="matrix(1 0 0 1 5105.2 603)">30000</text></g><g><text fill="#0E2841" font-family="Aptos Narrow,Aptos Narrow_MSFontService,sans-serif" font-weight="400" font-stretch="semi-condensed" font-size="41" transform="matrix(1 0 0 1 5578.34 603)">40000</text></g><g><text fill="#0E2841" font-family="Aptos Narrow,Aptos Narrow_MSFontService,sans-serif" font-weight="400" font-stretch="semi-condensed" font-size="41" transform="matrix(1 0 0 1 6051.48 603)">50000</text></g><g><text fill="#0E2841" font-family="Aptos Narrow,Aptos Narrow_MSFontService,sans-serif" font-weight="400" font-stretch="semi-condensed" font-size="41" transform="matrix(1 0 0 1 6524.62 603)">60000</text></g><g><text fill="#0E2841" font-family="Aptos Narrow,Aptos Narrow_MSFontService,sans-serif" font-weight="700" font-stretch="semi-condensed" font-size="41" transform="matrix(1 0 0 1 5184.24 667)">Time (</text></g><g><text fill="#0E2841" font-family="Aptos Narrow,Aptos Narrow_MSFontService,sans-serif" font-weight="700" font-stretch="semi-condensed" font-size="41" transform="matrix(1 0 0 1 5287.38 667)">μ</text></g><g><text fill="#0E2841" font-family="Aptos Narrow,Aptos Narrow_MSFontService,sans-serif" font-weight="700" font-stretch="semi-condensed" font-size="41" transform="matrix(1 0 0 1 5309.18 667)">s) </text></g><rect x="3649.5" y="80.4999" width="3241" height="656" stroke="#CADFF4" stroke-width="3.4375" stroke-linejoin="round" stroke-miterlimit="10" fill="none"/></g></svg>