<svg width="3251" height="652" xmlns="http://www.w3.org/2000/svg" xmlns:xlink="http://www.w3.org/1999/xlink" xml:space="preserve" overflow="hidden"><defs><clipPath id="clip0"><rect x="1151" y="41" width="3251" height="652"/></clipPath><clipPath id="clip1"><rect x="1240" y="92" width="3060" height="405"/></clipPath></defs><g clip-path="url(#clip0)" transform="translate(-1151 -41)"><rect x="1152" y="41.9999" width="3248" height="649" fill="#FFFFFF"/><g><path d="M0 0 0.000360892 401" stroke="#71AAE0" stroke-width="3.4375" stroke-linejoin="round" stroke-miterlimit="10" fill="none" fill-rule="evenodd" transform="matrix(1 0 0 -1 1240.5 493.5)"/></g><g><path d="M1240.5 493.5 4297.5 493.5" stroke="#CADFF4" stroke-width="3.4375" stroke-linejoin="round" stroke-miterlimit="10" fill="none" fill-rule="evenodd"/></g><g clip-path="url(#clip1)"><path d="M909.5 493.5 909.5 92.5 928.531 92.5 928.531 493.5 987.533 493.5 987.533 92.5 1006.53 92.5 1006.53 493.5 1065.54 493.5 1065.54 92.5 1084.54 92.5 1084.54 493.5 1143.54 493.5 1143.54 92.5 1200.54 92.5 1200.54 493.5 1221.54 493.5 1221.54 92.5 1240.54 92.5 1240.54 493.5 1821.56 493.5 1821.56 92.5 1878.56 92.5 1878.56 493.5 1899.56 493.5 1899.56 92.5 1957.56 92.5 1957.56 493.5 1978.57 493.5 1978.57 92.5 2035.57 92.5 2035.57 493.5 2057.57 493.5 2057.57 92.5 2076.57 92.5 2076.57 493.5 2135.57 493.5 2135.57 92.5 2154.57 92.5 2154.57 493.5 2212.57 493.5 2212.57 92.5 2232.57 92.5 2232.57 493.5 2290.58 493.5 2290.58 92.5 2347.58 92.5 2347.58 493.5 2369.58 493.5 2369.58 92.5 2388.58 92.5 2388.58 493.5 2447.58 493.5 2447.58 92.5 2466.58 92.5 2466.58 493.5 2525.58 493.5 2525.58 92.5 2582.58 92.5 2582.58 493.5 2604.59 493.5 2604.59 92.5 2623.59 92.5 2623.59 493.5 2682.59 493.5 2682.59 92.5 2739.59 92.5 2739.59 493.5 2760.59 493.5 2760.59 92.5 2779.59 92.5 2779.59 493.5 2839.59 493.5 2839.59 92.5 2895.6 92.5 2895.6 493.5 2917.6 493.5 2917.6 92.5 2935.6 92.5 2935.6 493.5 2995.6 493.5 2995.6 92.5 3014.6 92.5 3014.6 493.5 3073.6 493.5 3073.6 92.5 3092.6 92.5 3092.6 493.5 3151.6 493.5 3151.6 92.5 3170.6 92.5 3170.6 493.5 3229.61 493.5 3229.61 92.5 3248.61 92.5 3248.61 493.5 3307.61 493.5 3307.61 92.5 3326.61 92.5 3326.61 493.5 3385.61 493.5 3385.61 92.5 3404.61 92.5 3404.61 493.5 3463.61 493.5 3463.61 92.5 3482.61 92.5 3482.61 493.5 3541.62 493.5 3541.62 92.5 3560.62 92.5 3560.62 493.5 3619.62 493.5 3619.62 92.5 3676.62 92.5 3676.62 493.5 3697.62 493.5 3697.62 92.5 3716.62 92.5 3716.62 493.5 4297.64 493.5 4297.64 92.5 4354.64 92.5 4354.64 493.5 4375.64 493.5 4375.64 92.5 4432.65 92.5 4432.65 493.5 4454.65 493.5 4454.65 92.5 4511.65 92.5 4511.65 493.5 4533.65 493.5 4533.65 92.5 4552.65 92.5 4552.65 493.5 4611.65 493.5 4611.65 92.5 4630.65 92.5 4630.65 493.5 4688.65 493.5 4688.65 92.5 4708.65 92.5 4708.65 493.5 4767.66 493.5 4767.66 92.5 4823.66 92.5 4823.66 493.5 4845.66 493.5 4845.66 92.5 4864.66 92.5 4864.66 493.5 4924.66 493.5 4924.66 92.5 4942.66 92.5 4942.66 493.5 5001.66 493.5 5001.66 92.5 5058.67 92.5 5058.67 493.5 5080.67 493.5 5080.67 92.5 5099.67 92.5 5099.67 493.5 5158.67 493.5 5158.67 92.5 5215.67 92.5 5215.67 493.5 5237.67 493.5 5237.67 92.5 5255.67 92.5 5255.67 493.5 5315.67 493.5 5315.67 92.5 5370.68 92.5 5370.68 493.5 5393.68 493.5 5393.68 92.5 5412.68 92.5 5412.68 493.5 5471.68 493.5 5471.68 92.5 5489.68 92.5 5489.68 493.5 5549.68 493.5 5549.68 92.5 5568.68 92.5 5568.68 493.5 5627.68 493.5 5627.68 92.5 5646.69 92.5 5646.69 493.5 5705.69 493.5 5705.69 92.5 5724.69 92.5 5724.69 493.5 5783.69 493.5 5783.69 92.5 5802.69 92.5 5802.69 493.5 5861.69 493.5 5861.69 92.5 5880.69 92.5 5880.69 493.5 5939.69 493.5 5939.69 92.5 5958.7 92.5 5958.7 493.5 6017.7 493.5 6017.7 92.5 6036.7 92.5 6036.7 493.5 6095.7 493.5 6095.7 92.5 6152.7 92.5 6152.7 493.5 6174.7 493.5 6174.7 92.5 6193.7 92.5 6193.7 493.5 6773.72 493.5 6773.72 92.5 6831.72 92.5 6831.72 493.5 6852.73 493.5 6852.73 92.5 6908.73 92.5 6908.73 493.5 6930.73 493.5 6930.73 92.5 6987.73 92.5 6987.73 493.5 7009.73 493.5 7009.73 92.5 7028.73 92.5 7028.73 493.5 7087.73 493.5 7087.73 92.5 7106.73 92.5 7106.73 493.5 7165.74 493.5 7165.74 92.5 7184.74 92.5 7184.74 493.5 7243.74 493.5 7243.74 92.5 7300.74 92.5 7300.74 493.5 7322.74 493.5 7322.74 92.5 7341.74 92.5 7341.74 493.5 7400.74 493.5 7400.74 92.5 7419.74 92.5 7419.74 493.5 7478.75 493.5 7478.75 92.5 7535.75 92.5 7535.75 493.5 7556.75 493.5 7556.75 92.5 7575.75 92.5 7575.75 493.5 7634.75 493.5 7634.75 92.5 7691.75 92.5 7691.75 493.5 7713.75 493.5 7713.75 92.5 7732.75 92.5 7732.75 493.5 7791.76 493.5 7791.76 92.5 7847.76 92.5 7847.76 493.5 7870.76 493.5 7870.76 92.5 7888.76 92.5 7888.76 493.5 7948.76 493.5 7948.76 92.5 7966.76 92.5 7966.76 493.5 8026.76 493.5 8026.76 92.5 8045.76 92.5 8045.76 493.5 8104.77 493.5 8104.77 92.5 8123.77 92.5 8123.77 493.5 8182.77 493.5 8182.77 92.5 8201.77 92.5 8201.77 493.5 8260.77 493.5 8260.77 92.5 8279.77 92.5 8279.77 493.5 8338.77 493.5 8338.77 92.5 8357.77 92.5 8357.77 493.5 8416.78 493.5 8416.78 92.5 8435.78 92.5 8435.78 493.5 8494.78 493.5 8494.78 92.5 8513.78 92.5 8513.78 493.5 8572.78 493.5 8572.78 92.5 8629.78 92.5 8629.78 493.5 8650.78 493.5 8650.78 92.5 8669.79 92.5 8669.79 493.5 9250.8 493.5 9250.8 92.5 9307.8 92.5 9307.8 493.5 9328.81 493.5 9328.81 92.5 9386.81 92.5 9386.81 493.5 9407.81 493.5 9407.81 92.5 9464.81 92.5 9464.81 493.5 9486.81 493.5 9486.81 92.5 9505.81 92.5 9505.81 493.5 9564.81 493.5 9564.81 92.5 9583.81 92.5 9583.81 493.5 9642.82 493.5 9642.82 92.5 9661.82 92.5 9661.82 493.5 9720.82 493.5 9720.82 92.5 9777.82 92.5 9777.82 493.5 9798.82 493.5 9798.82 92.5 9817.82 92.5 9817.82 493.5 9877.82 493.5 9877.82 92.5 9896.83 92.5 9896.83 493.5 9955.83 493.5 9955.83 92.5 10012.8 92.5 10012.8 493.5 10033.8 493.5 10033.8 92.5 10052.8 92.5 10052.8 493.5 10111.8 493.5 10111.8 92.5 10168.8 92.5 10168.8 493.5 10190.8 493.5 10190.8 92.5 10209.8 92.5 10209.8 493.5 10268.8 493.5 10268.8 92.5 10325.8 92.5 10325.8 493.5 10347.8 493.5 10347.8 92.5 10365.8 92.5 10365.8 493.5 10425.8 493.5 10425.8 92.5 10443.8 92.5 10443.8 493.5 10503.8 493.5 10503.8 92.5 10521.8 92.5 10521.8 493.5 10581.8 493.5 10581.8 92.5 10600.8 92.5 10600.8 493.5 10659.8 493.5 10659.8 92.5 10678.9 92.5 10678.9 493.5 10737.9 493.5 10737.9 92.5 10756.9 92.5 10756.9 493.5 10815.9 493.5 10815.9 92.5 10834.9 92.5 10834.9 493.5 10893.9 493.5 10893.9 92.5 10912.9 92.5 10912.9 493.5 10970.9 493.5 10970.9 92.5 10990.9 92.5 10990.9 493.5 11049.9 493.5 11049.9 92.5 11106.9 92.5 11106.9 493.5 11127.9 493.5 11127.9 92.5 11146.9 92.5 11146.9 493.5 11727.9 493.5 11727.9 92.5 11784.9 92.5 11784.9 493.5 11805.9 493.5 11805.9 92.5 11863.9 92.5 11863.9 493.5 11884.9 493.5 11884.9 92.5 11942.9 92.5 11942.9 493.5 11963.9 493.5 11963.9 92.5 11982.9 92.5 11982.9 493.5 12041.9 493.5 12041.9 92.5 12060.9 92.5 12060.9 493.5 12119.9 493.5 12119.9 92.5 12138.9 92.5 12138.9 493.5 12197.9 493.5 12197.9 92.5 12253.9 92.5 12253.9 493.5 12275.9 493.5 12275.9 92.5 12295.9 92.5 12295.9 493.5 12354.9 493.5 12354.9 92.5 12373.9 92.5 12373.9 493.5 12432.9 493.5 12432.9 92.5 12489.9 92.5 12489.9 493.5 12510.9 493.5 12510.9 92.5 12529.9 92.5 12529.9 493.5 12588.9 493.5 12588.9 92.5 12645.9 92.5 12645.9 493.5 12667.9 493.5 12667.9 92.5 12686.9 92.5 12686.9 493.5 12745.9 493.5 12745.9 92.5 12802.9 92.5 12802.9 493.5 12824.9 493.5 12824.9 92.5 12842.9 92.5 12842.9 493.5 12902.9 493.5 12902.9 92.5 12920.9 92.5 12920.9 493.5 12980.9 493.5 12980.9 92.5 12999.9 92.5 12999.9 493.5 13058.9 493.5 13058.9 92.5 13077.9 92.5 13077.9 493.5 13136.9 493.5 13136.9 92.5 13155.9 92.5 13155.9 493.5 13214.9 493.5 13214.9 92.5 13233.9 92.5 13233.9 493.5 13292.9 493.5 13292.9 92.5 13310.9 92.5 13310.9 493.5 13369.9 493.5 13369.9 92.5 13389.9 92.5 13389.9 493.5 13448.9 493.5 13448.9 92.5 13467.9 92.5 13467.9 493.5 13526.9 493.5 13526.9 92.5 13583.9 92.5 13583.9 493.5 13604.9 493.5 13604.9 92.5 13623.9 92.5 13623.9 493.5 14205 493.5 14205 92.5 14262 92.5 14262 493.5 14284 493.5 14284 92.5 14341 92.5 14341 493.5 14362 493.5 14362 92.5 14420 92.5 14420 493.5 14441 493.5 14441 92.5 14460 92.5 14460 493.5 14519 493.5 14519 92.5 14538 92.5 14538 493.5 14597 493.5 14597 92.5 14616 92.5 14616 493.5 14675 493.5 14675 92.5 14732 92.5 14732 493.5 14753 493.5 14753 92.5 14772 92.5 14772 493.5 14832 493.5 14832 92.5 14851 92.5 14851 493.5 14910 493.5 14910 92.5 14967 92.5 14967 493.5 14988 493.5 14988 92.5 15007 92.5 15007 493.5 15066 493.5 15066 92.5 15123 92.5 15123 493.5 15145 493.5 15145 92.5 15164 92.5 15164 493.5 15223 493.5 15223 92.5 15280 92.5 15280 493.5 15302 493.5 15302 92.5 15320 92.5 15320 493.5 15380 493.5 15380 92.5 15398 92.5 15398 493.5 15458 493.5 15458 92.5 15477 92.5 15477 493.5 15536 493.5 15536 92.5 15555 92.5 15555 493.5 15614 493.5 15614 92.5 15633 92.5 15633 493.5 15692 493.5 15692 92.5 15711 92.5 15711 493.5 15770 493.5 15770 92.5 15789 92.5 15789 493.5 15848 493.5 15848 92.5 15867 92.5 15867 493.5 15926 493.5 15926 92.5 15944 92.5 15944 493.5 16004 493.5 16004 92.5 16060 92.5 16060 493.5 16082 493.5 16082 92.5 16101 92.5 16101 493.5 16682 493.5 16682 92.5 16739 92.5 16739 493.5 16760.1 493.5 16760.1 92.5 16817.1 92.5 16817.1 493.5 16839.1 493.5 16839.1 92.5 16896.1 92.5 16896.1 493.5 16917.1 493.5 16917.1 92.5 16937.1 92.5 16937.1 493.5 16995.1 493.5 16995.1 92.5 17014.1 92.5 17014.1 493.5 17073.1 493.5 17073.1 92.5 17092.1 92.5 17092.1 493.5 17151.1 493.5 17151.1 92.5 17209.1 92.5 17209.1 493.5 17230.1 493.5 17230.1 92.5 17249.1 92.5 17249.1 493.5 17308.1 493.5 17308.1 92.5 17327.1 92.5 17327.1 493.5 17386.1 493.5 17386.1 92.5 17443.1 92.5 17443.1 493.5 17465.1 493.5 17465.1 92.5 17484.1 92.5 17484.1 493.5 17543.1 493.5 17543.1 92.5 17599.1 92.5 17599.1 493.5 17621.1 493.5 17621.1 92.5 17640.1 92.5 17640.1 493.5 17699.1 493.5 17699.1 92.5 17756.1 92.5 17756.1 493.5 17778.1 493.5 17778.1 92.5 17796.1 92.5 17796.1 493.5 17856.1 493.5 17856.1 92.5 17874.1 92.5 17874.1 493.5 17934.1 493.5 17934.1 92.5 17952.1 92.5 17952.1 493.5 18012.1 493.5 18012.1 92.5 18030.1 92.5 18030.1 493.5 18090.1 493.5 18090.1 92.5 18108.1 92.5 18108.1 493.5 18168.1 493.5 18168.1 92.5 18187.1 92.5 18187.1 493.5 18246.1 493.5 18246.1 92.5 18264.1 92.5 18264.1 493.5 18323.1 493.5 18323.1 92.5 18342.1 92.5 18342.1 493.5 18401.1 493.5 18401.1 92.5 18420.1 92.5 18420.1 493.5 18479.1 493.5 18479.1 92.5 18536.1 92.5 18536.1 493.5 18558.1 493.5 18558.1 92.5 18576.1 92.5 18576.1 493.5 19157.1 493.5 19157.1 92.5 19214.1 92.5 19214.1 493.5 19236.1 493.5 19236.1 92.5 19293.1 92.5 19293.1 493.5 19314.1 493.5 19314.1 92.5 19371.1 92.5 19371.1 493.5 19393.1 493.5 19393.1 92.5 19412.1 92.5 19412.1 493.5 19471.1 493.5 19471.1 92.5 19490.1 92.5 19490.1 493.5 19549.1 493.5 19549.1 92.5 19568.1 92.5 19568.1 493.5 19627.1 493.5 19627.1 92.5 19683.1 92.5 19683.1 493.5 19705.1 493.5 19705.1 92.5 19724.1 92.5 19724.1 493.5 19783.2 493.5 19783.2 92.5 19802.2 92.5 19802.2 493.5 19861.2 493.5 19861.2 92.5 19918.2 92.5 19918.2 493.5 19939.2 493.5 19939.2 92.5 19959.2 92.5 19959.2 493.5 20017.2 493.5 20017.2 92.5 20074.2 92.5 20074.2 493.5 20096.2 493.5 20096.2 92.5 20115.2 92.5 20115.2 493.5 20174.2 493.5 20174.2 92.5 20231.2 92.5 20231.2 493.5 20253.2 493.5 20253.2 92.5 20271.2 92.5 20271.2 493.5 20331.2 493.5 20331.2 92.5 20349.2 92.5 20349.2 493.5 20409.2 493.5 20409.2 92.5 20427.2 92.5 20427.2 493.5 20487.2 493.5 20487.2 92.5 20506.2 92.5 20506.2 493.5 20565.2 493.5 20565.2 92.5 20584.2 92.5 20584.2 493.5 20643.2 493.5 20643.2 92.5 20662.2 92.5 20662.2 493.5 20721.2 493.5 20721.2 92.5 20740.2 92.5 20740.2 493.5 20798.2 493.5 20798.2 92.5 20817.2 92.5 20817.2 493.5 20876.2 493.5 20876.2 92.5 20896.2 92.5 20896.2 493.5 20954.2 493.5 20954.2 92.5 21011.2 92.5 21011.2 493.5 21033.2 493.5 21033.2 92.5 21052.2 92.5 21052.2 493.5 21632.2 493.5 21632.2 92.5 21690.2 92.5 21690.2 493.5 21711.2 493.5 21711.2 92.5 21768.2 92.5 21768.2 493.5 21790.2 493.5 21790.2 92.5 21847.2 92.5 21847.2 493.5 21868.2 493.5 21868.2 92.5 21887.2 92.5 21887.2 493.5 21946.2 493.5 21946.2 92.5 21965.2 92.5 21965.2 493.5 22024.2 493.5 22024.2 92.5 22043.2 92.5 22043.2 493.5 22102.2 493.5 22102.2 92.5 22158.2 92.5 22158.2 493.5 22181.2 493.5 22181.2 92.5 22200.2 92.5 22200.2 493.5 22259.2 493.5 22259.2 92.5 22278.2 92.5 22278.2 493.5 22337.2 493.5 22337.2 92.5 22393.2 92.5 22393.2 493.5 22416.2 493.5 22416.2 92.5 22435.2 92.5 22435.2 493.5 22494.2 493.5 22494.2 92.5 22550.2 92.5 22550.2 493.5 22572.2 493.5 22572.2 92.5 22591.2 92.5 22591.2 493.5 22650.2 493.5 22650.2 92.5 22707.2 92.5 22707.2 493.5 22729.2 493.5 22729.2 92.5 22747.2 92.5 22747.2 493.5 22807.2 493.5 22807.2 92.5 22825.2 92.5 22825.2 493.5 22885.2 493.5 22885.2 92.5 22904.3 92.5 22904.3 493.5 22963.3 493.5 22963.3 92.5 22982.3 92.5 22982.3 493.5 23041.3 493.5 23041.3 92.5 23060.3 92.5 23060.3 493.5 23118.3 493.5 23118.3 92.5 23138.3 92.5 23138.3 493.5 23197.3 493.5 23197.3 92.5 23216.3 92.5 23216.3 493.5 23275.3 493.5 23275.3 92.5 23294.3 92.5 23294.3 493.5 23353.3 493.5 23353.3 92.5 23372.3 92.5 23372.3 493.5 23431.3 493.5 23431.3 92.5 23487.3 92.5 23487.3 493.5 23509.3 493.5 23509.3 92.5 23528.3 92.5 23528.3 493.5 24109.3 493.5 24109.3 92.5 24166.3 92.5 24166.3 493.5 24187.3 493.5 24187.3 92.5 24244.3 92.5 24244.3 493.5 24266.3 493.5 24266.3 92.5 24323.3 92.5 24323.3 493.5 24344.3 493.5 24344.3 92.5 24363.3 92.5 24363.3 493.5 24422.3 493.5 24422.3 92.5 24441.3 92.5 24441.3 493.5 24500.3 493.5 24500.3 92.5 24520.3 92.5 24520.3 493.5 24578.3 493.5 24578.3 92.5 24635.3 92.5 24635.3 493.5 24657.3 493.5 24657.3 92.5 24676.3 92.5 24676.3 493.5 24735.3 493.5 24735.3 92.5 24754.3 92.5 24754.3 493.5 24813.3 493.5 24813.3 92.5 24870.3 92.5 24870.3 493.5 24892.3 493.5 24892.3 92.5 24911.3 92.5 24911.3 493.5 24970.3 493.5 24970.3 92.5 25026.3 92.5 25026.3 493.5 25048.3 493.5 25048.3 92.5 25067.3 92.5 25067.3 493.5 25126.3 493.5 25126.3 92.5 25183.3 92.5 25183.3 493.5 25205.3 493.5 25205.3 92.5 25224.3 92.5 25224.3 493.5 25283.3 493.5 25283.3 92.5 25302.3 92.5 25302.3 493.5 25361.3 493.5 25361.3 92.5 25380.3 92.5 25380.3 493.5 25439.3 493.5 25439.3 92.5 25458.3 92.5 25458.3 493.5 25517.3 493.5 25517.3 92.5 25536.3 92.5 25536.3 493.5 25595.3 493.5 25595.3 92.5 25614.3 92.5 25614.3 493.5 25673.3 493.5 25673.3 92.5 25692.3 92.5 25692.3 493.5 25751.3 493.5 25751.3 92.5 25770.3 92.5 25770.3 493.5 25829.3 493.5 25829.3 92.5 25848.3 92.5 25848.3 493.5 25907.3 493.5 25907.3 92.5 25964.4 92.5 25964.4 493.5 25985.4 493.5 25985.4 92.5 26005.4 92.5 26005.4 493.5 26585.4 493.5 26585.4 92.5 26642.4 92.5 26642.4 493.5 26663.4 493.5 26663.4 92.5 26721.4 92.5 26721.4 493.5 26742.4 493.5 26742.4 92.5 26799.4 92.5 26799.4 493.5 26821.4 493.5 26821.4 92.5 26840.4 92.5 26840.4 493.5 26899.4 493.5 26899.4 92.5 26918.4 92.5 26918.4 493.5 26977.4 493.5 26977.4 92.5 26996.4 92.5 26996.4 493.5 27055.4 493.5 27055.4 92.5 27112.4 92.5 27112.4 493.5 27133.4 493.5 27133.4 92.5 27152.4 92.5 27152.4 493.5 27211.4 493.5 27211.4 92.5 27231.4 92.5 27231.4 493.5 27290.4 493.5 27290.4 92.5 27346.4 92.5 27346.4 493.5 27368.4 493.5 27368.4 92.5 27387.4 92.5 27387.4 493.5 27446.4 493.5 27446.4 92.5 27503.4 92.5 27503.4 493.5 27525.4 493.5 27525.4 92.5 27544.4 92.5 27544.4 493.5 27603.4 493.5 27603.4 92.5 27659.4 92.5 27659.4 493.5 27681.4 493.5 27681.4 92.5 27700.4 92.5 27700.4 493.5 27759.4 493.5 27759.4 92.5 27778.4 92.5 27778.4 493.5 27837.4 493.5 27837.4 92.5 27856.4 92.5 27856.4 493.5 27915.4 493.5 27915.4 92.5 27934.4 92.5 27934.4 493.5 27993.4 493.5 27993.4 92.5 28012.4 92.5 28012.4 493.5 28071.4 493.5 28071.4 92.5 28091.4 92.5 28091.4 493.5 28149.4 493.5 28149.4 92.5 28168.4 92.5 28168.4 493.5 28227.4 493.5 28227.4 92.5 28246.4 92.5 28246.4 493.5 28305.4 493.5 28305.4 92.5 28324.4 92.5 28324.4 493.5 28383.4 493.5 28383.4 92.5 28440.4 92.5 28440.4 493.5 28462.4 493.5 28462.4 92.5 28481.4 92.5 28481.4 493.5 29061.5 493.5 29061.5 92.5 29119.5 92.5 29119.5 493.5 29140.5 493.5 29140.5 92.5 29197.5 92.5 29197.5 493.5 29218.5 493.5 29218.5 92.5 29276.5 92.5 29276.5 493.5 29297.5 493.5 29297.5 92.5 29317.5 92.5 29317.5 493.5 29375.5 493.5 29375.5 92.5 29395.5 92.5 29395.5 493.5 29453.5 493.5 29453.5 92.5 29473.5 92.5 29473.5 493.5 29531.5 493.5 29531.5 92.5 29588.5 92.5 29588.5 493.5 29610.5 493.5 29610.5 92.5 29629.5 92.5 29629.5 493.5 29688.5 493.5 29688.5 92.5 29707.5 92.5 29707.5 493.5 29766.5 493.5 29766.5 92.5 29823.5 92.5 29823.5 493.5 29845.5 493.5 29845.5 92.5 29864.5 92.5 29864.5 493.5 29923.5 493.5 29923.5 92.5 29980.5 92.5 29980.5 493.5 30002.5 493.5 30002.5 92.5 30020.5 92.5 30020.5 493.5 30080.5 493.5 30080.5 92.5 30136.5 92.5 30136.5 493.5 30159.5 493.5 30159.5 92.5 30177.5 92.5 30177.5 493.5 30236.5 493.5 30236.5 92.5 30255.5 92.5 30255.5 493.5 30314.5 493.5 30314.5 92.5 30333.5 92.5 30333.5 493.5 30392.5 493.5 30392.5 92.5 30411.5 92.5 30411.5 493.5 30470.5 493.5 30470.5 92.5 30489.5 92.5 30489.5 493.5 30548.5 493.5 30548.5 92.5 30567.5 92.5 30567.5 493.5 30626.5 493.5 30626.5 92.5 30645.5 92.5 30645.5 493.5 30704.5 493.5 30704.5 92.5 30723.5 92.5 30723.5 493.5 30782.5 493.5 30782.5 92.5 30801.5 92.5 30801.5 493.5 30860.5 493.5 30860.5 92.5 30917.5 92.5 30917.5 493.5 30939.5 493.5 30939.5 92.5 30958.5 92.5 30958.5 493.5 31538.5 493.5 31538.5 92.5 31596.5 92.5 31596.5 493.5 31617.5 493.5 31617.5 92.5 31674.5 92.5 31674.5 493.5 31696.5 493.5 31696.5 92.5 31753.5 92.5 31753.5 493.5 31774.5 493.5 31774.5 92.5 31793.5 92.5 31793.5 493.5 31852.5 493.5 31852.5 92.5 31871.5 92.5 31871.5 493.5 31930.5 493.5 31930.5 92.5 31949.5 92.5 31949.5 493.5 32008.5 493.5 32008.5 92.5 32065.6 92.5 32065.6 493.5 32087.6 493.5 32087.6 92.5 32105.6 92.5 32105.6 493.5 32165.6 493.5 32165.6 92.5 32184.6 92.5 32184.6 493.5 32243.6 493.5 32243.6 92.5 32300.6 92.5 32300.6 493.5 32322.6 493.5 32322.6 92.5 32341.6 92.5 32341.6 493.5 32400.6 493.5 32400.6 92.5 32457.6 92.5 32457.6 493.5 32479.6 493.5 32479.6 92.5 32497.6 92.5 32497.6 493.5 32556.6 493.5 32556.6 92.5 32613.6 92.5 32613.6 493.5 32635.6 493.5 32635.6 92.5 32654.6 92.5 32654.6 493.5 32713.6 493.5 32713.6 92.5 32732.6 92.5 32732.6 493.5 32791.6 493.5 32791.6 92.5 32810.6 92.5 32810.6 493.5 32869.6 493.5 32869.6 92.5 32888.6 92.5 32888.6 493.5 32947.6 493.5 32947.6 92.5 32966.6 92.5 32966.6 493.5 33025.6 493.5 33025.6 92.5 33044.6 92.5 33044.6 493.5 33103.6 493.5 33103.6 92.5 33122.6 92.5 33122.6 493.5 33181.6 493.5 33181.6 92.5 33200.6 92.5 33200.6 493.5 33259.6 493.5 33259.6 92.5 33278.6 92.5 33278.6 493.5 33337.6 493.5 33337.6 92.5 33393.6 92.5 33393.6 493.5 33416.6 493.5 33416.6 92.5 33434.6 92.5 33434.6 493.5 34015.6 493.5 34015.6 92.5 34073.6 92.5 34073.6 493.5 34094.6 493.5 34094.6 92.5 34151.6 92.5 34151.6 493.5 34173.6 493.5 34173.6 92.5 34230.6 92.5 34230.6 493.5 34251.6 493.5 34251.6 92.5 34270.6 92.5 34270.6 493.5 34329.6 493.5 34329.6 92.5 34348.6 92.5 34348.6 493.5 34407.6 493.5 34407.6 92.5 34426.6 92.5 34426.6 493.5 34485.6 493.5 34485.6 92.5 34542.6 92.5 34542.6 493.5 34564.6 493.5 34564.6 92.5 34583.6 92.5 34583.6 493.5 34642.6 493.5 34642.6 92.5 34661.6 92.5 34661.6 493.5 34720.6 493.5 34720.6 92.5 34777.6 92.5 34777.6 493.5 34799.6 493.5 34799.6 92.5 34817.6 92.5 34817.6 493.5 34877.6 493.5 34877.6 92.5 34933.6 92.5 34933.6 493.5 34955.6 493.5 34955.6 92.5 34974.6 92.5 34974.6 493.5 35033.6 493.5 35033.6 92.5 35090.7 92.5 35090.7 493.5 35112.7 493.5 35112.7 92.5 35130.7 92.5 35130.7 493.5 35190.7 493.5 35190.7 92.5 35208.7 92.5 35208.7 493.5 35268.7 493.5 35268.7 92.5 35287.7 92.5 35287.7 493.5 35346.7 493.5 35346.7 92.5 35365.7 92.5 35365.7 493.5 35424.7 493.5 35424.7 92.5 35443.7 92.5 35443.7 493.5 35502.7 493.5 35502.7 92.5 35521.7 92.5 35521.7 493.5 35580.7 493.5 35580.7 92.5 35599.7 92.5 35599.7 493.5 35658.7 493.5 35658.7 92.5 35677.7 92.5 35677.7 493.5 35736.7 493.5 35736.7 92.5 35754.7 92.5 35754.7 493.5 35814.7 493.5 35814.7 92.5 35871.7 92.5 35871.7 493.5 35892.7 493.5 35892.7 92.5 35911.7 92.5 35911.7 493.5 36492.7 493.5 36492.7 92.5 36549.7 92.5 36549.7 493.5 36571.7 493.5 36571.7 92.5 36628.7 92.5 36628.7 493.5 36649.7 493.5 36649.7 92.5 36706.7 92.5 36706.7 493.5 36728.7 493.5 36728.7 92.5 36747.7 92.5 36747.7 493.5 36806.7 493.5 36806.7 92.5 36825.7 92.5 36825.7 493.5 36883.7 493.5 36883.7 92.5 36903.7 92.5 36903.7 493.5 36962.7 493.5 36962.7 92.5 37019.7 92.5 37019.7 493.5 37040.7 493.5 37040.7 92.5 37058.7 92.5 37058.7 493.5 37119.7 493.5 37119.7 92.5 37138.7 92.5 37138.7 493.5 37196.7 493.5 37196.7 92.5 37253.7 92.5 37253.7 493.5 37275.7 493.5 37275.7 92.5 37294.7 92.5 37294.7 493.5 37353.7 493.5 37353.7 92.5 37410.7 92.5 37410.7 493.5 37432.7 493.5 37432.7 92.5 37450.7 92.5 37450.7 493.5 37510.7 493.5 37510.7 92.5 37566.7 92.5 37566.7 493.5 37588.7 493.5 37588.7 92.5 37607.7 92.5 37607.7 493.5 37666.7 493.5 37666.7 92.5 37684.7 92.5 37684.7 493.5 37744.7 493.5 37744.7 92.5 37763.7 92.5 37763.7 493.5 37822.7 493.5 37822.7 92.5 37841.7 92.5 37841.7 493.5 37900.7 493.5 37900.7 92.5 37919.7 92.5 37919.7 493.5 37978.7 493.5 37978.7 92.5 37997.7 92.5 37997.7 493.5 38056.8 493.5 38056.8 92.5 38075.8 92.5 38075.8 493.5 38134.8 493.5 38134.8 92.5 38153.8 92.5 38153.8 493.5 38212.8 493.5 38212.8 92.5 38231.8 92.5 38231.8 493.5 38290.8 493.5 38290.8 92.5 38347.8 92.5 38347.8 493.5 38369.8 493.5 38369.8 92.5 38388.8 92.5 38388.8 493.5 38969.8 493.5 38969.8 92.5 39026.8 92.5 39026.8 493.5 39047.8 493.5 39047.8 92.5 39104.8 92.5 39104.8 493.5 39126.8 493.5 39126.8 92.5 39182.8 92.5 39182.8 493.5 39204.8 493.5 39204.8 92.5 39223.8 92.5 39223.8 493.5 39282.8 493.5 39282.8 92.5 39301.8 92.5 39301.8 493.5 39360.8 493.5 39360.8 92.5 39379.8 92.5 39379.8 493.5 39438.8 493.5 39438.8 92.5 39495.8 92.5 39495.8 493.5 39516.8 493.5 39516.8 92.5 39535.8 92.5 39535.8 493.5 39595.8 493.5 39595.8 92.5 39614.8 92.5 39614.8 493.5 39672.8 493.5 39672.8 92.5 39729.8 92.5 39729.8 493.5 39751.8 493.5 39751.8 92.5 39770.8 92.5 39770.8 493.5 39829.8 493.5 39829.8 92.5 39886.8 92.5 39886.8 493.5 39908.8 493.5 39908.8 92.5 39926.8 92.5 39926.8 493.5 39986.8 493.5 39986.8 92.5 40042.8 92.5 40042.8 493.5 40064.8 493.5 40064.8 92.5 40083.8 92.5 40083.8 493.5 40143.8 493.5 40143.8 92.5 40161.8 92.5 40161.8 493.5 40220.8 493.5 40220.8 92.5 40239.8 92.5 40239.8 493.5 40298.8 493.5 40298.8 92.5 40317.8 92.5 40317.8 493.5 40376.8 493.5 40376.8 92.5 40395.8 92.5 40395.8 493.5 40454.8 493.5 40454.8 92.5 40473.8 92.5 40473.8 493.5 40532.8 493.5 40532.8 92.5 40551.8 92.5 40551.8 493.5 40610.8 493.5 40610.8 92.5 40629.8 92.5 40629.8 493.5 40688.8 493.5 40688.8 92.5 40707.8 92.5 40707.8 493.5 40766.8 493.5 40766.8 92.5 40823.8 92.5 40823.8 493.5 40844.8 493.5 40844.8 92.5 40863.8 92.5 40863.8 493.5 41444.9 493.5 41444.9 92.5 41502.9 92.5 41502.9 493.5 41522.9 493.5 41522.9 92.5 41579.9 92.5 41579.9 493.5 41601.9 493.5 41601.9 92.5 41657.9 92.5 41657.9 493.5 41680.9 493.5 41680.9 92.5 41699.9 92.5 41699.9 493.5 41757.9 493.5 41757.9 92.5 41777.9 92.5 41777.9 493.5 41835.9 493.5 41835.9 92.5 41855.9 92.5 41855.9 493.5 41913.9 493.5 41913.9 92.5 41970.9 92.5 41970.9 493.5 41992.9 493.5 41992.9 92.5 42011.9 92.5 42011.9 493.5 42070.9 493.5 42070.9 92.5 42089.9 92.5 42089.9 493.5 42148.9 493.5 42148.9 92.5 42205.9 92.5 42205.9 493.5 42227.9 493.5 42227.9 92.5 42246.9 92.5 42246.9 493.5 42305.9 493.5 42305.9 92.5 42361.9 92.5 42361.9 493.5 42383.9 493.5 42383.9 92.5 42402.9 92.5 42402.9 493.5 42461.9 493.5 42461.9 92.5 42518.9 92.5 42518.9 493.5 42540.9 493.5 42540.9 92.5 42558.9 92.5 42558.9 493.5 42618.9 493.5 42618.9 92.5 42637.9 92.5 42637.9 493.5 42696.9 493.5 42696.9 92.5 42715.9 92.5 42715.9 493.5 42774.9 493.5 42774.9 92.5 42792.9 92.5 42792.9 493.5 42852.9 493.5 42852.9 92.5 42870.9 92.5 42870.9 493.5 42930.9 493.5 42930.9 92.5 42948.9 92.5 42948.9 493.5 43007.9 493.5 43007.9 92.5 43026.9 92.5 43026.9 493.5 43085.9 493.5 43085.9 92.5 43104.9 92.5 43104.9 493.5 43163.9 493.5 43163.9 92.5 43182.9 92.5 43182.9 493.5 43241.9 493.5 43241.9 92.5 43298.9 92.5 43298.9 493.5 43320.9 493.5 43320.9 92.5 43339.9 92.5 43339.9 493.5 43919.9 493.5 43919.9 92.5 43977.9 92.5 43977.9 493.5 43998.9 493.5 43998.9 92.5 44055.9 92.5 44055.9 493.5 44076.9 493.5 44076.9 92.5 44133.9 92.5 44133.9 493.5 44155.9 493.5 44155.9 92.5 44174.9 92.5 44174.9 493.5 44233.9 493.5 44233.9 92.5 44253 92.5 44253 493.5 44312 493.5 44312 92.5 44331 92.5 44331 493.5 44390 493.5 44390 92.5 44447 92.5 44447 493.5 44468 493.5 44468 92.5 44487 92.5 44487 493.5 44547 493.5 44547 92.5 44566 92.5 44566 493.5 44625 493.5 44625 92.5 44681 92.5 44681 493.5 44703 493.5 44703 92.5 44722 92.5 44722 493.5 44781 493.5 44781 92.5 44838 92.5 44838 493.5 44860 493.5 44860 92.5 44878 92.5 44878 493.5 44938 493.5 44938 92.5 44994 92.5 44994 493.5 45016 493.5 45016 92.5 45035 92.5 45035 493.5 45094 493.5 45094 92.5 45113 92.5 45113 493.5 45172 493.5 45172 92.5 45191 92.5 45191 493.5 45250 493.5 45250 92.5 45269 92.5 45269 493.5 45329 493.5 45329 92.5 45347 92.5 45347 493.5 45406 493.5 45406 92.5 45425 92.5 45425 493.5 45484 493.5 45484 92.5 45503 92.5 45503 493.5 45562 493.5 45562 92.5 45581 92.5 45581 493.5 45640 493.5 45640 92.5 45659 92.5 45659 493.5 45718 493.5 45718 92.5 45775 92.5 45775 493.5 45796 493.5 45796 92.5 45815 92.5 45815 493.5 46396 493.5 46396 92.5 46453 92.5 46453 493.5 46474 493.5 46474 92.5 46531 92.5 46531 493.5 46553 493.5 46553 92.5 46610 92.5 46610 493.5 46632 493.5 46632 92.5 46650 92.5 46650 493.5 46709 493.5 46709 92.5 46729 92.5 46729 493.5 46787 493.5 46787 92.5 46806 92.5 46806 493.5 46865 493.5 46865 92.5 46922 92.5 46922 493.5 46944 493.5 46944 92.5 46963 92.5 46963 493.5 47022 493.5 47022 92.5 47041 92.5 47041 493.5 47100 493.5 47100 92.5 47157 92.5 47157 493.5 47178 493.5 47178 92.5 47197.1 92.5 47197.1 493.5 47256.1 493.5 47256.1 92.5 47313.1 92.5 47313.1 493.5 47335.1 493.5 47335.1 92.5 47354.1 92.5 47354.1 493.5 47413.1 493.5 47413.1 92.5 47469.1 92.5 47469.1 493.5 47491.1 493.5 47491.1 92.5 47510.1 92.5 47510.1 493.5 47569.1 493.5 47569.1 92.5 47588.1 92.5 47588.1 493.5 47648.1 493.5 47648.1 92.5 47666.1 92.5 47666.1 493.5 47726.1 493.5 47726.1 92.5 47744.1 92.5 47744.1 493.5 47803.1 493.5 47803.1 92.5 47822.1 92.5 47822.1 493.5 47881.1 493.5 47881.1 92.5 47900.1 92.5 47900.1 493.5 47959.1 493.5 47959.1 92.5 47978.1 92.5 47978.1 493.5 48037.1 493.5 48037.1 92.5 48056.1 92.5 48056.1 493.5 48115.1 493.5 48115.1 92.5 48134.1 92.5 48134.1 493.5 48193.1 493.5 48193.1 92.5 48250.5 92.5 48250.5 493.5" stroke="#156082" stroke-width="3.4375" stroke-linecap="round" stroke-linejoin="round" stroke-miterlimit="10" fill="none"/></g><g><text fill="#0E2841" font-family="Aptos Narrow,Aptos Narrow_MSFontService,sans-serif" font-weight="400" font-stretch="semi-condensed" font-size="41" transform="matrix(1 0 0 1 1181.74 505)">0</text></g><g><text fill="#0E2841" font-family="Aptos Narrow,Aptos Narrow_MSFontService,sans-serif" font-weight="400" font-stretch="semi-condensed" font-size="41" transform="matrix(1 0 0 1 1181.74 104)">1</text></g><g><text fill="#0E2841" font-family="Aptos Narrow,Aptos Narrow_MSFontService,sans-serif" font-weight="400" font-stretch="semi-condensed" font-size="41" transform="matrix(1 0 0 1 1230.28 559)">0</text></g><g><text fill="#0E2841" font-family="Aptos Narrow,Aptos Narrow_MSFontService,sans-serif" font-weight="400" font-stretch="semi-condensed" font-size="41" transform="matrix(1 0 0 1 1662.8 559)">10000</text></g><g><text fill="#0E2841" font-family="Aptos Narrow,Aptos Narrow_MSFontService,sans-serif" font-weight="400" font-stretch="semi-condensed" font-size="41" transform="matrix(1 0 0 1 2137.12 559)">20000</text></g><g><text fill="#0E2841" font-family="Aptos Narrow,Aptos Narrow_MSFontService,sans-serif" font-weight="400" font-stretch="semi-condensed" font-size="41" transform="matrix(1 0 0 1 2611.45 559)">30000</text></g><g><text fill="#0E2841" font-family="Aptos Narrow,Aptos Narrow_MSFontService,sans-serif" font-weight="400" font-stretch="semi-condensed" font-size="41" transform="matrix(1 0 0 1 3085.77 559)">40000</text></g><g><text fill="#0E2841" font-family="Aptos Narrow,Aptos Narrow_MSFontService,sans-serif" font-weight="400" font-stretch="semi-condensed" font-size="41" transform="matrix(1 0 0 1 3560.09 559)">50000</text></g><g><text fill="#0E2841" font-family="Aptos Narrow,Aptos Narrow_MSFontService,sans-serif" font-weight="400" font-stretch="semi-condensed" font-size="41" transform="matrix(1 0 0 1 4034.42 559)">60000</text></g><g><text fill="#0E2841" font-family="Aptos Narrow,Aptos Narrow_MSFontService,sans-serif" font-weight="700" font-stretch="semi-condensed" font-size="41" transform="matrix(1 0 0 1 2690.75 623)">Time (</text></g><g><text fill="#0E2841" font-family="Aptos Narrow,Aptos Narrow_MSFontService,sans-serif" font-weight="700" font-stretch="semi-condensed" font-size="41" transform="matrix(1 0 0 1 2793.9 623)">μ</text></g><g><text fill="#0E2841" font-family="Aptos Narrow,Aptos Narrow_MSFontService,sans-serif" font-weight="700" font-stretch="semi-condensed" font-size="41" transform="matrix(1 0 0 1 2815.69 623)">s) </text></g><rect x="1152.5" y="42.5001" width="3248" height="649" stroke="#CADFF4" stroke-width="3.4375" stroke-linejoin="round" stroke-miterlimit="10" fill="none"/></g></svg>