<svg width="3248" height="650" xmlns="http://www.w3.org/2000/svg" xmlns:xlink="http://www.w3.org/1999/xlink" xml:space="preserve" overflow="hidden"><defs><clipPath id="clip0"><rect x="1171" y="107" width="3248" height="650"/></clipPath><clipPath id="clip1"><rect x="1259" y="157" width="3060" height="405"/></clipPath></defs><g clip-path="url(#clip0)" transform="translate(-1171 -107)"><rect x="1171" y="107" width="3248" height="650" fill="#FFFFFF"/><g clip-path="url(#clip1)"><path d="M928.5 559.5 928.5 157.5 947.531 157.5 947.531 559.5 1006.53 559.5 1006.53 157.5 1025.53 157.5 1025.53 559.5 1084.54 559.5 1084.54 157.5 1103.54 157.5 1103.54 559.5 1162.54 559.5 1162.54 157.5 1219.54 157.5 1219.54 559.5 1240.54 559.5 1240.54 157.5 1259.54 157.5 1259.54 559.5 1840.56 559.5 1840.56 157.5 1897.56 157.5 1897.56 559.5 1918.56 559.5 1918.56 157.5 1976.56 157.5 1976.56 559.5 1997.57 559.5 1997.57 157.5 2054.57 157.5 2054.57 559.5 2076.57 559.5 2076.57 157.5 2095.57 157.5 2095.57 559.5 2154.57 559.5 2154.57 157.5 2173.57 157.5 2173.57 559.5 2232.57 559.5 2232.57 157.5 2251.57 157.5 2251.57 559.5 2310.58 559.5 2310.58 157.5 2367.58 157.5 2367.58 559.5 2388.58 559.5 2388.58 157.5 2407.58 157.5 2407.58 559.5 2466.58 559.5 2466.58 157.5 2485.58 157.5 2485.58 559.5 2544.58 559.5 2544.58 157.5 2601.59 157.5 2601.59 559.5 2623.59 559.5 2623.59 157.5 2642.59 157.5 2642.59 559.5 2701.59 559.5 2701.59 157.5 2758.59 157.5 2758.59 559.5 2779.59 559.5 2779.59 157.5 2798.59 157.5 2798.59 559.5 2858.59 559.5 2858.59 157.5 2914.6 157.5 2914.6 559.5 2936.6 559.5 2936.6 157.5 2954.6 157.5 2954.6 559.5 3014.6 559.5 3014.6 157.5 3033.6 157.5 3033.6 559.5 3092.6 559.5 3092.6 157.5 3111.6 157.5 3111.6 559.5 3170.6 559.5 3170.6 157.5 3189.6 157.5 3189.6 559.5 3248.61 559.5 3248.61 157.5 3267.61 157.5 3267.61 559.5 3326.61 559.5 3326.61 157.5 3345.61 157.5 3345.61 559.5 3404.61 559.5 3404.61 157.5 3423.61 157.5 3423.61 559.5 3482.61 559.5 3482.61 157.5 3501.61 157.5 3501.61 559.5 3560.62 559.5 3560.62 157.5 3579.62 157.5 3579.62 559.5 3638.62 559.5 3638.62 157.5 3695.62 157.5 3695.62 559.5 3716.62 559.5 3716.62 157.5 3735.62 157.5 3735.62 559.5 4316.64 559.5 4316.64 157.5 4373.64 157.5 4373.64 559.5 4394.64 559.5 4394.64 157.5 4451.65 157.5 4451.65 559.5 4473.65 559.5 4473.65 157.5 4530.65 157.5 4530.65 559.5 4552.65 559.5 4552.65 157.5 4571.65 157.5 4571.65 559.5 4630.65 559.5 4630.65 157.5 4649.65 157.5 4649.65 559.5 4707.65 559.5 4707.65 157.5 4727.66 157.5 4727.66 559.5 4786.66 559.5 4786.66 157.5 4843.66 157.5 4843.66 559.5 4864.66 559.5 4864.66 157.5 4883.66 157.5 4883.66 559.5 4943.66 559.5 4943.66 157.5 4962.66 157.5 4962.66 559.5 5020.66 559.5 5020.66 157.5 5077.67 157.5 5077.67 559.5 5099.67 559.5 5099.67 157.5 5118.67 157.5 5118.67 559.5 5177.67 559.5 5177.67 157.5 5234.67 157.5 5234.67 559.5 5256.67 559.5 5256.67 157.5 5274.67 157.5 5274.67 559.5 5334.68 559.5 5334.68 157.5 5390.68 157.5 5390.68 559.5 5412.68 559.5 5412.68 157.5 5431.68 157.5 5431.68 559.5 5490.68 559.5 5490.68 157.5 5508.68 157.5 5508.68 559.5 5568.68 559.5 5568.68 157.5 5587.68 157.5 5587.68 559.5 5646.69 559.5 5646.69 157.5 5665.69 157.5 5665.69 559.5 5724.69 559.5 5724.69 157.5 5743.69 157.5 5743.69 559.5 5802.69 559.5 5802.69 157.5 5821.69 157.5 5821.69 559.5 5880.69 559.5 5880.69 157.5 5899.69 157.5 5899.69 559.5 5958.7 559.5 5958.7 157.5 5977.7 157.5 5977.7 559.5 6036.7 559.5 6036.7 157.5 6055.7 157.5 6055.7 559.5 6114.7 559.5 6114.7 157.5 6171.7 157.5 6171.7 559.5 6193.7 559.5 6193.7 157.5 6212.7 157.5 6212.7 559.5 6792.72 559.5 6792.72 157.5 6850.73 157.5 6850.73 559.5 6871.73 559.5 6871.73 157.5 6927.73 157.5 6927.73 559.5 6949.73 559.5 6949.73 157.5 7007.73 157.5 7007.73 559.5 7028.73 559.5 7028.73 157.5 7047.73 157.5 7047.73 559.5 7106.73 559.5 7106.73 157.5 7125.73 157.5 7125.73 559.5 7184.74 559.5 7184.74 157.5 7203.74 157.5 7203.74 559.5 7262.74 559.5 7262.74 157.5 7319.74 157.5 7319.74 559.5 7341.74 559.5 7341.74 157.5 7360.74 157.5 7360.74 559.5 7419.74 559.5 7419.74 157.5 7438.74 157.5 7438.74 559.5 7497.75 559.5 7497.75 157.5 7554.75 157.5 7554.75 559.5 7575.75 559.5 7575.75 157.5 7594.75 157.5 7594.75 559.5 7653.75 559.5 7653.75 157.5 7710.75 157.5 7710.75 559.5 7732.75 559.5 7732.75 157.5 7751.75 157.5 7751.75 559.5 7810.76 559.5 7810.76 157.5 7866.76 157.5 7866.76 559.5 7889.76 559.5 7889.76 157.5 7907.76 157.5 7907.76 559.5 7967.76 559.5 7967.76 157.5 7986.76 157.5 7986.76 559.5 8045.76 559.5 8045.76 157.5 8064.76 157.5 8064.76 559.5 8123.77 559.5 8123.77 157.5 8142.77 157.5 8142.77 559.5 8201.77 559.5 8201.77 157.5 8220.77 157.5 8220.77 559.5 8279.77 559.5 8279.77 157.5 8298.77 157.5 8298.77 559.5 8357.77 559.5 8357.77 157.5 8376.77 157.5 8376.77 559.5 8435.78 559.5 8435.78 157.5 8454.78 157.5 8454.78 559.5 8513.78 559.5 8513.78 157.5 8532.78 157.5 8532.78 559.5 8591.78 559.5 8591.78 157.5 8648.78 157.5 8648.78 559.5 8669.78 559.5 8669.78 157.5 8688.78 157.5 8688.78 559.5 9269.8 559.5 9269.8 157.5 9326.81 157.5 9326.81 559.5 9347.81 559.5 9347.81 157.5 9405.81 157.5 9405.81 559.5 9426.81 559.5 9426.81 157.5 9483.81 157.5 9483.81 559.5 9505.81 559.5 9505.81 157.5 9524.81 157.5 9524.81 559.5 9583.81 559.5 9583.81 157.5 9602.82 157.5 9602.82 559.5 9661.82 559.5 9661.82 157.5 9680.82 157.5 9680.82 559.5 9739.82 559.5 9739.82 157.5 9796.82 157.5 9796.82 559.5 9817.82 559.5 9817.82 157.5 9836.82 157.5 9836.82 559.5 9896.82 559.5 9896.82 157.5 9915.83 157.5 9915.83 559.5 9974.83 559.5 9974.83 157.5 10031.8 157.5 10031.8 559.5 10052.8 559.5 10052.8 157.5 10071.8 157.5 10071.8 559.5 10130.8 559.5 10130.8 157.5 10187.8 157.5 10187.8 559.5 10209.8 559.5 10209.8 157.5 10228.8 157.5 10228.8 559.5 10287.8 559.5 10287.8 157.5 10344.8 157.5 10344.8 559.5 10366.8 559.5 10366.8 157.5 10384.8 157.5 10384.8 559.5 10444.8 559.5 10444.8 157.5 10462.8 157.5 10462.8 559.5 10522.8 559.5 10522.8 157.5 10540.8 157.5 10540.8 559.5 10600.8 559.5 10600.8 157.5 10619.8 157.5 10619.8 559.5 10678.9 559.5 10678.9 157.5 10697.9 157.5 10697.9 559.5 10756.9 559.5 10756.9 157.5 10775.9 157.5 10775.9 559.5 10834.9 559.5 10834.9 157.5 10853.9 157.5 10853.9 559.5 10912.9 559.5 10912.9 157.5 10931.9 157.5 10931.9 559.5 10989.9 559.5 10989.9 157.5 11009.9 157.5 11009.9 559.5 11068.9 559.5 11068.9 157.5 11125.9 157.5 11125.9 559.5 11146.9 559.5 11146.9 157.5 11166.9 157.5 11166.9 559.5 11746.9 559.5 11746.9 157.5 11803.9 157.5 11803.9 559.5 11825.9 559.5 11825.9 157.5 11882.9 157.5 11882.9 559.5 11903.9 559.5 11903.9 157.5 11961.9 157.5 11961.9 559.5 11982.9 559.5 11982.9 157.5 12001.9 157.5 12001.9 559.5 12060.9 559.5 12060.9 157.5 12079.9 157.5 12079.9 559.5 12138.9 559.5 12138.9 157.5 12157.9 157.5 12157.9 559.5 12216.9 559.5 12216.9 157.5 12272.9 157.5 12272.9 559.5 12294.9 559.5 12294.9 157.5 12314.9 157.5 12314.9 559.5 12373.9 559.5 12373.9 157.5 12392.9 157.5 12392.9 559.5 12451.9 559.5 12451.9 157.5 12508.9 157.5 12508.9 559.5 12530.9 559.5 12530.9 157.5 12548.9 157.5 12548.9 559.5 12607.9 559.5 12607.9 157.5 12664.9 157.5 12664.9 559.5 12686.9 559.5 12686.9 157.5 12705.9 157.5 12705.9 559.5 12764.9 559.5 12764.9 157.5 12821.9 157.5 12821.9 559.5 12843.9 559.5 12843.9 157.5 12861.9 157.5 12861.9 559.5 12921.9 559.5 12921.9 157.5 12939.9 157.5 12939.9 559.5 12999.9 559.5 12999.9 157.5 13018.9 157.5 13018.9 559.5 13077.9 559.5 13077.9 157.5 13096.9 157.5 13096.9 559.5 13155.9 559.5 13155.9 157.5 13174.9 157.5 13174.9 559.5 13233.9 559.5 13233.9 157.5 13252.9 157.5 13252.9 559.5 13311.9 559.5 13311.9 157.5 13329.9 157.5 13329.9 559.5 13388.9 559.5 13388.9 157.5 13408.9 157.5 13408.9 559.5 13467.9 559.5 13467.9 157.5 13486.9 157.5 13486.9 559.5 13545.9 559.5 13545.9 157.5 13602.9 157.5 13602.9 559.5 13623.9 559.5 13623.9 157.5 13642.9 157.5 13642.9 559.5 14224 559.5 14224 157.5 14282 157.5 14282 559.5 14303 559.5 14303 157.5 14360 157.5 14360 559.5 14381 559.5 14381 157.5 14439 157.5 14439 559.5 14460 559.5 14460 157.5 14479 157.5 14479 559.5 14538 559.5 14538 157.5 14557 157.5 14557 559.5 14616 559.5 14616 157.5 14635 157.5 14635 559.5 14694 559.5 14694 157.5 14751 157.5 14751 559.5 14772 559.5 14772 157.5 14792 157.5 14792 559.5 14851 559.5 14851 157.5 14870 157.5 14870 559.5 14929 559.5 14929 157.5 14986 157.5 14986 559.5 15007 559.5 15007 157.5 15026 157.5 15026 559.5 15085 559.5 15085 157.5 15142 157.5 15142 559.5 15164 559.5 15164 157.5 15183 157.5 15183 559.5 15242 559.5 15242 157.5 15299 157.5 15299 559.5 15321 559.5 15321 157.5 15339 157.5 15339 559.5 15399 559.5 15399 157.5 15417 157.5 15417 559.5 15477 559.5 15477 157.5 15496 157.5 15496 559.5 15555 559.5 15555 157.5 15574 157.5 15574 559.5 15633 559.5 15633 157.5 15652 157.5 15652 559.5 15711 559.5 15711 157.5 15730 157.5 15730 559.5 15789 559.5 15789 157.5 15808 157.5 15808 559.5 15867 559.5 15867 157.5 15886 157.5 15886 559.5 15945 559.5 15945 157.5 15963 157.5 15963 559.5 16023 559.5 16023 157.5 16079 157.5 16079 559.5 16101 559.5 16101 157.5 16120 157.5 16120 559.5 16701 559.5 16701 157.5 16758 157.5 16758 559.5 16779.1 559.5 16779.1 157.5 16836.1 157.5 16836.1 559.5 16858.1 559.5 16858.1 157.5 16915.1 157.5 16915.1 559.5 16936.1 559.5 16936.1 157.5 16956.1 157.5 16956.1 559.5 17014.1 559.5 17014.1 157.5 17034.1 157.5 17034.1 559.5 17092.1 559.5 17092.1 157.5 17112.1 157.5 17112.1 559.5 17170.1 559.5 17170.1 157.5 17228.1 157.5 17228.1 559.5 17249.1 559.5 17249.1 157.5 17268.1 157.5 17268.1 559.5 17327.1 559.5 17327.1 157.5 17346.1 157.5 17346.1 559.5 17405.1 559.5 17405.1 157.5 17462.1 157.5 17462.1 559.5 17484.1 559.5 17484.1 157.5 17503.1 157.5 17503.1 559.5 17562.1 559.5 17562.1 157.5 17618.1 157.5 17618.1 559.5 17640.1 559.5 17640.1 157.5 17659.1 157.5 17659.1 559.5 17718.1 559.5 17718.1 157.5 17775.1 157.5 17775.1 559.5 17797.1 559.5 17797.1 157.5 17815.1 157.5 17815.1 559.5 17875.1 559.5 17875.1 157.5 17893.1 157.5 17893.1 559.5 17953.1 559.5 17953.1 157.5 17972.1 157.5 17972.1 559.5 18031.1 559.5 18031.1 157.5 18049.1 157.5 18049.1 559.5 18109.1 559.5 18109.1 157.5 18127.1 157.5 18127.1 559.5 18187.1 559.5 18187.1 157.5 18206.1 157.5 18206.1 559.5 18265.1 559.5 18265.1 157.5 18283.1 157.5 18283.1 559.5 18343.1 559.5 18343.1 157.5 18361.1 157.5 18361.1 559.5 18420.1 559.5 18420.1 157.5 18439.1 157.5 18439.1 559.5 18498.1 559.5 18498.1 157.5 18555.1 157.5 18555.1 559.5 18577.1 559.5 18577.1 157.5 18596.1 157.5 18596.1 559.5 19176.1 559.5 19176.1 157.5 19233.1 157.5 19233.1 559.5 19255.1 559.5 19255.1 157.5 19312.1 157.5 19312.1 559.5 19333.1 559.5 19333.1 157.5 19390.1 157.5 19390.1 559.5 19412.1 559.5 19412.1 157.5 19431.1 157.5 19431.1 559.5 19490.1 559.5 19490.1 157.5 19509.1 157.5 19509.1 559.5 19568.1 559.5 19568.1 157.5 19587.1 157.5 19587.1 559.5 19646.1 559.5 19646.1 157.5 19702.1 157.5 19702.1 559.5 19724.1 559.5 19724.1 157.5 19743.1 157.5 19743.1 559.5 19802.2 559.5 19802.2 157.5 19821.2 157.5 19821.2 559.5 19880.2 559.5 19880.2 157.5 19937.2 157.5 19937.2 559.5 19958.2 559.5 19958.2 157.5 19978.2 157.5 19978.2 559.5 20037.2 559.5 20037.2 157.5 20093.2 157.5 20093.2 559.5 20115.2 559.5 20115.2 157.5 20134.2 157.5 20134.2 559.5 20193.2 559.5 20193.2 157.5 20250.2 157.5 20250.2 559.5 20272.2 559.5 20272.2 157.5 20290.2 157.5 20290.2 559.5 20350.2 559.5 20350.2 157.5 20368.2 157.5 20368.2 559.5 20428.2 559.5 20428.2 157.5 20447.2 157.5 20447.2 559.5 20506.2 559.5 20506.2 157.5 20525.2 157.5 20525.2 559.5 20584.2 559.5 20584.2 157.5 20603.2 157.5 20603.2 559.5 20662.2 559.5 20662.2 157.5 20681.2 157.5 20681.2 559.5 20740.2 559.5 20740.2 157.5 20759.2 157.5 20759.2 559.5 20817.2 559.5 20817.2 157.5 20837.2 157.5 20837.2 559.5 20895.2 559.5 20895.2 157.5 20915.2 157.5 20915.2 559.5 20974.2 559.5 20974.2 157.5 21030.2 157.5 21030.2 559.5 21052.2 559.5 21052.2 157.5 21071.2 157.5 21071.2 559.5 21652.2 559.5 21652.2 157.5 21709.2 157.5 21709.2 559.5 21730.2 559.5 21730.2 157.5 21787.2 157.5 21787.2 559.5 21809.2 559.5 21809.2 157.5 21866.2 157.5 21866.2 559.5 21887.2 559.5 21887.2 157.5 21906.2 157.5 21906.2 559.5 21965.2 559.5 21965.2 157.5 21984.2 157.5 21984.2 559.5 22043.2 559.5 22043.2 157.5 22062.2 157.5 22062.2 559.5 22121.2 559.5 22121.2 157.5 22177.2 157.5 22177.2 559.5 22200.2 559.5 22200.2 157.5 22219.2 157.5 22219.2 559.5 22278.2 559.5 22278.2 157.5 22297.2 157.5 22297.2 559.5 22356.2 559.5 22356.2 157.5 22412.2 157.5 22412.2 559.5 22435.2 559.5 22435.2 157.5 22454.2 157.5 22454.2 559.5 22513.2 559.5 22513.2 157.5 22569.2 157.5 22569.2 559.5 22591.2 559.5 22591.2 157.5 22610.2 157.5 22610.2 559.5 22669.2 559.5 22669.2 157.5 22726.2 157.5 22726.2 559.5 22748.2 559.5 22748.2 157.5 22766.2 157.5 22766.2 559.5 22826.2 559.5 22826.2 157.5 22844.2 157.5 22844.2 559.5 22904.2 559.5 22904.2 157.5 22923.3 157.5 22923.3 559.5 22982.3 559.5 22982.3 157.5 23001.3 157.5 23001.3 559.5 23060.3 559.5 23060.3 157.5 23079.3 157.5 23079.3 559.5 23137.3 559.5 23137.3 157.5 23157.3 157.5 23157.3 559.5 23216.3 559.5 23216.3 157.5 23235.3 157.5 23235.3 559.5 23294.3 559.5 23294.3 157.5 23313.3 157.5 23313.3 559.5 23372.3 559.5 23372.3 157.5 23391.3 157.5 23391.3 559.5 23450.3 559.5 23450.3 157.5 23506.3 157.5 23506.3 559.5 23528.3 559.5 23528.3 157.5 23547.3 157.5 23547.3 559.5 24128.3 559.5 24128.3 157.5 24185.3 157.5 24185.3 559.5 24206.3 559.5 24206.3 157.5 24263.3 157.5 24263.3 559.5 24285.3 559.5 24285.3 157.5 24342.3 157.5 24342.3 559.5 24363.3 559.5 24363.3 157.5 24383.3 157.5 24383.3 559.5 24441.3 559.5 24441.3 157.5 24461.3 157.5 24461.3 559.5 24519.3 559.5 24519.3 157.5 24539.3 157.5 24539.3 559.5 24597.3 559.5 24597.3 157.5 24654.3 157.5 24654.3 559.5 24676.3 559.5 24676.3 157.5 24695.3 157.5 24695.3 559.5 24754.3 559.5 24754.3 157.5 24773.3 157.5 24773.3 559.5 24832.3 559.5 24832.3 157.5 24889.3 157.5 24889.3 559.5 24911.3 559.5 24911.3 157.5 24930.3 157.5 24930.3 559.5 24989.3 559.5 24989.3 157.5 25046.3 157.5 25046.3 559.5 25067.3 559.5 25067.3 157.5 25086.3 157.5 25086.3 559.5 25145.3 559.5 25145.3 157.5 25202.3 157.5 25202.3 559.5 25224.3 559.5 25224.3 157.5 25243.3 157.5 25243.3 559.5 25302.3 559.5 25302.3 157.5 25321.3 157.5 25321.3 559.5 25380.3 559.5 25380.3 157.5 25399.3 157.5 25399.3 559.5 25458.3 559.5 25458.3 157.5 25477.3 157.5 25477.3 559.5 25536.3 559.5 25536.3 157.5 25555.3 157.5 25555.3 559.5 25614.3 559.5 25614.3 157.5 25633.3 157.5 25633.3 559.5 25692.3 559.5 25692.3 157.5 25711.3 157.5 25711.3 559.5 25770.3 559.5 25770.3 157.5 25789.3 157.5 25789.3 559.5 25848.3 559.5 25848.3 157.5 25867.3 157.5 25867.3 559.5 25926.3 559.5 25926.3 157.5 25983.4 157.5 25983.4 559.5 26004.4 559.5 26004.4 157.5 26024.4 157.5 26024.4 559.5 26604.4 559.5 26604.4 157.5 26661.4 157.5 26661.4 559.5 26683.4 559.5 26683.4 157.5 26740.4 157.5 26740.4 559.5 26761.4 559.5 26761.4 157.5 26818.4 157.5 26818.4 559.5 26840.4 559.5 26840.4 157.5 26859.4 157.5 26859.4 559.5 26918.4 559.5 26918.4 157.5 26937.4 157.5 26937.4 559.5 26996.4 559.5 26996.4 157.5 27015.4 157.5 27015.4 559.5 27074.4 559.5 27074.4 157.5 27131.4 157.5 27131.4 559.5 27152.4 559.5 27152.4 157.5 27171.4 157.5 27171.4 559.5 27231.4 559.5 27231.4 157.5 27250.4 157.5 27250.4 559.5 27309.4 559.5 27309.4 157.5 27365.4 157.5 27365.4 559.5 27387.4 559.5 27387.4 157.5 27406.4 157.5 27406.4 559.5 27465.4 559.5 27465.4 157.5 27522.4 157.5 27522.4 559.5 27544.4 559.5 27544.4 157.5 27563.4 157.5 27563.4 559.5 27622.4 559.5 27622.4 157.5 27678.4 157.5 27678.4 559.5 27700.4 559.5 27700.4 157.5 27719.4 157.5 27719.4 559.5 27778.4 559.5 27778.4 157.5 27797.4 157.5 27797.4 559.5 27857.4 559.5 27857.4 157.5 27875.4 157.5 27875.4 559.5 27934.4 559.5 27934.4 157.5 27953.4 157.5 27953.4 559.5 28012.4 559.5 28012.4 157.5 28031.4 157.5 28031.4 559.5 28090.4 559.5 28090.4 157.5 28110.4 157.5 28110.4 559.5 28168.4 559.5 28168.4 157.5 28187.4 157.5 28187.4 559.5 28246.4 559.5 28246.4 157.5 28266.4 157.5 28266.4 559.5 28324.4 559.5 28324.4 157.5 28344.4 157.5 28344.4 559.5 28402.4 559.5 28402.4 157.5 28459.4 157.5 28459.4 559.5 28481.4 559.5 28481.4 157.5 28500.4 157.5 28500.4 559.5 29080.5 559.5 29080.5 157.5 29138.5 157.5 29138.5 559.5 29159.5 559.5 29159.5 157.5 29216.5 157.5 29216.5 559.5 29238.5 559.5 29238.5 157.5 29295.5 157.5 29295.5 559.5 29316.5 559.5 29316.5 157.5 29336.5 157.5 29336.5 559.5 29394.5 559.5 29394.5 157.5 29414.5 157.5 29414.5 559.5 29472.5 559.5 29472.5 157.5 29492.5 157.5 29492.5 559.5 29550.5 559.5 29550.5 157.5 29607.5 157.5 29607.5 559.5 29629.5 559.5 29629.5 157.5 29649.5 157.5 29649.5 559.5 29707.5 559.5 29707.5 157.5 29727.5 157.5 29727.5 559.5 29785.5 559.5 29785.5 157.5 29842.5 157.5 29842.5 559.5 29864.5 559.5 29864.5 157.5 29883.5 157.5 29883.5 559.5 29942.5 559.5 29942.5 157.5 29999.5 157.5 29999.5 559.5 30021.5 559.5 30021.5 157.5 30039.5 157.5 30039.5 559.5 30099.5 559.5 30099.5 157.5 30155.5 157.5 30155.5 559.5 30178.5 559.5 30178.5 157.5 30196.5 157.5 30196.5 559.5 30255.5 559.5 30255.5 157.5 30274.5 157.5 30274.5 559.5 30333.5 559.5 30333.5 157.5 30352.5 157.5 30352.5 559.5 30411.5 559.5 30411.5 157.5 30430.5 157.5 30430.5 559.5 30489.5 559.5 30489.5 157.5 30508.5 157.5 30508.5 559.5 30567.5 559.5 30567.5 157.5 30586.5 157.5 30586.5 559.5 30645.5 559.5 30645.5 157.5 30664.5 157.5 30664.5 559.5 30723.5 559.5 30723.5 157.5 30742.5 157.5 30742.5 559.5 30801.5 559.5 30801.5 157.5 30820.5 157.5 30820.5 559.5 30879.5 559.5 30879.5 157.5 30936.5 157.5 30936.5 559.5 30958.5 559.5 30958.5 157.5 30977.5 157.5 30977.5 559.5 31557.5 559.5 31557.5 157.5 31615.5 157.5 31615.5 559.5 31636.5 559.5 31636.5 157.5 31693.5 157.5 31693.5 559.5 31715.5 559.5 31715.5 157.5 31772.5 157.5 31772.5 559.5 31793.5 559.5 31793.5 157.5 31813.5 157.5 31813.5 559.5 31871.5 559.5 31871.5 157.5 31891.5 157.5 31891.5 559.5 31949.5 559.5 31949.5 157.5 31969.6 157.5 31969.6 559.5 32027.5 559.5 32027.5 157.5 32084.6 157.5 32084.6 559.5 32106.6 559.5 32106.6 157.5 32124.6 157.5 32124.6 559.5 32184.6 559.5 32184.6 157.5 32203.6 157.5 32203.6 559.5 32262.6 559.5 32262.6 157.5 32319.6 157.5 32319.6 559.5 32341.6 559.5 32341.6 157.5 32360.6 157.5 32360.6 559.5 32419.6 559.5 32419.6 157.5 32476.6 157.5 32476.6 559.5 32498.6 559.5 32498.6 157.5 32516.6 157.5 32516.6 559.5 32575.6 559.5 32575.6 157.5 32632.6 157.5 32632.6 559.5 32654.6 559.5 32654.6 157.5 32673.6 157.5 32673.6 559.5 32732.6 559.5 32732.6 157.5 32751.6 157.5 32751.6 559.5 32810.6 559.5 32810.6 157.5 32829.6 157.5 32829.6 559.5 32888.6 559.5 32888.6 157.5 32907.6 157.5 32907.6 559.5 32966.6 559.5 32966.6 157.5 32985.6 157.5 32985.6 559.5 33044.6 559.5 33044.6 157.5 33063.6 157.5 33063.6 559.5 33122.6 559.5 33122.6 157.5 33141.6 157.5 33141.6 559.5 33200.6 559.5 33200.6 157.5 33219.6 157.5 33219.6 559.5 33278.6 559.5 33278.6 157.5 33297.6 157.5 33297.6 559.5 33356.6 559.5 33356.6 157.5 33412.6 157.5 33412.6 559.5 33435.6 559.5 33435.6 157.5 33453.6 157.5 33453.6 559.5 34034.6 559.5 34034.6 157.5 34092.6 157.5 34092.6 559.5 34113.6 559.5 34113.6 157.5 34170.6 157.5 34170.6 559.5 34192.6 559.5 34192.6 157.5 34249.6 157.5 34249.6 559.5 34270.6 559.5 34270.6 157.5 34289.6 157.5 34289.6 559.5 34348.6 559.5 34348.6 157.5 34367.6 157.5 34367.6 559.5 34426.6 559.5 34426.6 157.5 34445.6 157.5 34445.6 559.5 34504.6 559.5 34504.6 157.5 34561.6 157.5 34561.6 559.5 34583.6 559.5 34583.6 157.5 34602.6 157.5 34602.6 559.5 34661.6 559.5 34661.6 157.5 34680.6 157.5 34680.6 559.5 34739.6 559.5 34739.6 157.5 34796.6 157.5 34796.6 559.5 34818.6 559.5 34818.6 157.5 34837.6 157.5 34837.6 559.5 34896.6 559.5 34896.6 157.5 34952.6 157.5 34952.6 559.5 34974.6 559.5 34974.6 157.5 34993.6 157.5 34993.6 559.5 35052.7 559.5 35052.7 157.5 35109.7 157.5 35109.7 559.5 35131.7 559.5 35131.7 157.5 35149.7 157.5 35149.7 559.5 35209.7 559.5 35209.7 157.5 35227.7 157.5 35227.7 559.5 35287.7 559.5 35287.7 157.5 35306.7 157.5 35306.7 559.5 35365.7 559.5 35365.7 157.5 35384.7 157.5 35384.7 559.5 35443.7 559.5 35443.7 157.5 35462.7 157.5 35462.7 559.5 35521.7 559.5 35521.7 157.5 35540.7 157.5 35540.7 559.5 35599.7 559.5 35599.7 157.5 35618.7 157.5 35618.7 559.5 35677.7 559.5 35677.7 157.5 35696.7 157.5 35696.7 559.5 35755.7 559.5 35755.7 157.5 35773.7 157.5 35773.7 559.5 35833.7 559.5 35833.7 157.5 35890.7 157.5 35890.7 559.5 35911.7 559.5 35911.7 157.5 35930.7 157.5 35930.7 559.5 36511.7 559.5 36511.7 157.5 36568.7 157.5 36568.7 559.5 36590.7 559.5 36590.7 157.5 36647.7 157.5 36647.7 559.5 36668.7 559.5 36668.7 157.5 36725.7 157.5 36725.7 559.5 36747.7 559.5 36747.7 157.5 36766.7 157.5 36766.7 559.5 36825.7 559.5 36825.7 157.5 36844.7 157.5 36844.7 559.5 36903.7 559.5 36903.7 157.5 36922.7 157.5 36922.7 559.5 36981.7 559.5 36981.7 157.5 37038.7 157.5 37038.7 559.5 37059.7 559.5 37059.7 157.5 37077.7 157.5 37077.7 559.5 37138.7 559.5 37138.7 157.5 37157.7 157.5 37157.7 559.5 37216.7 559.5 37216.7 157.5 37272.7 157.5 37272.7 559.5 37294.7 559.5 37294.7 157.5 37313.7 157.5 37313.7 559.5 37372.7 559.5 37372.7 157.5 37429.7 157.5 37429.7 559.5 37451.7 559.5 37451.7 157.5 37470.7 157.5 37470.7 559.5 37529.7 559.5 37529.7 157.5 37585.7 157.5 37585.7 559.5 37607.7 559.5 37607.7 157.5 37626.7 157.5 37626.7 559.5 37685.7 559.5 37685.7 157.5 37703.7 157.5 37703.7 559.5 37763.7 559.5 37763.7 157.5 37782.7 157.5 37782.7 559.5 37841.7 559.5 37841.7 157.5 37860.7 157.5 37860.7 559.5 37919.7 559.5 37919.7 157.5 37938.7 157.5 37938.7 559.5 37997.7 559.5 37997.7 157.5 38016.7 157.5 38016.7 559.5 38075.8 559.5 38075.8 157.5 38094.8 157.5 38094.8 559.5 38153.8 559.5 38153.8 157.5 38172.8 157.5 38172.8 559.5 38231.8 559.5 38231.8 157.5 38250.8 157.5 38250.8 559.5 38309.8 559.5 38309.8 157.5 38366.8 157.5 38366.8 559.5 38388.8 559.5 38388.8 157.5 38407.8 157.5 38407.8 559.5 38988.8 559.5 38988.8 157.5 39045.8 157.5 39045.8 559.5 39066.8 559.5 39066.8 157.5 39123.8 157.5 39123.8 559.5 39145.8 559.5 39145.8 157.5 39201.8 157.5 39201.8 559.5 39223.8 559.5 39223.8 157.5 39242.8 157.5 39242.8 559.5 39301.8 559.5 39301.8 157.5 39320.8 157.5 39320.8 559.5 39379.8 559.5 39379.8 157.5 39398.8 157.5 39398.8 559.5 39457.8 559.5 39457.8 157.5 39514.8 157.5 39514.8 559.5 39535.8 559.5 39535.8 157.5 39554.8 157.5 39554.8 559.5 39614.8 559.5 39614.8 157.5 39633.8 157.5 39633.8 559.5 39691.8 559.5 39691.8 157.5 39748.8 157.5 39748.8 559.5 39770.8 559.5 39770.8 157.5 39789.8 157.5 39789.8 559.5 39848.8 559.5 39848.8 157.5 39905.8 157.5 39905.8 559.5 39927.8 559.5 39927.8 157.5 39945.8 157.5 39945.8 559.5 40005.8 559.5 40005.8 157.5 40061.8 157.5 40061.8 559.5 40083.8 559.5 40083.8 157.5 40102.8 157.5 40102.8 559.5 40162.8 559.5 40162.8 157.5 40180.8 157.5 40180.8 559.5 40239.8 559.5 40239.8 157.5 40258.8 157.5 40258.8 559.5 40317.8 559.5 40317.8 157.5 40336.8 157.5 40336.8 559.5 40395.8 559.5 40395.8 157.5 40414.8 157.5 40414.8 559.5 40473.8 559.5 40473.8 157.5 40492.8 157.5 40492.8 559.5 40551.8 559.5 40551.8 157.5 40570.8 157.5 40570.8 559.5 40629.8 559.5 40629.8 157.5 40648.8 157.5 40648.8 559.5 40707.8 559.5 40707.8 157.5 40726.8 157.5 40726.8 559.5 40785.8 559.5 40785.8 157.5 40842.8 157.5 40842.8 559.5 40863.8 559.5 40863.8 157.5 40882.8 157.5 40882.8 559.5 41463.9 559.5 41463.9 157.5 41521.9 157.5 41521.9 559.5 41541.9 559.5 41541.9 157.5 41598.9 157.5 41598.9 559.5 41620.9 559.5 41620.9 157.5 41676.9 157.5 41676.9 559.5 41699.9 559.5 41699.9 157.5 41718.9 157.5 41718.9 559.5 41777.9 559.5 41777.9 157.5 41796.9 157.5 41796.9 559.5 41855.9 559.5 41855.9 157.5 41874.9 157.5 41874.9 559.5 41933.9 559.5 41933.9 157.5 41989.9 157.5 41989.9 559.5 42011.9 559.5 42011.9 157.5 42030.9 157.5 42030.9 559.5 42089.9 559.5 42089.9 157.5 42108.9 157.5 42108.9 559.5 42167.9 559.5 42167.9 157.5 42224.9 157.5 42224.9 559.5 42246.9 559.5 42246.9 157.5 42265.9 157.5 42265.9 559.5 42324.9 559.5 42324.9 157.5 42380.9 157.5 42380.9 559.5 42402.9 559.5 42402.9 157.5 42421.9 157.5 42421.9 559.5 42480.9 559.5 42480.9 157.5 42537.9 157.5 42537.9 559.5 42559.9 559.5 42559.9 157.5 42577.9 157.5 42577.9 559.5 42637.9 559.5 42637.9 157.5 42656.9 157.5 42656.9 559.5 42715.9 559.5 42715.9 157.5 42734.9 157.5 42734.9 559.5 42793.9 559.5 42793.9 157.5 42812.9 157.5 42812.9 559.5 42871.9 559.5 42871.9 157.5 42889.9 157.5 42889.9 559.5 42949.9 559.5 42949.9 157.5 42967.9 157.5 42967.9 559.5 43026.9 559.5 43026.9 157.5 43045.9 157.5 43045.9 559.5 43104.9 559.5 43104.9 157.5 43123.9 157.5 43123.9 559.5 43182.9 559.5 43182.9 157.5 43201.9 157.5 43201.9 559.5 43260.9 559.5 43260.9 157.5 43317.9 157.5 43317.9 559.5 43339.9 559.5 43339.9 157.5 43358.9 157.5 43358.9 559.5 43938.9 559.5 43938.9 157.5 43996.9 157.5 43996.9 559.5 44017.9 559.5 44017.9 157.5 44074.9 157.5 44074.9 559.5 44095.9 559.5 44095.9 157.5 44152.9 157.5 44152.9 559.5 44174.9 559.5 44174.9 157.5 44193.9 157.5 44193.9 559.5 44253 559.5 44253 157.5 44272 157.5 44272 559.5 44331 559.5 44331 157.5 44350 157.5 44350 559.5 44409 559.5 44409 157.5 44466 157.5 44466 559.5 44488 559.5 44488 157.5 44506 157.5 44506 559.5 44566 559.5 44566 157.5 44585 157.5 44585 559.5 44644 559.5 44644 157.5 44700 157.5 44700 559.5 44722 559.5 44722 157.5 44741 157.5 44741 559.5 44800 559.5 44800 157.5 44857 157.5 44857 559.5 44879 559.5 44879 157.5 44898 157.5 44898 559.5 44957 559.5 44957 157.5 45013 157.5 45013 559.5 45035 559.5 45035 157.5 45054 157.5 45054 559.5 45113 559.5 45113 157.5 45132 157.5 45132 559.5 45191 559.5 45191 157.5 45210 157.5 45210 559.5 45269 559.5 45269 157.5 45288 157.5 45288 559.5 45348 559.5 45348 157.5 45366 157.5 45366 559.5 45425 559.5 45425 157.5 45444 157.5 45444 559.5 45503 559.5 45503 157.5 45522 157.5 45522 559.5 45581 559.5 45581 157.5 45600 157.5 45600 559.5 45659 559.5 45659 157.5 45678 157.5 45678 559.5 45737 559.5 45737 157.5 45794 157.5 45794 559.5 45815 559.5 45815 157.5 45834 157.5 45834 559.5 46415 559.5 46415 157.5 46472 157.5 46472 559.5 46493 559.5 46493 157.5 46550 157.5 46550 559.5 46572 559.5 46572 157.5 46629 157.5 46629 559.5 46651 559.5 46651 157.5 46669 157.5 46669 559.5 46728 559.5 46728 157.5 46748 157.5 46748 559.5 46806 559.5 46806 157.5 46825 157.5 46825 559.5 46884 559.5 46884 157.5 46941 157.5 46941 559.5 46963 559.5 46963 157.5 46982 157.5 46982 559.5 47041 559.5 47041 157.5 47060 157.5 47060 559.5 47119 559.5 47119 157.5 47176 157.5 47176 559.5 47197.1 559.5 47197.1 157.5 47216.1 157.5 47216.1 559.5 47275.1 559.5 47275.1 157.5 47332.1 157.5 47332.1 559.5 47354.1 559.5 47354.1 157.5 47373.1 157.5 47373.1 559.5 47432.1 559.5 47432.1 157.5 47489.1 157.5 47489.1 559.5 47511.1 559.5 47511.1 157.5 47529.1 157.5 47529.1 559.5 47588.1 559.5 47588.1 157.5 47607.1 157.5 47607.1 559.5 47667.1 559.5 47667.1 157.5 47685.1 157.5 47685.1 559.5 47745.1 559.5 47745.1 157.5 47763.1 157.5 47763.1 559.5 47823.1 559.5 47823.1 157.5 47841.1 157.5 47841.1 559.5 47900.1 559.5 47900.1 157.5 47919.1 157.5 47919.1 559.5 47978.1 559.5 47978.1 157.5 47997.1 157.5 47997.1 559.5 48056.1 559.5 48056.1 157.5 48075.1 157.5 48075.1 559.5 48134.1 559.5 48134.1 157.5 48153.1 157.5 48153.1 559.5 48212.1 559.5 48212.1 157.5 48269.5 157.5 48269.5 559.5" stroke="#156082" stroke-width="3.4375" stroke-linecap="round" stroke-linejoin="round" stroke-miterlimit="10" fill="none"/></g><g><text fill="#0E2841" font-family="Aptos Narrow,Aptos Narrow_MSFontService,sans-serif" font-weight="400" font-stretch="semi-condensed" font-size="41" transform="matrix(1 0 0 1 1200.8 571)">0</text></g><g><text fill="#0E2841" font-family="Aptos Narrow,Aptos Narrow_MSFontService,sans-serif" font-weight="400" font-stretch="semi-condensed" font-size="41" transform="matrix(1 0 0 1 1200.8 169)">1</text></g><g><text fill="#0E2841" font-family="Aptos Narrow,Aptos Narrow_MSFontService,sans-serif" font-weight="400" font-stretch="semi-condensed" font-size="41" transform="matrix(1 0 0 1 1249.33 624)">0</text></g><g><text fill="#0E2841" font-family="Aptos Narrow,Aptos Narrow_MSFontService,sans-serif" font-weight="400" font-stretch="semi-condensed" font-size="41" transform="matrix(1 0 0 1 1681.86 624)">10000</text></g><g><text fill="#0E2841" font-family="Aptos Narrow,Aptos Narrow_MSFontService,sans-serif" font-weight="400" font-stretch="semi-condensed" font-size="41" transform="matrix(1 0 0 1 2156.18 624)">20000</text></g><g><text fill="#0E2841" font-family="Aptos Narrow,Aptos Narrow_MSFontService,sans-serif" font-weight="400" font-stretch="semi-condensed" font-size="41" transform="matrix(1 0 0 1 2630.51 624)">30000</text></g><g><text fill="#0E2841" font-family="Aptos Narrow,Aptos Narrow_MSFontService,sans-serif" font-weight="400" font-stretch="semi-condensed" font-size="41" transform="matrix(1 0 0 1 3104.83 624)">40000</text></g><g><text fill="#0E2841" font-family="Aptos Narrow,Aptos Narrow_MSFontService,sans-serif" font-weight="400" font-stretch="semi-condensed" font-size="41" transform="matrix(1 0 0 1 3579.15 624)">50000</text></g><g><text fill="#0E2841" font-family="Aptos Narrow,Aptos Narrow_MSFontService,sans-serif" font-weight="400" font-stretch="semi-condensed" font-size="41" transform="matrix(1 0 0 1 4053.48 624)">60000</text></g><g><text fill="#0E2841" font-family="Aptos Narrow,Aptos Narrow_MSFontService,sans-serif" font-weight="700" font-stretch="semi-condensed" font-size="41" transform="matrix(1 0 0 1 2709.81 688)">Time (</text></g><g><text fill="#0E2841" font-family="Aptos Narrow,Aptos Narrow_MSFontService,sans-serif" font-weight="700" font-stretch="semi-condensed" font-size="41" transform="matrix(1 0 0 1 2812.96 688)">μ</text></g><g><text fill="#0E2841" font-family="Aptos Narrow,Aptos Narrow_MSFontService,sans-serif" font-weight="700" font-stretch="semi-condensed" font-size="41" transform="matrix(1 0 0 1 2834.75 688)">s) </text></g></g></svg>