<svg width="3240" height="652" xmlns="http://www.w3.org/2000/svg" xmlns:xlink="http://www.w3.org/1999/xlink" xml:space="preserve" overflow="hidden"><defs><clipPath id="clip0"><rect x="3649" y="79" width="3240" height="652"/></clipPath><clipPath id="clip1"><rect x="3737" y="129" width="3053" height="407"/></clipPath><clipPath id="clip2"><rect x="3737" y="129" width="3053" height="407"/></clipPath></defs><g clip-path="url(#clip0)" transform="translate(-3649 -79)"><rect x="3649" y="79.0001" width="3240" height="652" fill="#FFFFFF"/><g clip-path="url(#clip1)"><path d="M3737.5 230.5 3737.5 432.5 3757.62 432.5 3757.62 230.5 3777.62 230.5 3777.62 432.5 3796.62 432.5 3796.62 230.5 3816.63 230.5 3816.63 432.5 3836.63 432.5 3836.63 230.5 3856.63 230.5 3856.63 432.5 3876.63 432.5 3876.63 230.5 3895.63 230.5 3895.63 432.5 3915.63 432.5 3915.63 230.5 3935.63 230.5 3935.63 432.5 3955.63 432.5 3955.63 230.5 3974.63 230.5 3974.63 432.5 3994.63 432.5 3994.63 230.5 4014.63 230.5 4014.63 432.5 4034.63 432.5 4034.63 230.5 4053.63 230.5 4053.63 432.5 4073.63 432.5 4073.63 230.5 4093.63 230.5 4093.63 432.5 4113.64 432.5 4113.64 230.5 4133.64 230.5 4133.64 432.5 4152.64 432.5 4152.64 230.5 4172.64 230.5 4172.64 432.5 4192.64 432.5 4192.64 230.5 4212.64 230.5 4212.64 432.5 4231.64 432.5 4231.64 230.5 4251.64 230.5 4251.64 432.5 4271.64 432.5 4271.64 230.5 4291.64 230.5 4291.64 432.5 4310.64 432.5 4310.64 230.5 4330.64 230.5 4330.64 432.5 4350.64 432.5 4350.64 230.5 4370.64 230.5 4370.64 432.5 4390.64 432.5 4390.64 230.5 4409.64 230.5 4409.64 432.5 4429.65 432.5 4429.65 230.5 4449.65 230.5 4449.65 432.5 4469.65 432.5 4469.65 230.5 4488.65 230.5 4488.65 432.5 4508.65 432.5 4508.65 230.5 4528.65 230.5 4528.65 432.5 4548.65 432.5 4548.65 230.5 4567.65 230.5 4567.65 432.5 4587.65 432.5 4587.65 230.5 4607.65 230.5 4607.65 432.5 4627.65 432.5 4627.65 230.5 4647.65 230.5 4647.65 432.5 4666.65 432.5 4666.65 230.5 4686.65 230.5 4686.65 432.5 4706.65 432.5 4706.65 230.5 4726.66 230.5 4726.66 432.5 4745.66 432.5 4745.66 230.5 4765.66 230.5 4765.66 432.5 4785.66 432.5 4785.66 230.5 4805.66 230.5 4805.66 432.5 4824.66 432.5 4824.66 230.5 4844.66 230.5 4844.66 432.5 4864.66 432.5 4864.66 230.5 4884.66 230.5 4884.66 432.5 4904.66 432.5 4904.66 230.5 4923.66 230.5 4923.66 432.5 4943.66 432.5 4943.66 230.5 4963.66 230.5 4963.66 432.5 4983.66 432.5 4983.66 230.5 5002.66 230.5 5002.66 432.5 5022.67 432.5 5022.67 230.5 5042.67 230.5 5042.67 432.5 5062.67 432.5 5062.67 230.5 5081.67 230.5 5081.67 432.5 5101.67 432.5 5101.67 230.5 5121.67 230.5 5121.67 432.5 5141.67 432.5 5141.67 230.5 5161.67 230.5 5161.67 432.5 5180.67 432.5 5180.67 230.5 5200.67 230.5 5200.67 432.5 5220.67 432.5 5220.67 230.5 5240.67 230.5 5240.67 432.5 5259.67 432.5 5259.67 230.5 5279.67 230.5 5279.67 432.5 5299.67 432.5 5299.67 230.5 5319.67 230.5 5319.67 432.5 5338.68 432.5 5338.68 230.5 5358.68 230.5 5358.68 432.5 5378.68 432.5 5378.68 230.5 5398.68 230.5 5398.68 432.5 5418.68 432.5 5418.68 230.5 5437.68 230.5 5437.68 432.5 5457.68 432.5 5457.68 230.5 5477.68 230.5 5477.68 432.5 5497.68 432.5 5497.68 230.5 5516.68 230.5 5516.68 432.5 5536.68 432.5 5536.68 230.5 5556.68 230.5 5556.68 432.5 5576.68 432.5 5576.68 230.5 5596.68 230.5 5596.68 432.5 5615.68 432.5 5615.68 230.5 5635.69 230.5 5635.69 432.5 5655.69 432.5 5655.69 230.5 5675.69 230.5 5675.69 432.5 5694.69 432.5 5694.69 230.5 5714.69 230.5 5714.69 432.5 5734.69 432.5 5734.69 230.5 5754.69 230.5 5754.69 432.5 5773.69 432.5 5773.69 230.5 5793.69 230.5 5793.69 432.5 5813.69 432.5 5813.69 230.5 5833.69 230.5 5833.69 432.5 5853.69 432.5 5853.69 230.5 5872.69 230.5 5872.69 432.5 5892.69 432.5 5892.69 230.5 5912.69 230.5 5912.69 432.5 5932.69 432.5 5932.69 230.5 5951.7 230.5 5951.7 432.5 5971.7 432.5 5971.7 230.5 5991.7 230.5 5991.7 432.5 6011.7 432.5 6011.7 230.5 6030.7 230.5 6030.7 432.5 6050.7 432.5 6050.7 230.5 6070.7 230.5 6070.7 432.5 6090.7 432.5 6090.7 230.5 6110.7 230.5 6110.7 432.5 6129.7 432.5 6129.7 230.5 6149.7 230.5 6149.7 432.5 6169.7 432.5 6169.7 230.5 6189.7 230.5 6189.7 432.5 6208.7 432.5 6208.7 230.5 6228.7 230.5 6228.7 432.5 6248.71 432.5 6248.71 230.5 6268.71 230.5 6268.71 432.5 6287.71 432.5 6287.71 230.5 6307.71 230.5 6307.71 432.5 6327.71 432.5 6327.71 230.5 6347.71 230.5 6347.71 432.5 6367.71 432.5 6367.71 230.5 6386.71 230.5 6386.71 432.5 6406.71 432.5 6406.71 230.5 6426.71 230.5 6426.71 432.5 6446.71 432.5 6446.71 230.5 6465.71 230.5 6465.71 432.5 6485.71 432.5 6485.71 230.5 6505.71 230.5 6505.71 432.5 6525.71 432.5 6525.71 230.5 6544.71 230.5 6544.71 432.5 6564.72 432.5 6564.72 230.5 6584.72 230.5 6584.72 432.5 6604.72 432.5 6604.72 230.5 6624.72 230.5 6624.72 432.5 6643.72 432.5 6643.72 230.5 6663.72 230.5 6663.72 432.5 6683.72 432.5 6683.72 230.5 6703.72 230.5 6703.72 432.5 6722.72 432.5 6722.72 230.5 6742.72 230.5 6742.72 432.5 6762.72 432.5 6762.72 230.5 6782.72 230.5 6782.72 432.5 6802.5 432.5 6802.5 230.5" stroke="#E97132" stroke-width="3.4375" stroke-linecap="round" stroke-linejoin="round" stroke-miterlimit="10" fill="none"/></g><g clip-path="url(#clip2)"><path d="M3407.5 533.5 3407.5 129.5 3426.61 129.5 3426.61 533.5 3484.61 533.5 3484.61 129.5 3503.61 129.5 3503.61 533.5 3562.62 533.5 3562.62 129.5 3581.62 129.5 3581.62 533.5 3640.62 533.5 3640.62 129.5 3697.62 129.5 3697.62 533.5 3718.62 533.5 3718.62 129.5 3737.62 129.5 3737.62 533.5 4316.64 533.5 4316.64 129.5 4374.64 129.5 4374.64 533.5 4395.64 533.5 4395.64 129.5 4452.65 129.5 4452.65 533.5 4473.65 533.5 4473.65 129.5 4530.65 129.5 4530.65 533.5 4552.65 533.5 4552.65 129.5 4571.65 129.5 4571.65 533.5 4629.65 533.5 4629.65 129.5 4648.65 129.5 4648.65 533.5 4707.65 533.5 4707.65 129.5 4726.66 129.5 4726.66 533.5 4785.66 533.5 4785.66 129.5 4842.66 129.5 4842.66 533.5 4863.66 533.5 4863.66 129.5 4882.66 129.5 4882.66 533.5 4941.66 533.5 4941.66 129.5 4960.66 129.5 4960.66 533.5 5019.67 533.5 5019.67 129.5 5076.67 129.5 5076.67 533.5 5097.67 533.5 5097.67 129.5 5116.67 129.5 5116.67 533.5 5175.67 533.5 5175.67 129.5 5232.67 129.5 5232.67 533.5 5254.67 533.5 5254.67 129.5 5272.67 129.5 5272.67 533.5 5332.67 533.5 5332.67 129.5 5388.68 129.5 5388.68 533.5 5410.68 533.5 5410.68 129.5 5428.68 129.5 5428.68 533.5 5488.68 533.5 5488.68 129.5 5506.68 129.5 5506.68 533.5 5565.68 533.5 5565.68 129.5 5584.68 129.5 5584.68 533.5 5643.69 533.5 5643.69 129.5 5662.69 129.5 5662.69 533.5 5721.69 533.5 5721.69 129.5 5740.69 129.5 5740.69 533.5 5798.69 533.5 5798.69 129.5 5818.69 129.5 5818.69 533.5 5876.69 533.5 5876.69 129.5 5895.69 129.5 5895.69 533.5 5954.7 533.5 5954.7 129.5 5973.7 129.5 5973.7 533.5 6032.7 533.5 6032.7 129.5 6051.7 129.5 6051.7 533.5 6110.7 533.5 6110.7 129.5 6167.7 129.5 6167.7 533.5 6188.7 533.5 6188.7 129.5 6207.7 129.5 6207.7 533.5 6786.72 533.5 6786.72 129.5 6843.72 129.5 6843.72 533.5 6864.73 533.5 6864.73 129.5 6921.73 129.5 6921.73 533.5 6943.73 533.5 6943.73 129.5 7000.73 129.5 7000.73 533.5 7021.73 533.5 7021.73 129.5 7040.73 129.5 7040.73 533.5 7099.73 533.5 7099.73 129.5 7118.73 129.5 7118.73 533.5 7177.74 533.5 7177.74 129.5 7196.74 129.5 7196.74 533.5 7255.74 533.5 7255.74 129.5 7311.74 129.5 7311.74 533.5 7333.74 533.5 7333.74 129.5 7352.74 129.5 7352.74 533.5 7411.74 533.5 7411.74 129.5 7430.74 129.5 7430.74 533.5 7489.75 533.5 7489.75 129.5 7546.75 129.5 7546.75 533.5 7567.75 533.5 7567.75 129.5 7586.75 129.5 7586.75 533.5 7645.75 533.5 7645.75 129.5 7702.75 129.5 7702.75 533.5 7724.75 533.5 7724.75 129.5 7742.75 129.5 7742.75 533.5 7802.76 533.5 7802.76 129.5 7857.76 129.5 7857.76 533.5 7880.76 533.5 7880.76 129.5 7898.76 129.5 7898.76 533.5 7957.76 533.5 7957.76 129.5 7975.76 129.5 7975.76 533.5 8035.76 533.5 8035.76 129.5 8054.76 129.5 8054.76 533.5 8113.77 533.5 8113.77 129.5 8132.77 129.5 8132.77 533.5 8191.77 533.5 8191.77 129.5 8210.77 129.5 8210.77 533.5 8269.77 533.5 8269.77 129.5 8288.77 129.5 8288.77 533.5 8346.77 533.5 8346.77 129.5 8366.77 129.5 8366.77 533.5 8424.78 533.5 8424.78 129.5 8443.78 129.5 8443.78 533.5 8502.78 533.5 8502.78 129.5 8521.78 129.5 8521.78 533.5 8580.78 533.5 8580.78 129.5 8637.78 129.5 8637.78 533.5 8658.78 533.5 8658.78 129.5 8677.79 129.5 8677.79 533.5 9256.8 533.5 9256.8 129.5 9314.81 129.5 9314.81 533.5 9335.81 533.5 9335.81 129.5 9391.81 129.5 9391.81 533.5 9413.81 533.5 9413.81 129.5 9470.81 129.5 9470.81 533.5 9491.81 533.5 9491.81 129.5 9511.81 129.5 9511.81 533.5 9569.81 533.5 9569.81 129.5 9588.81 129.5 9588.81 533.5 9647.82 533.5 9647.82 129.5 9666.82 129.5 9666.82 533.5 9725.82 533.5 9725.82 129.5 9782.82 129.5 9782.82 533.5 9803.82 533.5 9803.82 129.5 9822.82 129.5 9822.82 533.5 9881.82 533.5 9881.82 129.5 9900.82 129.5 9900.82 533.5 9959.83 533.5 9959.83 129.5 10016.8 129.5 10016.8 533.5 10037.8 533.5 10037.8 129.5 10057.8 129.5 10057.8 533.5 10115.8 533.5 10115.8 129.5 10172.8 129.5 10172.8 533.5 10194.8 533.5 10194.8 129.5 10213.8 129.5 10213.8 533.5 10272.8 533.5 10272.8 129.5 10328.8 129.5 10328.8 533.5 10350.8 533.5 10350.8 129.5 10368.8 129.5 10368.8 533.5 10428.8 533.5 10428.8 129.5 10447.8 129.5 10447.8 533.5 10506.8 533.5 10506.8 129.5 10525.8 129.5 10525.8 533.5 10584.8 533.5 10584.8 129.5 10603.8 129.5 10603.8 533.5 10661.8 533.5 10661.8 129.5 10680.8 129.5 10680.8 533.5 10739.9 533.5 10739.9 129.5 10759.9 129.5 10759.9 533.5 10817.9 533.5 10817.9 129.5 10836.9 129.5 10836.9 533.5 10895.9 533.5 10895.9 129.5 10914.9 129.5 10914.9 533.5 10973.9 533.5 10973.9 129.5 10992.9 129.5 10992.9 533.5 11050.9 533.5 11050.9 129.5 11107.9 129.5 11107.9 533.5 11129.9 533.5 11129.9 129.5 11148.9 129.5 11148.9 533.5 11727.9 533.5 11727.9 129.5 11784.9 129.5 11784.9 533.5 11805.9 533.5 11805.9 129.5 11862.9 129.5 11862.9 533.5 11884.9 533.5 11884.9 129.5 11941.9 129.5 11941.9 533.5 11962.9 533.5 11962.9 129.5 11981.9 129.5 11981.9 533.5 12040.9 533.5 12040.9 129.5 12059.9 129.5 12059.9 533.5 12118.9 533.5 12118.9 129.5 12137.9 129.5 12137.9 533.5 12196.9 533.5 12196.9 129.5 12252.9 129.5 12252.9 533.5 12274.9 533.5 12274.9 129.5 12293.9 129.5 12293.9 533.5 12352.9 533.5 12352.9 129.5 12371.9 129.5 12371.9 533.5 12430.9 533.5 12430.9 129.5 12487.9 129.5 12487.9 533.5 12508.9 533.5 12508.9 129.5 12527.9 129.5 12527.9 533.5 12586.9 533.5 12586.9 129.5 12643.9 129.5 12643.9 533.5 12664.9 533.5 12664.9 129.5 12683.9 129.5 12683.9 533.5 12742.9 533.5 12742.9 129.5 12799.9 129.5 12799.9 533.5 12821.9 533.5 12821.9 129.5 12839.9 129.5 12839.9 533.5 12899.9 533.5 12899.9 129.5 12917.9 129.5 12917.9 533.5 12976.9 533.5 12976.9 129.5 12995.9 129.5 12995.9 533.5 13054.9 533.5 13054.9 129.5 13073.9 129.5 13073.9 533.5 13132.9 533.5 13132.9 129.5 13151.9 129.5 13151.9 533.5 13210.9 533.5 13210.9 129.5 13229.9 129.5 13229.9 533.5 13288.9 533.5 13288.9 129.5 13307.9 129.5 13307.9 533.5 13365.9 533.5 13365.9 129.5 13384.9 129.5 13384.9 533.5 13443.9 533.5 13443.9 129.5 13462.9 129.5 13462.9 533.5 13521.9 533.5 13521.9 129.5 13578.9 129.5 13578.9 533.5 13599.9 533.5 13599.9 129.5 13619.9 129.5 13619.9 533.5 14199 533.5 14199 129.5 14256 129.5 14256 533.5 14277 533.5 14277 129.5 14334 129.5 14334 533.5 14356 533.5 14356 129.5 14413 129.5 14413 533.5 14434 533.5 14434 129.5 14453 129.5 14453 533.5 14512 533.5 14512 129.5 14531 129.5 14531 533.5 14590 533.5 14590 129.5 14609 129.5 14609 533.5 14667 533.5 14667 129.5 14724 129.5 14724 533.5 14746 533.5 14746 129.5 14765 129.5 14765 533.5 14824 533.5 14824 129.5 14843 129.5 14843 533.5 14902 533.5 14902 129.5 14959 129.5 14959 533.5 14980 533.5 14980 129.5 14999 129.5 14999 533.5 15058 533.5 15058 129.5 15115 129.5 15115 533.5 15137 533.5 15137 129.5 15155 129.5 15155 533.5 15214 533.5 15214 129.5 15271 129.5 15271 533.5 15293 533.5 15293 129.5 15311 129.5 15311 533.5 15370 533.5 15370 129.5 15389 129.5 15389 533.5 15448 533.5 15448 129.5 15467 129.5 15467 533.5 15526 533.5 15526 129.5 15545 129.5 15545 533.5 15604 533.5 15604 129.5 15623 129.5 15623 533.5 15682 533.5 15682 129.5 15701 129.5 15701 533.5 15760 533.5 15760 129.5 15778 129.5 15778 533.5 15837 533.5 15837 129.5 15856 129.5 15856 533.5 15915 533.5 15915 129.5 15934 129.5 15934 533.5 15993 533.5 15993 129.5 16050 129.5 16050 533.5 16071 533.5 16071 129.5 16090 129.5 16090 533.5 16669 533.5 16669 129.5 16727 129.5 16727 533.5 16748 533.5 16748 129.5 16805.1 129.5 16805.1 533.5 16826.1 533.5 16826.1 129.5 16884.1 129.5 16884.1 533.5 16905.1 533.5 16905.1 129.5 16924.1 129.5 16924.1 533.5 16983.1 533.5 16983.1 129.5 17002.1 129.5 17002.1 533.5 17060.1 533.5 17060.1 129.5 17080.1 129.5 17080.1 533.5 17138.1 533.5 17138.1 129.5 17195.1 129.5 17195.1 533.5 17217.1 533.5 17217.1 129.5 17236.1 129.5 17236.1 533.5 17295.1 533.5 17295.1 129.5 17314.1 129.5 17314.1 533.5 17373.1 533.5 17373.1 129.5 17429.1 129.5 17429.1 533.5 17451.1 533.5 17451.1 129.5 17470.1 129.5 17470.1 533.5 17529.1 533.5 17529.1 129.5 17585.1 129.5 17585.1 533.5 17607.1 533.5 17607.1 129.5 17626.1 129.5 17626.1 533.5 17685.1 533.5 17685.1 129.5 17742.1 129.5 17742.1 533.5 17764.1 533.5 17764.1 129.5 17782.1 129.5 17782.1 533.5 17841.1 533.5 17841.1 129.5 17860.1 129.5 17860.1 533.5 17919.1 533.5 17919.1 129.5 17938.1 129.5 17938.1 533.5 17997.1 533.5 17997.1 129.5 18016.1 129.5 18016.1 533.5 18075.1 533.5 18075.1 129.5 18094.1 129.5 18094.1 533.5 18152.1 533.5 18152.1 129.5 18172.1 129.5 18172.1 533.5 18230.1 533.5 18230.1 129.5 18249.1 129.5 18249.1 533.5 18308.1 533.5 18308.1 129.5 18328.1 129.5 18328.1 533.5 18386.1 533.5 18386.1 129.5 18404.1 129.5 18404.1 533.5 18464.1 533.5 18464.1 129.5 18520.1 129.5 18520.1 533.5 18542.1 533.5 18542.1 129.5 18561.1 129.5 18561.1 533.5 19140.1 533.5 19140.1 129.5 19197.1 129.5 19197.1 533.5 19218.1 533.5 19218.1 129.5 19275.1 129.5 19275.1 533.5 19297.1 533.5 19297.1 129.5 19354.1 129.5 19354.1 533.5 19375.1 533.5 19375.1 129.5 19394.1 129.5 19394.1 533.5 19453.1 533.5 19453.1 129.5 19472.1 129.5 19472.1 533.5 19531.1 533.5 19531.1 129.5 19550.1 129.5 19550.1 533.5 19609.1 533.5 19609.1 129.5 19666.1 129.5 19666.1 533.5 19687.1 533.5 19687.1 129.5 19706.1 129.5 19706.1 533.5 19765.1 533.5 19765.1 129.5 19784.1 129.5 19784.1 533.5 19842.2 533.5 19842.2 129.5 19899.2 129.5 19899.2 533.5 19921.2 533.5 19921.2 129.5 19940.2 129.5 19940.2 533.5 19999.2 533.5 19999.2 129.5 20055.2 129.5 20055.2 533.5 20077.2 533.5 20077.2 129.5 20096.2 129.5 20096.2 533.5 20155.2 533.5 20155.2 129.5 20211.2 129.5 20211.2 533.5 20233.2 533.5 20233.2 129.5 20252.2 129.5 20252.2 533.5 20311.2 533.5 20311.2 129.5 20330.2 129.5 20330.2 533.5 20389.2 533.5 20389.2 129.5 20408.2 129.5 20408.2 533.5 20467.2 533.5 20467.2 129.5 20485.2 129.5 20485.2 533.5 20545.2 533.5 20545.2 129.5 20563.2 129.5 20563.2 533.5 20622.2 533.5 20622.2 129.5 20642.2 129.5 20642.2 533.5 20700.2 533.5 20700.2 129.5 20719.2 129.5 20719.2 533.5 20778.2 533.5 20778.2 129.5 20797.2 129.5 20797.2 533.5 20855.2 533.5 20855.2 129.5 20874.2 129.5 20874.2 533.5 20933.2 533.5 20933.2 129.5 20990.2 129.5 20990.2 533.5 21011.2 533.5 21011.2 129.5 21030.2 129.5 21030.2 533.5 21609.2 533.5 21609.2 129.5 21666.2 129.5 21666.2 533.5 21688.2 533.5 21688.2 129.5 21745.2 129.5 21745.2 533.5 21766.2 533.5 21766.2 129.5 21823.2 129.5 21823.2 533.5 21844.2 533.5 21844.2 129.5 21863.2 129.5 21863.2 533.5 21922.2 533.5 21922.2 129.5 21941.2 129.5 21941.2 533.5 22000.2 533.5 22000.2 129.5 22019.2 129.5 22019.2 533.5 22078.2 533.5 22078.2 129.5 22134.2 129.5 22134.2 533.5 22156.2 533.5 22156.2 129.5 22175.2 129.5 22175.2 533.5 22234.2 533.5 22234.2 129.5 22253.2 129.5 22253.2 533.5 22312.2 533.5 22312.2 129.5 22368.2 129.5 22368.2 533.5 22390.2 533.5 22390.2 129.5 22409.2 129.5 22409.2 533.5 22468.2 533.5 22468.2 129.5 22524.2 129.5 22524.2 533.5 22546.2 533.5 22546.2 129.5 22565.2 129.5 22565.2 533.5 22624.2 533.5 22624.2 129.5 22680.2 129.5 22680.2 533.5 22702.2 533.5 22702.2 129.5 22721.2 129.5 22721.2 533.5 22780.2 533.5 22780.2 129.5 22799.2 129.5 22799.2 533.5 22858.2 533.5 22858.2 129.5 22877.2 129.5 22877.2 533.5 22936.3 533.5 22936.3 129.5 22954.3 129.5 22954.3 533.5 23014.3 533.5 23014.3 129.5 23032.3 129.5 23032.3 533.5 23091.3 533.5 23091.3 129.5 23110.3 129.5 23110.3 533.5 23169.3 533.5 23169.3 129.5 23188.3 129.5 23188.3 533.5 23247.3 533.5 23247.3 129.5 23266.3 129.5 23266.3 533.5 23324.3 533.5 23324.3 129.5 23343.3 129.5 23343.3 533.5 23402.3 533.5 23402.3 129.5 23459.3 129.5 23459.3 533.5 23481.3 533.5 23481.3 129.5 23499.3 129.5 23499.3 533.5 24079.3 533.5 24079.3 129.5 24136.3 129.5 24136.3 533.5 24157.3 533.5 24157.3 129.5 24214.3 129.5 24214.3 533.5 24235.3 533.5 24235.3 129.5 24292.3 129.5 24292.3 533.5 24314.3 533.5 24314.3 129.5 24333.3 129.5 24333.3 533.5 24391.3 533.5 24391.3 129.5 24411.3 129.5 24411.3 533.5 24469.3 533.5 24469.3 129.5 24488.3 129.5 24488.3 533.5 24547.3 533.5 24547.3 129.5 24603.3 129.5 24603.3 533.5 24625.3 533.5 24625.3 129.5 24644.3 129.5 24644.3 533.5 24704.3 533.5 24704.3 129.5 24723.3 129.5 24723.3 533.5 24781.3 533.5 24781.3 129.5 24838.3 129.5 24838.3 533.5 24860.3 533.5 24860.3 129.5 24879.3 129.5 24879.3 533.5 24937.3 533.5 24937.3 129.5 24994.3 129.5 24994.3 533.5 25016.3 533.5 25016.3 129.5 25035.3 129.5 25035.3 533.5 25094.3 533.5 25094.3 129.5 25150.3 129.5 25150.3 533.5 25172.3 533.5 25172.3 129.5 25191.3 129.5 25191.3 533.5 25250.3 533.5 25250.3 129.5 25269.3 129.5 25269.3 533.5 25328.3 533.5 25328.3 129.5 25346.3 129.5 25346.3 533.5 25405.3 533.5 25405.3 129.5 25424.3 129.5 25424.3 533.5 25483.3 533.5 25483.3 129.5 25502.3 129.5 25502.3 533.5 25561.3 533.5 25561.3 129.5 25580.3 129.5 25580.3 533.5 25639.3 533.5 25639.3 129.5 25658.3 129.5 25658.3 533.5 25717.3 533.5 25717.3 129.5 25736.3 129.5 25736.3 533.5 25794.3 533.5 25794.3 129.5 25813.3 129.5 25813.3 533.5 25872.3 533.5 25872.3 129.5 25929.3 129.5 25929.3 533.5 25950.4 533.5 25950.4 129.5 25969.4 129.5 25969.4 533.5 26548.4 533.5 26548.4 129.5 26606.4 129.5 26606.4 533.5 26627.4 533.5 26627.4 129.5 26684.4 129.5 26684.4 533.5 26706.4 533.5 26706.4 129.5 26762.4 129.5 26762.4 533.5 26784.4 533.5 26784.4 129.5 26803.4 129.5 26803.4 533.5 26862.4 533.5 26862.4 129.5 26881.4 129.5 26881.4 533.5 26939.4 533.5 26939.4 129.5 26958.4 129.5 26958.4 533.5 27017.4 533.5 27017.4 129.5 27074.4 129.5 27074.4 533.5 27095.4 533.5 27095.4 129.5 27114.4 129.5 27114.4 533.5 27173.4 533.5 27173.4 129.5 27192.4 129.5 27192.4 533.5 27251.4 533.5 27251.4 129.5 27308.4 129.5 27308.4 533.5 27330.4 533.5 27330.4 129.5 27349.4 129.5 27349.4 533.5 27407.4 533.5 27407.4 129.5 27464.4 129.5 27464.4 533.5 27486.4 533.5 27486.4 129.5 27505.4 129.5 27505.4 533.5 27564.4 533.5 27564.4 129.5 27620.4 129.5 27620.4 533.5 27642.4 533.5 27642.4 129.5 27661.4 129.5 27661.4 533.5 27720.4 533.5 27720.4 129.5 27739.4 129.5 27739.4 533.5 27798.4 533.5 27798.4 129.5 27817.4 129.5 27817.4 533.5 27876.4 533.5 27876.4 129.5 27895.4 129.5 27895.4 533.5 27953.4 533.5 27953.4 129.5 27972.4 129.5 27972.4 533.5 28031.4 533.5 28031.4 129.5 28050.4 129.5 28050.4 533.5 28109.4 533.5 28109.4 129.5 28128.4 129.5 28128.4 533.5 28187.4 533.5 28187.4 129.5 28206.4 129.5 28206.4 533.5 28264.4 533.5 28264.4 129.5 28283.4 129.5 28283.4 533.5 28342.4 533.5 28342.4 129.5 28399.4 129.5 28399.4 533.5 28421.4 533.5 28421.4 129.5 28440.4 129.5 28440.4 533.5 29019.5 533.5 29019.5 129.5 29076.5 129.5 29076.5 533.5 29097.5 533.5 29097.5 129.5 29154.5 129.5 29154.5 533.5 29175.5 533.5 29175.5 129.5 29232.5 129.5 29232.5 533.5 29254.5 533.5 29254.5 129.5 29273.5 129.5 29273.5 533.5 29332.5 533.5 29332.5 129.5 29351.5 129.5 29351.5 533.5 29410.5 533.5 29410.5 129.5 29429.5 129.5 29429.5 533.5 29487.5 533.5 29487.5 129.5 29544.5 129.5 29544.5 533.5 29565.5 533.5 29565.5 129.5 29585.5 129.5 29585.5 533.5 29644.5 533.5 29644.5 129.5 29663.5 129.5 29663.5 533.5 29722.5 533.5 29722.5 129.5 29778.5 129.5 29778.5 533.5 29800.5 533.5 29800.5 129.5 29819.5 129.5 29819.5 533.5 29878.5 533.5 29878.5 129.5 29934.5 129.5 29934.5 533.5 29956.5 533.5 29956.5 129.5 29975.5 129.5 29975.5 533.5 30034.5 533.5 30034.5 129.5 30090.5 129.5 30090.5 533.5 30112.5 533.5 30112.5 129.5 30131.5 129.5 30131.5 533.5 30190.5 533.5 30190.5 129.5 30209.5 129.5 30209.5 533.5 30268.5 533.5 30268.5 129.5 30287.5 129.5 30287.5 533.5 30346.5 533.5 30346.5 129.5 30365.5 129.5 30365.5 533.5 30424.5 533.5 30424.5 129.5 30443.5 129.5 30443.5 533.5 30501.5 533.5 30501.5 129.5 30521.5 129.5 30521.5 533.5 30579.5 533.5 30579.5 129.5 30598.5 129.5 30598.5 533.5 30657.5 533.5 30657.5 129.5 30676.5 129.5 30676.5 533.5 30735.5 533.5 30735.5 129.5 30754.5 129.5 30754.5 533.5 30813.5 533.5 30813.5 129.5 30869.5 129.5 30869.5 533.5 30891.5 533.5 30891.5 129.5 30910.5 129.5 30910.5 533.5 31489.5 533.5 31489.5 129.5 31546.5 129.5 31546.5 533.5 31567.5 533.5 31567.5 129.5 31625.5 129.5 31625.5 533.5 31646.5 533.5 31646.5 129.5 31703.5 129.5 31703.5 533.5 31724.5 533.5 31724.5 129.5 31743.5 129.5 31743.5 533.5 31802.5 533.5 31802.5 129.5 31821.5 129.5 31821.5 533.5 31880.5 533.5 31880.5 129.5 31899.5 129.5 31899.5 533.5 31958.5 533.5 31958.5 129.5 32015.5 129.5 32015.5 533.5 32036.6 533.5 32036.6 129.5 32056.6 129.5 32056.6 533.5 32114.6 533.5 32114.6 129.5 32133.6 129.5 32133.6 533.5 32192.6 533.5 32192.6 129.5 32249.6 129.5 32249.6 533.5 32270.6 533.5 32270.6 129.5 32289.6 129.5 32289.6 533.5 32348.6 533.5 32348.6 129.5 32405.6 129.5 32405.6 533.5 32427.6 533.5 32427.6 129.5 32446.6 129.5 32446.6 533.5 32505.6 533.5 32505.6 129.5 32561.6 129.5 32561.6 533.5 32583.6 533.5 32583.6 129.5 32602.6 129.5 32602.6 533.5 32661.6 533.5 32661.6 129.5 32679.6 129.5 32679.6 533.5 32739.6 533.5 32739.6 129.5 32758.6 129.5 32758.6 533.5 32817.6 533.5 32817.6 129.5 32835.6 129.5 32835.6 533.5 32894.6 533.5 32894.6 129.5 32913.6 129.5 32913.6 533.5 32972.6 533.5 32972.6 129.5 32991.6 129.5 32991.6 533.5 33050.6 533.5 33050.6 129.5 33069.6 129.5 33069.6 533.5 33128.6 533.5 33128.6 129.5 33147.6 129.5 33147.6 533.5 33205.6 533.5 33205.6 129.5 33225.6 129.5 33225.6 533.5 33283.6 533.5 33283.6 129.5 33340.6 129.5 33340.6 533.5 33362.6 533.5 33362.6 129.5 33381.6 129.5 33381.6 533.5 33960.6 533.5 33960.6 129.5 34017.6 129.5 34017.6 533.5 34038.6 533.5 34038.6 129.5 34095.6 129.5 34095.6 533.5 34117.6 533.5 34117.6 129.5 34174.6 129.5 34174.6 533.5 34195.6 533.5 34195.6 129.5 34214.6 129.5 34214.6 533.5 34273.6 533.5 34273.6 129.5 34292.6 129.5 34292.6 533.5 34351.6 533.5 34351.6 129.5 34370.6 129.5 34370.6 533.5 34428.6 533.5 34428.6 129.5 34485.6 129.5 34485.6 533.5 34507.6 533.5 34507.6 129.5 34525.6 129.5 34525.6 533.5 34585.6 533.5 34585.6 129.5 34604.6 129.5 34604.6 533.5 34663.6 533.5 34663.6 129.5 34720.6 129.5 34720.6 533.5 34741.6 533.5 34741.6 129.5 34760.6 129.5 34760.6 533.5 34819.6 533.5 34819.6 129.5 34876.6 129.5 34876.6 533.5 34898.6 533.5 34898.6 129.5 34916.6 129.5 34916.6 533.5 34975.6 533.5 34975.6 129.5 35032.6 129.5 35032.6 533.5 35054.6 533.5 35054.6 129.5 35072.6 129.5 35072.6 533.5 35131.7 533.5 35131.7 129.5 35150.7 129.5 35150.7 533.5 35209.7 533.5 35209.7 129.5 35228.7 129.5 35228.7 533.5 35287.7 533.5 35287.7 129.5 35306.7 129.5 35306.7 533.5 35365.7 533.5 35365.7 129.5 35384.7 129.5 35384.7 533.5 35443.7 533.5 35443.7 129.5 35462.7 129.5 35462.7 533.5 35521.7 533.5 35521.7 129.5 35540.7 129.5 35540.7 533.5 35598.7 533.5 35598.7 129.5 35617.7 129.5 35617.7 533.5 35676.7 533.5 35676.7 129.5 35695.7 129.5 35695.7 533.5 35754.7 533.5 35754.7 129.5 35810.7 129.5 35810.7 533.5 35832.7 533.5 35832.7 129.5 35851.7 129.5 35851.7 533.5 36430.7 533.5 36430.7 129.5 36488.7 129.5 36488.7 533.5 36509.7 533.5 36509.7 129.5 36566.7 129.5 36566.7 533.5 36587.7 533.5 36587.7 129.5 36644.7 129.5 36644.7 533.5 36666.7 533.5 36666.7 129.5 36685.7 129.5 36685.7 533.5 36744.7 533.5 36744.7 129.5 36763.7 129.5 36763.7 533.5 36821.7 533.5 36821.7 129.5 36840.7 129.5 36840.7 533.5 36899.7 533.5 36899.7 129.5 36956.7 129.5 36956.7 533.5 36977.7 533.5 36977.7 129.5 36996.7 129.5 36996.7 533.5 37056.7 533.5 37056.7 129.5 37075.7 129.5 37075.7 533.5 37133.7 533.5 37133.7 129.5 37190.7 129.5 37190.7 533.5 37212.7 533.5 37212.7 129.5 37231.7 129.5 37231.7 533.5 37290.7 533.5 37290.7 129.5 37346.7 129.5 37346.7 533.5 37368.7 533.5 37368.7 129.5 37387.7 129.5 37387.7 533.5 37446.7 533.5 37446.7 129.5 37502.7 129.5 37502.7 533.5 37524.7 533.5 37524.7 129.5 37543.7 129.5 37543.7 533.5 37602.7 533.5 37602.7 129.5 37621.7 129.5 37621.7 533.5 37680.7 533.5 37680.7 129.5 37699.7 129.5 37699.7 533.5 37758.7 533.5 37758.7 129.5 37776.7 129.5 37776.7 533.5 37835.7 533.5 37835.7 129.5 37854.7 129.5 37854.7 533.5 37913.7 533.5 37913.7 129.5 37932.7 129.5 37932.7 533.5 37991.7 533.5 37991.7 129.5 38010.7 129.5 38010.7 533.5 38069.8 533.5 38069.8 129.5 38088.8 129.5 38088.8 533.5 38146.8 533.5 38146.8 129.5 38165.8 129.5 38165.8 533.5 38224.8 533.5 38224.8 129.5 38281.8 129.5 38281.8 533.5 38303.8 533.5 38303.8 129.5 38322.8 129.5 38322.8 533.5 38901.8 533.5 38901.8 129.5 38958.8 129.5 38958.8 533.5 38979.8 533.5 38979.8 129.5 39037.8 129.5 39037.8 533.5 39058.8 533.5 39058.8 129.5 39115.8 129.5 39115.8 533.5 39136.8 533.5 39136.8 129.5 39156.8 129.5 39156.8 533.5 39214.8 533.5 39214.8 129.5 39233.8 129.5 39233.8 533.5 39292.8 533.5 39292.8 129.5 39311.8 129.5 39311.8 533.5 39369.8 533.5 39369.8 129.5 39426.8 129.5 39426.8 533.5 39448.8 533.5 39448.8 129.5 39466.8 129.5 39466.8 533.5 39526.8 533.5 39526.8 129.5 39545.8 129.5 39545.8 533.5 39604.8 533.5 39604.8 129.5 39660.8 129.5 39660.8 533.5 39682.8 533.5 39682.8 129.5 39701.8 129.5 39701.8 533.5 39760.8 533.5 39760.8 129.5 39816.8 129.5 39816.8 533.5 39839.8 533.5 39839.8 129.5 39857.8 129.5 39857.8 533.5 39916.8 533.5 39916.8 129.5 39973.8 129.5 39973.8 533.5 39995.8 533.5 39995.8 129.5 40013.8 129.5 40013.8 533.5 40072.8 533.5 40072.8 129.5 40090.8 129.5 40090.8 533.5 40150.8 533.5 40150.8 129.5 40169.8 129.5 40169.8 533.5 40228.8 533.5 40228.8 129.5 40247.8 129.5 40247.8 533.5 40306.8 533.5 40306.8 129.5 40325.8 129.5 40325.8 533.5 40384.8 533.5 40384.8 129.5 40402.8 129.5 40402.8 533.5 40461.8 533.5 40461.8 129.5 40480.8 129.5 40480.8 533.5 40539.8 533.5 40539.8 129.5 40558.8 129.5 40558.8 533.5 40617.8 533.5 40617.8 129.5 40636.8 129.5 40636.8 533.5 40695.8 533.5 40695.8 129.5 40751.8 129.5 40751.8 533.5 40773.8 533.5 40773.8 129.5 40792.8 129.5 40792.8 533.5 41371.9 533.5 41371.9 129.5 41428.9 129.5 41428.9 533.5 41450.9 533.5 41450.9 129.5 41507.9 129.5 41507.9 533.5 41528.9 533.5 41528.9 129.5 41585.9 129.5 41585.9 533.5 41606.9 533.5 41606.9 129.5 41625.9 129.5 41625.9 533.5 41684.9 533.5 41684.9 129.5 41703.9 129.5 41703.9 533.5 41762.9 533.5 41762.9 129.5 41781.9 129.5 41781.9 533.5 41840.9 533.5 41840.9 129.5 41896.9 129.5 41896.9 533.5 41918.9 533.5 41918.9 129.5 41937.9 129.5 41937.9 533.5 41996.9 533.5 41996.9 129.5 42015.9 129.5 42015.9 533.5 42073.9 533.5 42073.9 129.5 42130.9 129.5 42130.9 533.5 42152.9 533.5 42152.9 129.5 42171.9 129.5 42171.9 533.5 42230.9 533.5 42230.9 129.5 42286.9 129.5 42286.9 533.5 42308.9 533.5 42308.9 129.5 42327.9 129.5 42327.9 533.5 42386.9 533.5 42386.9 129.5 42442.9 129.5 42442.9 533.5 42464.9 533.5 42464.9 129.5 42483.9 129.5 42483.9 533.5 42542.9 533.5 42542.9 129.5 42561.9 129.5 42561.9 533.5 42620.9 533.5 42620.9 129.5 42639.9 129.5 42639.9 533.5 42698.9 533.5 42698.9 129.5 42716.9 129.5 42716.9 533.5 42776.9 533.5 42776.9 129.5 42794.9 129.5 42794.9 533.5 42853.9 533.5 42853.9 129.5 42872.9 129.5 42872.9 533.5 42931.9 533.5 42931.9 129.5 42950.9 129.5 42950.9 533.5 43009.9 533.5 43009.9 129.5 43028.9 129.5 43028.9 533.5 43087.9 533.5 43087.9 129.5 43106.9 129.5 43106.9 533.5 43164.9 533.5 43164.9 129.5 43221.9 129.5 43221.9 533.5 43243.9 533.5 43243.9 129.5 43261.9 129.5 43261.9 533.5 43841.9 533.5 43841.9 129.5 43898.9 129.5 43898.9 533.5 43919.9 533.5 43919.9 129.5 43975.9 129.5 43975.9 533.5 43997.9 533.5 43997.9 129.5 44053.9 129.5 44053.9 533.5 44076.9 533.5 44076.9 129.5 44095.9 129.5 44095.9 533.5 44153.9 533.5 44153.9 129.5 44172.9 129.5 44172.9 533.5 44231.9 533.5 44231.9 129.5 44250.9 129.5 44250.9 533.5 44310 533.5 44310 129.5 44367 129.5 44367 533.5 44388 533.5 44388 129.5 44407 129.5 44407 533.5 44466 533.5 44466 129.5 44485 129.5 44485 533.5 44544 533.5 44544 129.5 44601 129.5 44601 533.5 44622 533.5 44622 129.5 44641 129.5 44641 533.5 44700 533.5 44700 129.5 44757 129.5 44757 533.5 44779 533.5 44779 129.5 44797 129.5 44797 533.5 44856 533.5 44856 129.5 44913 129.5 44913 533.5 44935 533.5 44935 129.5 44953 129.5 44953 533.5 45012 533.5 45012 129.5 45031 129.5 45031 533.5 45090 533.5 45090 129.5 45109 129.5 45109 533.5 45168 533.5 45168 129.5 45187 129.5 45187 533.5 45246 533.5 45246 129.5 45265 129.5 45265 533.5 45323 533.5 45323 129.5 45342 129.5 45342 533.5 45401 533.5 45401 129.5 45420 129.5 45420 533.5 45479 533.5 45479 129.5 45498 129.5 45498 533.5 45557 533.5 45557 129.5 45576 129.5 45576 533.5 45634 533.5 45634 129.5 45691 129.5 45691 533.5 45713 533.5 45713 129.5 45732 129.5 45732 533.5 46311 533.5 46311 129.5 46368 129.5 46368 533.5 46389 533.5 46389 129.5 46446 129.5 46446 533.5 46467 533.5 46467 129.5 46524 129.5 46524 533.5 46546 533.5 46546 129.5 46565 129.5 46565 533.5 46624 533.5 46624 129.5 46643 129.5 46643 533.5 46701 533.5 46701 129.5 46721 129.5 46721 533.5 46779 533.5 46779 129.5 46836 129.5 46836 533.5 46858 533.5 46858 129.5 46876 129.5 46876 533.5 46935 533.5 46935 129.5 46955 129.5 46955 533.5 47013 533.5 47013 129.5 47070 129.5 47070 533.5 47092 533.5 47092 129.5 47111 129.5 47111 533.5 47169 533.5 47169 129.5 47226.1 129.5 47226.1 533.5 47248.1 533.5 47248.1 129.5 47267.1 129.5 47267.1 533.5 47326.1 533.5 47326.1 129.5 47382.1 129.5 47382.1 533.5 47404.1 533.5 47404.1 129.5 47423.1 129.5 47423.1 533.5 47482.1 533.5 47482.1 129.5 47500.1 129.5 47500.1 533.5 47560.1 533.5 47560.1 129.5 47578.1 129.5 47578.1 533.5 47637.1 533.5 47637.1 129.5 47656.1 129.5 47656.1 533.5 47716.1 533.5 47716.1 129.5 47734.1 129.5 47734.1 533.5 47793.1 533.5 47793.1 129.5 47812.1 129.5 47812.1 533.5 47870.1 533.5 47870.1 129.5 47889.1 129.5 47889.1 533.5 47948.1 533.5 47948.1 129.5 47967.1 129.5 47967.1 533.5 48026.1 533.5 48026.1 129.5 48045.1 129.5 48045.1 533.5 48104.1 533.5 48104.1 129.5 48161.1 129.5 48161.1 533.5 48182.1 533.5 48182.1 129.5 48201.1 129.5 48201.1 533.5 48780.1 533.5 48780.1 129.5 48837.1 129.5 48837.1 533.5 48858.1 533.5 48858.1 129.5 48915.1 129.5 48915.1 533.5 48937.1 533.5 48937.1 129.5 48994.1 129.5 48994.1 533.5 49015.1 533.5 49015.1 129.5 49034.1 129.5 49034.1 533.5 49093.1 533.5 49093.1 129.5 49112.1 129.5 49112.1 533.5 49171.1 533.5 49171.1 129.5 49190.1 129.5 49190.1 533.5 49248.1 533.5 49248.1 129.5 49305.1 129.5 49305.1 533.5 49327.1 533.5 49327.1 129.5 49346.1 129.5 49346.1 533.5 49405.1 533.5 49405.1 129.5 49424.1 129.5 49424.1 533.5 49482.1 533.5 49482.1 129.5 49539.1 129.5 49539.1 533.5 49561.1 533.5 49561.1 129.5 49580.1 129.5 49580.1 533.5 49638.1 533.5 49638.1 129.5 49695.1 129.5 49695.1 533.5 49717.1 533.5 49717.1 129.5 49736.1 129.5 49736.1 533.5 49795.1 533.5 49795.1 129.5 49851.1 129.5 49851.1 533.5 49873.1 533.5 49873.1 129.5 49892.1 129.5 49892.1 533.5 49951.1 533.5 49951.1 129.5 49969.1 129.5 49969.1 533.5 50029.1 533.5 50029.1 129.5 50048.1 129.5 50048.1 533.5 50107.1 533.5 50107.1 129.5 50125.1 129.5 50125.1 533.5 50184.1 533.5 50184.1 129.5 50203.1 129.5 50203.1 533.5 50262.1 533.5 50262.1 129.5 50281.1 129.5 50281.1 533.5 50340.2 533.5 50340.2 129.5 50359.2 129.5 50359.2 533.5 50417.2 533.5 50417.2 129.5 50437.2 129.5 50437.2 533.5 50495.2 533.5 50495.2 129.5 50514.2 129.5 50514.2 533.5 50573.2 533.5 50573.2 129.5 50629.5 129.5 50629.5 533.5" stroke="#156082" stroke-width="3.4375" stroke-linecap="round" stroke-linejoin="round" stroke-miterlimit="10" fill="none"/></g><g><text fill="#0E2841" font-family="Aptos Narrow,Aptos Narrow_MSFontService,sans-serif" font-weight="400" font-stretch="semi-condensed" font-size="41" transform="matrix(1 0 0 1 3678.75 545)">0</text></g><g><text fill="#0E2841" font-family="Aptos Narrow,Aptos Narrow_MSFontService,sans-serif" font-weight="400" font-stretch="semi-condensed" font-size="41" transform="matrix(1 0 0 1 3678.75 141)">1</text></g><g><text fill="#0E2841" font-family="Aptos Narrow,Aptos Narrow_MSFontService,sans-serif" font-weight="400" font-stretch="semi-condensed" font-size="41" transform="matrix(1 0 0 1 3727.28 598)">0</text></g><g><text fill="#0E2841" font-family="Aptos Narrow,Aptos Narrow_MSFontService,sans-serif" font-weight="400" font-stretch="semi-condensed" font-size="41" transform="matrix(1 0 0 1 4158.62 598)">10000</text></g><g><text fill="#0E2841" font-family="Aptos Narrow,Aptos Narrow_MSFontService,sans-serif" font-weight="400" font-stretch="semi-condensed" font-size="41" transform="matrix(1 0 0 1 4631.76 598)">20000</text></g><g><text fill="#0E2841" font-family="Aptos Narrow,Aptos Narrow_MSFontService,sans-serif" font-weight="400" font-stretch="semi-condensed" font-size="41" transform="matrix(1 0 0 1 5104.9 598)">30000</text></g><g><text fill="#0E2841" font-family="Aptos Narrow,Aptos Narrow_MSFontService,sans-serif" font-weight="400" font-stretch="semi-condensed" font-size="41" transform="matrix(1 0 0 1 5578.05 598)">40000</text></g><g><text fill="#0E2841" font-family="Aptos Narrow,Aptos Narrow_MSFontService,sans-serif" font-weight="400" font-stretch="semi-condensed" font-size="41" transform="matrix(1 0 0 1 6051.19 598)">50000</text></g><g><text fill="#0E2841" font-family="Aptos Narrow,Aptos Narrow_MSFontService,sans-serif" font-weight="400" font-stretch="semi-condensed" font-size="41" transform="matrix(1 0 0 1 6524.33 598)">60000</text></g><g><text fill="#0E2841" font-family="Aptos Narrow,Aptos Narrow_MSFontService,sans-serif" font-weight="700" font-stretch="semi-condensed" font-size="41" transform="matrix(1 0 0 1 5183.94 662)">Time (</text></g><g><text fill="#0E2841" font-family="Aptos Narrow,Aptos Narrow_MSFontService,sans-serif" font-weight="700" font-stretch="semi-condensed" font-size="41" transform="matrix(1 0 0 1 5287.09 662)">μ</text></g><g><text fill="#0E2841" font-family="Aptos Narrow,Aptos Narrow_MSFontService,sans-serif" font-weight="700" font-stretch="semi-condensed" font-size="41" transform="matrix(1 0 0 1 5308.89 662)">s) </text></g></g></svg>