<svg width="3248" height="650" xmlns="http://www.w3.org/2000/svg" xmlns:xlink="http://www.w3.org/1999/xlink" xml:space="preserve" overflow="hidden"><defs><clipPath id="clip0"><rect x="1171" y="107" width="3248" height="650"/></clipPath><clipPath id="clip1"><rect x="1259" y="157" width="3060" height="405"/></clipPath></defs><g clip-path="url(#clip0)" transform="translate(-1171 -107)"><rect x="1171" y="107" width="3248" height="650" fill="#FFFFFF"/><g clip-path="url(#clip1)"><path d="M-491.5 157.5-491.5 559.5-469.516 559.5-469.516 157.5-413.514 157.5-413.514 559.5-391.513 559.5-391.513 157.5-335.511 157.5-335.511 559.5-313.51 559.5-313.51 157.5-256.509 157.5-256.509 559.5-235.508 559.5-235.508 157.5-216.507 157.5-216.507 559.5-157.505 559.5-157.505 157.5-138.505 157.5-138.505 559.5-79.5028 559.5-79.5028 157.5-23.5009 157.5-23.5009 559.5-1.50021 559.5-1.50021 157.5 16.5007 157.5 16.5007 559.5 76.5027 559.5 76.5027 157.5 94.5033 157.5 94.5033 559.5 153.505 559.5 153.505 157.5 172.506 157.5 172.506 559.5 231.508 559.5 231.508 157.5 249.508 157.5 249.508 559.5 308.51 559.5 308.51 157.5 327.511 157.5 327.511 559.5 386.513 559.5 386.513 157.5 404.513 157.5 404.513 559.5 463.515 559.5 463.515 157.5 519.517 157.5 519.517 559.5 542.518 559.5 542.518 157.5 598.52 157.5 598.52 559.5 620.521 559.5 620.521 157.5 638.521 157.5 638.521 559.5 698.523 559.5 698.523 157.5 716.524 157.5 716.524 559.5 775.526 559.5 775.526 157.5 793.526 157.5 793.526 559.5 852.528 559.5 852.528 157.5 871.529 157.5 871.529 559.5 930.531 559.5 930.531 157.5 948.531 157.5 948.531 559.5 1008.53 559.5 1008.53 157.5 1026.53 157.5 1026.53 559.5 1085.54 559.5 1085.54 157.5 1104.54 157.5 1104.54 559.5 1163.54 559.5 1163.54 157.5 1219.54 157.5 1219.54 559.5 1241.54 559.5 1241.54 157.5 1259.54 157.5 1259.54 559.5 1837.56 559.5 1837.56 157.5 1856.56 157.5 1856.56 559.5 1914.56 559.5 1914.56 157.5 1971.56 157.5 1971.56 559.5 1993.57 559.5 1993.57 157.5 2049.57 157.5 2049.57 559.5 2071.57 559.5 2071.57 157.5 2127.57 157.5 2127.57 559.5 2149.57 559.5 2149.57 157.5 2205.57 157.5 2205.57 559.5 2227.57 559.5 2227.57 157.5 2246.57 157.5 2246.57 559.5 2305.58 559.5 2305.58 157.5 2323.58 157.5 2323.58 559.5 2382.58 559.5 2382.58 157.5 2438.58 157.5 2438.58 559.5 2461.58 559.5 2461.58 157.5 2479.58 157.5 2479.58 559.5 2538.58 559.5 2538.58 157.5 2557.58 157.5 2557.58 559.5 2616.59 559.5 2616.59 157.5 2634.59 157.5 2634.59 559.5 2693.59 559.5 2693.59 157.5 2712.59 157.5 2712.59 559.5 2771.59 559.5 2771.59 157.5 2789.59 157.5 2789.59 559.5 2848.59 559.5 2848.59 157.5 2867.59 157.5 2867.59 559.5 2926.6 559.5 2926.6 157.5 2982.6 157.5 2982.6 559.5 3004.6 559.5 3004.6 157.5 3060.6 157.5 3060.6 559.5 3083.6 559.5 3083.6 157.5 3101.6 157.5 3101.6 559.5 3160.6 559.5 3160.6 157.5 3178.6 157.5 3178.6 559.5 3237.61 559.5 3237.61 157.5 3256.61 157.5 3256.61 559.5 3315.61 559.5 3315.61 157.5 3334.61 157.5 3334.61 559.5 3393.61 559.5 3393.61 157.5 3411.61 157.5 3411.61 559.5 3470.61 559.5 3470.61 157.5 3489.61 157.5 3489.61 559.5 3548.62 559.5 3548.62 157.5 3566.62 157.5 3566.62 559.5 3625.62 559.5 3625.62 157.5 3681.62 157.5 3681.62 559.5 3703.62 559.5 3703.62 157.5 3722.62 157.5 3722.62 559.5 4300.64 559.5 4300.64 157.5 4318.64 157.5 4318.64 559.5 4377.64 559.5 4377.64 157.5 4433.65 157.5 4433.65 559.5 4455.65 559.5 4455.65 157.5 4511.65 157.5 4511.65 559.5 4533.65 559.5 4533.65 157.5 4590.65 157.5 4590.65 559.5 4612.65 559.5 4612.65 157.5 4668.65 157.5 4668.65 559.5 4690.65 559.5 4690.65 157.5 4708.65 157.5 4708.65 559.5 4767.66 559.5 4767.66 157.5 4786.66 157.5 4786.66 559.5 4845.66 559.5 4845.66 157.5 4901.66 157.5 4901.66 559.5 4923.66 559.5 4923.66 157.5 4942.66 157.5 4942.66 559.5 5001.66 559.5 5001.66 157.5 5019.67 157.5 5019.67 559.5 5078.67 559.5 5078.67 157.5 5097.67 157.5 5097.67 559.5 5156.67 559.5 5156.67 157.5 5174.67 157.5 5174.67 559.5 5233.67 559.5 5233.67 157.5 5252.67 157.5 5252.67 559.5 5311.67 559.5 5311.67 157.5 5329.68 157.5 5329.68 559.5 5389.68 559.5 5389.68 157.5 5445.68 157.5 5445.68 559.5 5467.68 559.5 5467.68 157.5 5523.68 157.5 5523.68 559.5 5545.68 559.5 5545.68 157.5 5563.68 157.5 5563.68 559.5 5623.68 559.5 5623.68 157.5 5641.69 157.5 5641.69 559.5 5700.69 559.5 5700.69 157.5 5719.69 157.5 5719.69 559.5 5778.69 559.5 5778.69 157.5 5796.69 157.5 5796.69 559.5 5855.69 559.5 5855.69 157.5 5874.69 157.5 5874.69 559.5 5933.7 559.5 5933.7 157.5 5951.7 157.5 5951.7 559.5 6010.7 559.5 6010.7 157.5 6029.7 157.5 6029.7 559.5 6088.7 559.5 6088.7 157.5 6144.7 157.5 6144.7 559.5 6166.7 559.5 6166.7 157.5 6184.7 157.5 6184.7 559.5 6762.72 559.5 6762.72 157.5 6781.72 157.5 6781.72 559.5 6840.72 559.5 6840.72 157.5 6896.73 157.5 6896.73 559.5 6918.73 559.5 6918.73 157.5 6974.73 157.5 6974.73 559.5 6996.73 559.5 6996.73 157.5 7052.73 157.5 7052.73 559.5 7074.73 559.5 7074.73 157.5 7130.73 157.5 7130.73 559.5 7153.74 559.5 7153.74 157.5 7171.74 157.5 7171.74 559.5 7230.74 559.5 7230.74 157.5 7248.74 157.5 7248.74 559.5 7307.74 559.5 7307.74 157.5 7364.74 157.5 7364.74 559.5 7386.74 559.5 7386.74 157.5 7404.74 157.5 7404.74 559.5 7463.74 559.5 7463.74 157.5 7482.75 157.5 7482.75 559.5 7541.75 559.5 7541.75 157.5 7560.75 157.5 7560.75 559.5 7619.75 559.5 7619.75 157.5 7637.75 157.5 7637.75 559.5 7696.75 559.5 7696.75 157.5 7715.75 157.5 7715.75 559.5 7774.75 559.5 7774.75 157.5 7792.76 157.5 7792.76 559.5 7852.76 559.5 7852.76 157.5 7907.76 157.5 7907.76 559.5 7929.76 559.5 7929.76 157.5 7986.76 157.5 7986.76 559.5 8008.76 559.5 8008.76 157.5 8026.76 157.5 8026.76 559.5 8086.77 559.5 8086.77 157.5 8104.77 157.5 8104.77 559.5 8163.77 559.5 8163.77 157.5 8181.77 157.5 8181.77 559.5 8241.77 559.5 8241.77 157.5 8259.77 157.5 8259.77 559.5 8318.77 559.5 8318.77 157.5 8337.77 157.5 8337.77 559.5 8396.78 559.5 8396.78 157.5 8414.78 157.5 8414.78 559.5 8473.78 559.5 8473.78 157.5 8492.78 157.5 8492.78 559.5 8551.78 559.5 8551.78 157.5 8607.78 157.5 8607.78 559.5 8629.78 559.5 8629.78 157.5 8647.78 157.5 8647.78 559.5 9225.8 559.5 9225.8 157.5 9244.8 157.5 9244.8 559.5 9303.8 559.5 9303.8 157.5 9359.81 157.5 9359.81 559.5 9381.81 559.5 9381.81 157.5 9437.81 157.5 9437.81 559.5 9459.81 559.5 9459.81 157.5 9515.81 157.5 9515.81 559.5 9537.81 559.5 9537.81 157.5 9593.82 157.5 9593.82 559.5 9615.82 559.5 9615.82 157.5 9634.82 157.5 9634.82 559.5 9693.82 559.5 9693.82 157.5 9711.82 157.5 9711.82 559.5 9770.82 559.5 9770.82 157.5 9826.82 157.5 9826.82 559.5 9849.82 559.5 9849.82 157.5 9867.82 157.5 9867.82 559.5 9926.83 559.5 9926.83 157.5 9945.83 157.5 9945.83 559.5 10004.8 559.5 10004.8 157.5 10022.8 157.5 10022.8 559.5 10081.8 559.5 10081.8 157.5 10100.8 157.5 10100.8 559.5 10159.8 559.5 10159.8 157.5 10177.8 157.5 10177.8 559.5 10236.8 559.5 10236.8 157.5 10255.8 157.5 10255.8 559.5 10314.8 559.5 10314.8 157.5 10370.8 157.5 10370.8 559.5 10392.8 559.5 10392.8 157.5 10448.8 157.5 10448.8 559.5 10470.8 559.5 10470.8 157.5 10489.8 157.5 10489.8 559.5 10548.8 559.5 10548.8 157.5 10566.8 157.5 10566.8 559.5 10626.8 559.5 10626.8 157.5 10644.8 157.5 10644.8 559.5 10703.9 559.5 10703.9 157.5 10722.9 157.5 10722.9 559.5 10781.9 559.5 10781.9 157.5 10799.9 157.5 10799.9 559.5 10858.9 559.5 10858.9 157.5 10877.9 157.5 10877.9 559.5 10936.9 559.5 10936.9 157.5 10954.9 157.5 10954.9 559.5 11013.9 559.5 11013.9 157.5 11069.9 157.5 11069.9 559.5 11092.9 559.5 11092.9 157.5 11110.9 157.5 11110.9 559.5 11688.9 559.5 11688.9 157.5 11706.9 157.5 11706.9 559.5 11765.9 559.5 11765.9 157.5 11821.9 157.5 11821.9 559.5 11843.9 559.5 11843.9 157.5 11899.9 157.5 11899.9 559.5 11921.9 559.5 11921.9 157.5 11978.9 157.5 11978.9 559.5 11999.9 559.5 11999.9 157.5 12056.9 157.5 12056.9 559.5 12078.9 559.5 12078.9 157.5 12096.9 157.5 12096.9 559.5 12155.9 559.5 12155.9 157.5 12174.9 157.5 12174.9 559.5 12233.9 559.5 12233.9 157.5 12289.9 157.5 12289.9 559.5 12311.9 559.5 12311.9 157.5 12330.9 157.5 12330.9 559.5 12389.9 559.5 12389.9 157.5 12407.9 157.5 12407.9 559.5 12466.9 559.5 12466.9 157.5 12466.9 157.5 12466.9 559.5 12466.9 559.5 12466.9 157.5 12485.9 157.5 12485.9 559.5 12544.9 559.5 12544.9 157.5 12562.9 157.5 12562.9 559.5 12622.9 559.5 12622.9 157.5 12640.9 157.5 12640.9 559.5 12699.9 559.5 12699.9 157.5 12717.9 157.5 12717.9 559.5 12776.9 559.5 12776.9 157.5 12833.9 157.5 12833.9 559.5 12855.9 559.5 12855.9 157.5 12911.9 157.5 12911.9 559.5 12933.9 559.5 12933.9 157.5 12951.9 157.5 12951.9 559.5 13011.9 559.5 13011.9 157.5 13029.9 157.5 13029.9 559.5 13088.9 559.5 13088.9 157.5 13107.9 157.5 13107.9 559.5 13166.9 559.5 13166.9 157.5 13184.9 157.5 13184.9 559.5 13243.9 559.5 13243.9 157.5 13262.9 157.5 13262.9 559.5 13321.9 559.5 13321.9 157.5 13339.9 157.5 13339.9 559.5 13398.9 559.5 13398.9 157.5 13417.9 157.5 13417.9 559.5 13476.9 559.5 13476.9 157.5 13532.9 157.5 13532.9 559.5 13554.9 559.5 13554.9 157.5 13572.9 157.5 13572.9 559.5 14151 559.5 14151 157.5 14170 157.5 14170 559.5 14229 559.5 14229 157.5 14285 157.5 14285 559.5 14307 559.5 14307 157.5 14363 157.5 14363 559.5 14385 559.5 14385 157.5 14441 157.5 14441 559.5 14463 559.5 14463 157.5 14519 157.5 14519 559.5 14541 559.5 14541 157.5 14560 157.5 14560 559.5 14619 559.5 14619 157.5 14637 157.5 14637 559.5 14696 559.5 14696 157.5 14752 157.5 14752 559.5 14775 559.5 14775 157.5 14793 157.5 14793 559.5 14852 559.5 14852 157.5 14871 157.5 14871 559.5 14930 559.5 14930 157.5 14948 157.5 14948 559.5 15008 559.5 15008 157.5 15026 157.5 15026 559.5 15085 559.5 15085 157.5 15103 157.5 15103 559.5 15163 559.5 15163 157.5 15181 157.5 15181 559.5 15240 559.5 15240 157.5 15296 157.5 15296 559.5 15318 559.5 15318 157.5 15374 157.5 15374 559.5 15397 559.5 15397 157.5 15415 157.5 15415 559.5 15474 559.5 15474 157.5 15493 157.5 15493 559.5 15552 559.5 15552 157.5 15570 157.5 15570 559.5 15629 559.5 15629 157.5 15648 157.5 15648 559.5 15707 559.5 15707 157.5 15725 157.5 15725 559.5 15785 559.5 15785 157.5 15803 157.5 15803 559.5 15862 559.5 15862 157.5 15880 157.5 15880 559.5 15940 559.5 15940 157.5 15996 157.5 15996 559.5 16018 559.5 16018 157.5 16036 157.5 16036 559.5 16614 559.5 16614 157.5 16633 157.5 16633 559.5 16691 559.5 16691 157.5 16748 157.5 16748 559.5 16770.1 559.5 16770.1 157.5 16826.1 157.5 16826.1 559.5 16848.1 559.5 16848.1 157.5 16904.1 157.5 16904.1 559.5 16926.1 559.5 16926.1 157.5 16982.1 157.5 16982.1 559.5 17004.1 559.5 17004.1 157.5 17023.1 157.5 17023.1 559.5 17082.1 559.5 17082.1 157.5 17100.1 157.5 17100.1 559.5 17159.1 559.5 17159.1 157.5 17215.1 157.5 17215.1 559.5 17238.1 559.5 17238.1 157.5 17256.1 157.5 17256.1 559.5 17315.1 559.5 17315.1 157.5 17334.1 157.5 17334.1 559.5 17393.1 559.5 17393.1 157.5 17411.1 157.5 17411.1 559.5 17470.1 559.5 17470.1 157.5 17489.1 157.5 17489.1 559.5 17548.1 559.5 17548.1 157.5 17566.1 157.5 17566.1 559.5 17625.1 559.5 17625.1 157.5 17644.1 157.5 17644.1 559.5 17703.1 559.5 17703.1 157.5 17759.1 157.5 17759.1 559.5 17781.1 559.5 17781.1 157.5 17837.1 157.5 17837.1 559.5 17860.1 559.5 17860.1 157.5 17878.1 157.5 17878.1 559.5 17937.1 559.5 17937.1 157.5 17955.1 157.5 17955.1 559.5 18015.1 559.5 18015.1 157.5 18033.1 157.5 18033.1 559.5 18092.1 559.5 18092.1 157.5 18111.1 157.5 18111.1 559.5 18170.1 559.5 18170.1 157.5 18188.1 157.5 18188.1 559.5 18247.1 559.5 18247.1 157.5 18266.1 157.5 18266.1 559.5 18325.1 559.5 18325.1 157.5 18343.1 157.5 18343.1 559.5 18402.1 559.5 18402.1 157.5 18458.1 157.5 18458.1 559.5 18481.1 559.5 18481.1 157.5 18499.1 157.5 18499.1 559.5 19077.1 559.5 19077.1 157.5 19095.1 157.5 19095.1 559.5 19154.1 559.5 19154.1 157.5 19211.1 157.5 19211.1 559.5 19233.1 559.5 19233.1 157.5 19289.1 157.5 19289.1 559.5 19311.1 559.5 19311.1 157.5 19367.1 157.5 19367.1 559.5 19389.1 559.5 19389.1 157.5 19445.1 157.5 19445.1 559.5 19467.1 559.5 19467.1 157.5 19485.1 157.5 19485.1 559.5 19545.1 559.5 19545.1 157.5 19563.1 157.5 19563.1 559.5 19622.1 559.5 19622.1 157.5 19678.1 157.5 19678.1 559.5 19701.1 559.5 19701.1 157.5 19719.1 157.5 19719.1 559.5 19778.1 559.5 19778.1 157.5 19797.2 157.5 19797.2 559.5 19856.2 559.5 19856.2 157.5 19874.2 157.5 19874.2 559.5 19933.2 559.5 19933.2 157.5 19952.2 157.5 19952.2 559.5 20011.2 559.5 20011.2 157.5 20029.2 157.5 20029.2 559.5 20089.2 559.5 20089.2 157.5 20107.2 157.5 20107.2 559.5 20166.2 559.5 20166.2 157.5 20222.2 157.5 20222.2 559.5 20244.2 559.5 20244.2 157.5 20300.2 157.5 20300.2 559.5 20323.2 559.5 20323.2 157.5 20341.2 157.5 20341.2 559.5 20400.2 559.5 20400.2 157.5 20418.2 157.5 20418.2 559.5 20478.2 559.5 20478.2 157.5 20496.2 157.5 20496.2 559.5 20555.2 559.5 20555.2 157.5 20574.2 157.5 20574.2 559.5 20633.2 559.5 20633.2 157.5 20651.2 157.5 20651.2 559.5 20710.2 559.5 20710.2 157.5 20729.2 157.5 20729.2 559.5 20788.2 559.5 20788.2 157.5 20806.2 157.5 20806.2 559.5 20865.2 559.5 20865.2 157.5 20922.2 157.5 20922.2 559.5 20944.2 559.5 20944.2 157.5 20962.2 157.5 20962.2 559.5 21540.2 559.5 21540.2 157.5 21559.2 157.5 21559.2 559.5 21618.2 559.5 21618.2 157.5 21674.2 157.5 21674.2 559.5 21696.2 559.5 21696.2 157.5 21752.2 157.5 21752.2 559.5 21774.2 559.5 21774.2 157.5 21830.2 157.5 21830.2 559.5 21852.2 559.5 21852.2 157.5 21908.2 157.5 21908.2 559.5 21930.2 559.5 21930.2 157.5 21949.2 157.5 21949.2 559.5 22008.2 559.5 22008.2 157.5 22027.2 157.5 22027.2 559.5 22086.2 559.5 22086.2 157.5 22142.2 157.5 22142.2 559.5 22164.2 559.5 22164.2 157.5 22182.2 157.5 22182.2 559.5 22242.2 559.5 22242.2 157.5 22260.2 157.5 22260.2 559.5 22319.2 559.5 22319.2 157.5 22338.2 157.5 22338.2 559.5 22397.2 559.5 22397.2 157.5 22415.2 157.5 22415.2 559.5 22474.2 559.5 22474.2 157.5 22493.2 157.5 22493.2 559.5 22552.2 559.5 22552.2 157.5 22570.2 157.5 22570.2 559.5 22629.2 559.5 22629.2 157.5 22686.2 157.5 22686.2 559.5 22707.2 559.5 22707.2 157.5 22764.2 157.5 22764.2 559.5 22786.2 559.5 22786.2 157.5 22804.2 157.5 22804.2 559.5 22863.2 559.5 22863.2 157.5 22882.3 157.5 22882.3 559.5 22941.3 559.5 22941.3 157.5 22959.3 157.5 22959.3 559.5 23019.3 559.5 23019.3 157.5 23037.3 157.5 23037.3 559.5 23096.3 559.5 23096.3 157.5 23115.3 157.5 23115.3 559.5 23174.3 559.5 23174.3 157.5 23192.3 157.5 23192.3 559.5 23251.3 559.5 23251.3 157.5 23270.3 157.5 23270.3 559.5 23329.3 559.5 23329.3 157.5 23385.3 157.5 23385.3 559.5 23407.3 559.5 23407.3 157.5 23425.3 157.5 23425.3 559.5 24003.3 559.5 24003.3 157.5 24022.3 157.5 24022.3 559.5 24081.3 559.5 24081.3 157.5 24137.3 157.5 24137.3 559.5 24159.3 559.5 24159.3 157.5 24215.3 157.5 24215.3 559.5 24237.3 559.5 24237.3 157.5 24293.3 157.5 24293.3 559.5 24315.3 559.5 24315.3 157.5 24372.3 157.5 24372.3 559.5 24394.3 559.5 24394.3 157.5 24412.3 157.5 24412.3 559.5 24471.3 559.5 24471.3 157.5 24490.3 157.5 24490.3 559.5 24549.3 559.5 24549.3 157.5 24605.3 157.5 24605.3 559.5 24627.3 559.5 24627.3 157.5 24646.3 157.5 24646.3 559.5 24705.3 559.5 24705.3 157.5 24723.3 157.5 24723.3 559.5 24782.3 559.5 24782.3 157.5 24801.3 157.5 24801.3 559.5 24860.3 559.5 24860.3 157.5 24878.3 157.5 24878.3 559.5 24938.3 559.5 24938.3 157.5 24956.3 157.5 24956.3 559.5 25015.3 559.5 25015.3 157.5 25034.3 157.5 25034.3 559.5 25093.3 559.5 25093.3 157.5 25149.3 157.5 25149.3 559.5 25171.3 559.5 25171.3 157.5 25227.3 157.5 25227.3 559.5 25249.3 559.5 25249.3 157.5 25268.3 157.5 25268.3 559.5 25327.3 559.5 25327.3 157.5 25345.3 157.5 25345.3 559.5 25404.3 559.5 25404.3 157.5 25423.3 157.5 25423.3 559.5 25482.3 559.5 25482.3 157.5 25500.3 157.5 25500.3 559.5 25560.3 559.5 25560.3 157.5 25578.3 157.5 25578.3 559.5 25637.3 559.5 25637.3 157.5 25655.3 157.5 25655.3 559.5 25715.3 559.5 25715.3 157.5 25733.3 157.5 25733.3 559.5 25792.3 559.5 25792.3 157.5 25848.3 157.5 25848.3 559.5 25870.3 559.5 25870.3 157.5 25889.3 157.5 25889.3 559.5 26466.4 559.5 26466.4 157.5 26485.4 157.5 26485.4 559.5 26544.4 559.5 26544.4 157.5 26600.4 157.5 26600.4 559.5 26622.4 559.5 26622.4 157.5 26678.4 157.5 26678.4 559.5 26700.4 559.5 26700.4 157.5 26756.4 157.5 26756.4 559.5 26779.4 559.5 26779.4 157.5 26835.4 157.5 26835.4 559.5 26857.4 559.5 26857.4 157.5 26875.4 157.5 26875.4 559.5 26934.4 559.5 26934.4 157.5 26953.4 157.5 26953.4 559.5 27012.4 559.5 27012.4 157.5 27068.4 157.5 27068.4 559.5 27090.4 559.5 27090.4 157.5 27109.4 157.5 27109.4 559.5 27168.4 559.5 27168.4 157.5 27186.4 157.5 27186.4 559.5 27245.4 559.5 27245.4 157.5 27264.4 157.5 27264.4 559.5 27323.4 559.5 27323.4 157.5 27342.4 157.5 27342.4 559.5 27400.4 559.5 27400.4 157.5 27419.4 157.5 27419.4 559.5 27478.4 559.5 27478.4 157.5 27496.4 157.5 27496.4 559.5 27556.4 559.5 27556.4 157.5 27612.4 157.5 27612.4 559.5 27634.4 559.5 27634.4 157.5 27690.4 157.5 27690.4 559.5 27712.4 559.5 27712.4 157.5 27730.4 157.5 27730.4 559.5 27790.4 559.5 27790.4 157.5 27808.4 157.5 27808.4 559.5 27867.4 559.5 27867.4 157.5 27886.4 157.5 27886.4 559.5 27945.4 559.5 27945.4 157.5 27963.4 157.5 27963.4 559.5 28022.4 559.5 28022.4 157.5 28041.4 157.5 28041.4 559.5 28100.4 559.5 28100.4 157.5 28118.4 157.5 28118.4 559.5 28177.4 559.5 28177.4 157.5 28196.4 157.5 28196.4 559.5 28255.4 559.5 28255.4 157.5 28311.4 157.5 28311.4 559.5 28333.4 559.5 28333.4 157.5 28351.4 157.5 28351.4 559.5 28929.4 559.5 28929.4 157.5 28948.4 157.5 28948.4 559.5 29007.5 559.5 29007.5 157.5 29063.5 157.5 29063.5 559.5 29085.5 559.5 29085.5 157.5 29141.5 157.5 29141.5 559.5 29163.5 559.5 29163.5 157.5 29219.5 157.5 29219.5 559.5 29241.5 559.5 29241.5 157.5 29298.5 157.5 29298.5 559.5 29319.5 559.5 29319.5 157.5 29338.5 157.5 29338.5 559.5 29397.5 559.5 29397.5 157.5 29415.5 157.5 29415.5 559.5 29475.5 559.5 29475.5 157.5 29531.5 157.5 29531.5 559.5 29553.5 559.5 29553.5 157.5 29572.5 157.5 29572.5 559.5 29631.5 559.5 29631.5 157.5 29649.5 157.5 29649.5 559.5 29708.5 559.5 29708.5 157.5 29727.5 157.5 29727.5 559.5 29786.5 559.5 29786.5 157.5 29804.5 157.5 29804.5 559.5 29863.5 559.5 29863.5 157.5 29882.5 157.5 29882.5 559.5 29941.5 559.5 29941.5 157.5 29959.5 157.5 29959.5 559.5 30018.5 559.5 30018.5 157.5 30075.5 157.5 30075.5 559.5 30097.5 559.5 30097.5 157.5 30153.5 157.5 30153.5 559.5 30175.5 559.5 30175.5 157.5 30193.5 157.5 30193.5 559.5 30252.5 559.5 30252.5 157.5 30271.5 157.5 30271.5 559.5 30330.5 559.5 30330.5 157.5 30348.5 157.5 30348.5 559.5 30408.5 559.5 30408.5 157.5 30426.5 157.5 30426.5 559.5 30485.5 559.5 30485.5 157.5 30504.5 157.5 30504.5 559.5 30563.5 559.5 30563.5 157.5 30581.5 157.5 30581.5 559.5 30640.5 559.5 30640.5 157.5 30659.5 157.5 30659.5 559.5 30718.5 559.5 30718.5 157.5 30774.5 157.5 30774.5 559.5 30796.5 559.5 30796.5 157.5 30814.5 157.5 30814.5 559.5 31392.5 559.5 31392.5 157.5 31411.5 157.5 31411.5 559.5 31470.5 559.5 31470.5 157.5 31526.5 157.5 31526.5 559.5 31548.5 559.5 31548.5 157.5 31604.5 157.5 31604.5 559.5 31626.5 559.5 31626.5 157.5 31682.5 157.5 31682.5 559.5 31704.5 559.5 31704.5 157.5 31760.5 157.5 31760.5 559.5 31782.5 559.5 31782.5 157.5 31801.5 157.5 31801.5 559.5 31860.5 559.5 31860.5 157.5 31878.5 157.5 31878.5 559.5 31938.5 559.5 31938.5 157.5 31994.5 157.5 31994.5 559.5 32016.6 559.5 32016.6 157.5 32034.6 157.5 32034.6 559.5 32094.6 559.5 32094.6 157.5 32112.6 157.5 32112.6 559.5 32171.6 559.5 32171.6 157.5 32190.6 157.5 32190.6 559.5 32249.6 559.5 32249.6 157.5 32267.6 157.5 32267.6 559.5 32326.6 559.5 32326.6 157.5 32345.6 157.5 32345.6 559.5 32404.6 559.5 32404.6 157.5 32422.6 157.5 32422.6 559.5 32481.6 559.5 32481.6 157.5 32537.6 157.5 32537.6 559.5 32560.6 559.5 32560.6 157.5 32616.6 157.5 32616.6 559.5 32638.6 559.5 32638.6 157.5 32656.6 157.5 32656.6 559.5 32715.6 559.5 32715.6 157.5 32734.6 157.5 32734.6 559.5 32793.6 559.5 32793.6 157.5 32811.6 157.5 32811.6 559.5 32870.6 559.5 32870.6 157.5 32889.6 157.5 32889.6 559.5 32948.6 559.5 32948.6 157.5 32966.6 157.5 32966.6 559.5 33026.6 559.5 33026.6 157.5 33044.6 157.5 33044.6 559.5 33103.6 559.5 33103.6 157.5 33121.6 157.5 33121.6 559.5 33181.6 559.5 33181.6 157.5 33237.6 157.5 33237.6 559.5 33259.6 559.5 33259.6 157.5 33277.6 157.5 33277.6 559.5 33855.6 559.5 33855.6 157.5 33874.6 157.5 33874.6 559.5 33932.6 559.5 33932.6 157.5 33989.6 157.5 33989.6 559.5 34011.6 559.5 34011.6 157.5 34067.6 157.5 34067.6 559.5 34089.6 559.5 34089.6 157.5 34145.6 157.5 34145.6 559.5 34167.6 559.5 34167.6 157.5 34223.6 157.5 34223.6 559.5 34245.6 559.5 34245.6 157.5 34264.6 157.5 34264.6 559.5 34323.6 559.5 34323.6 157.5 34341.6 157.5 34341.6 559.5 34400.6 559.5 34400.6 157.5 34457.6 157.5 34457.6 559.5 34479.6 559.5 34479.6 157.5 34497.6 157.5 34497.6 559.5 34556.6 559.5 34556.6 157.5 34575.6 157.5 34575.6 559.5 34634.6 559.5 34634.6 157.5 34652.6 157.5 34652.6 559.5 34711.6 559.5 34711.6 157.5 34730.6 157.5 34730.6 559.5 34789.6 559.5 34789.6 157.5 34808.6 157.5 34808.6 559.5 34866.6 559.5 34866.6 157.5 34885.6 157.5 34885.6 559.5 34944.6 559.5 34944.6 157.5 35000.6 157.5 35000.6 559.5 35022.6 559.5 35022.6 157.5 35078.7 157.5 35078.7 559.5 35101.7 559.5 35101.7 157.5 35119.7 157.5 35119.7 559.5 35178.7 559.5 35178.7 157.5 35197.7 157.5 35197.7 559.5 35256.7 559.5 35256.7 157.5 35274.7 157.5 35274.7 559.5 35333.7 559.5 35333.7 157.5 35352.7 157.5 35352.7 559.5 35411.7 559.5 35411.7 157.5 35429.7 157.5 35429.7 559.5 35489.7 559.5 35489.7 157.5 35507.7 157.5 35507.7 559.5 35566.7 559.5 35566.7 157.5 35584.7 157.5 35584.7 559.5 35643.7 559.5 35643.7 157.5 35700.7 157.5 35700.7 559.5 35722.7 559.5 35722.7 157.5 35740.7 157.5 35740.7 559.5 36318.7 559.5 36318.7 157.5 36336.7 157.5 36336.7 559.5 36395.7 559.5 36395.7 157.5 36452.7 157.5 36452.7 559.5 36473.7 559.5 36473.7 157.5 36530.7 157.5 36530.7 559.5 36551.7 559.5 36551.7 157.5 36608.7 157.5 36608.7 559.5 36630.7 559.5 36630.7 157.5 36686.7 157.5 36686.7 559.5 36708.7 559.5 36708.7 157.5 36726.7 157.5 36726.7 559.5 36785.7 559.5 36785.7 157.5 36804.7 157.5 36804.7 559.5 36863.7 559.5 36863.7 157.5 36919.7 157.5 36919.7 559.5 36942.7 559.5 36942.7 157.5 36960.7 157.5 36960.7 559.5 37019.7 559.5 37019.7 157.5 37037.7 157.5 37037.7 559.5 37097.7 559.5 37097.7 157.5 37115.7 157.5 37115.7 559.5 37174.7 559.5 37174.7 157.5 37192.7 157.5 37192.7 559.5 37252.7 559.5 37252.7 157.5 37270.7 157.5 37270.7 559.5 37329.7 559.5 37329.7 157.5 37348.7 157.5 37348.7 559.5 37407.7 559.5 37407.7 157.5 37463.7 157.5 37463.7 559.5 37485.7 559.5 37485.7 157.5 37541.7 157.5 37541.7 559.5 37563.7 559.5 37563.7 157.5 37581.7 157.5 37581.7 559.5 37641.7 559.5 37641.7 157.5 37659.7 157.5 37659.7 559.5 37718.7 559.5 37718.7 157.5 37737.7 157.5 37737.7 559.5 37796.7 559.5 37796.7 157.5 37814.7 157.5 37814.7 559.5 37873.7 559.5 37873.7 157.5 37892.7 157.5 37892.7 559.5 37951.7 559.5 37951.7 157.5 37969.7 157.5 37969.7 559.5 38028.7 559.5 38028.7 157.5 38047.7 157.5 38047.7 559.5 38106.8 559.5 38106.8 157.5 38162.8 157.5 38162.8 559.5 38184.8 559.5 38184.8 157.5 38202.8 157.5 38202.8 559.5 38780.8 559.5 38780.8 157.5 38799.8 157.5 38799.8 559.5 38858.8 559.5 38858.8 157.5 38914.8 157.5 38914.8 559.5 38936.8 559.5 38936.8 157.5 38992.8 157.5 38992.8 559.5 39014.8 559.5 39014.8 157.5 39070.8 157.5 39070.8 559.5 39092.8 559.5 39092.8 157.5 39148.8 157.5 39148.8 559.5 39170.8 559.5 39170.8 157.5 39189.8 157.5 39189.8 559.5 39248.8 559.5 39248.8 157.5 39266.8 157.5 39266.8 559.5 39326.8 559.5 39326.8 157.5 39382.8 157.5 39382.8 559.5 39404.8 559.5 39404.8 157.5 39422.8 157.5 39422.8 559.5 39482.8 559.5 39482.8 157.5 39500.8 157.5 39500.8 559.5 39559.8 559.5 39559.8 157.5 39578.8 157.5 39578.8 559.5 39637.8 559.5 39637.8 157.5 39655.8 157.5 39655.8 559.5 39714.8 559.5 39714.8 157.5 39733.8 157.5 39733.8 559.5 39792.8 559.5 39792.8 157.5 39810.8 157.5 39810.8 559.5 39869.8 559.5 39869.8 157.5 39925.8 157.5 39925.8 559.5 39948.8 559.5 39948.8 157.5 40004.8 157.5 40004.8 559.5 40026.8 559.5 40026.8 157.5 40044.8 157.5 40044.8 559.5 40103.8 559.5 40103.8 157.5 40122.8 157.5 40122.8 559.5 40181.8 559.5 40181.8 157.5 40199.8 157.5 40199.8 559.5 40258.8 559.5 40258.8 157.5 40277.8 157.5 40277.8 559.5 40336.8 559.5 40336.8 157.5 40354.8 157.5 40354.8 559.5 40414.8 559.5 40414.8 157.5 40432.8 157.5 40432.8 559.5 40491.8 559.5 40491.8 157.5 40510.8 157.5 40510.8 559.5 40569.8 559.5 40569.8 157.5 40625.8 157.5 40625.8 559.5 40647.8 559.5 40647.8 157.5 40665.8 157.5 40665.8 559.5 41243.9 559.5 41243.9 157.5 41262.9 157.5 41262.9 559.5 41321.9 559.5 41321.9 157.5 41377.9 157.5 41377.9 559.5 41399.9 559.5 41399.9 157.5 41455.9 157.5 41455.9 559.5 41477.9 559.5 41477.9 157.5 41533.9 157.5 41533.9 559.5 41555.9 559.5 41555.9 157.5 41611.9 157.5 41611.9 559.5 41634.9 559.5 41634.9 157.5 41652.9 157.5 41652.9 559.5 41711.9 559.5 41711.9 157.5 41729.9 157.5 41729.9 559.5 41789.9 559.5 41789.9 157.5 41845.9 157.5 41845.9 559.5 41867.9 559.5 41867.9 157.5 41885.9 157.5 41885.9 559.5 41945.9 559.5 41945.9 157.5 41963.9 157.5 41963.9 559.5 42022.9 559.5 42022.9 157.5 42041.9 157.5 42041.9 559.5 42100.9 559.5 42100.9 157.5 42118.9 157.5 42118.9 559.5 42177.9 559.5 42177.9 157.5 42196.9 157.5 42196.9 559.5 42255.9 559.5 42255.9 157.5 42273.9 157.5 42273.9 559.5 42332.9 559.5 42332.9 157.5 42389.9 157.5 42389.9 559.5 42411.9 559.5 42411.9 157.5 42467.9 157.5 42467.9 559.5 42489.9 559.5 42489.9 157.5 42507.9 157.5 42507.9 559.5 42567.9 559.5 42567.9 157.5 42585.9 157.5 42585.9 559.5 42644.9 559.5 42644.9 157.5 42663.9 157.5 42663.9 559.5 42722.9 559.5 42722.9 157.5 42740.9 157.5 42740.9 559.5 42799.9 559.5 42799.9 157.5 42818.9 157.5 42818.9 559.5 42877.9 559.5 42877.9 157.5 42895.9 157.5 42895.9 559.5 42954.9 559.5 42954.9 157.5 42973.9 157.5 42973.9 559.5 43032.9 559.5 43032.9 157.5 43088.9 157.5 43088.9 559.5 43110.9 559.5 43110.9 157.5 43128.9 157.5 43128.9 559.5 43706.9 559.5 43706.9 157.5 43725.9 157.5 43725.9 559.5 43784.9 559.5 43784.9 157.5 43840.9 157.5 43840.9 559.5 43862.9 559.5 43862.9 157.5 43918.9 157.5 43918.9 559.5 43940.9 559.5 43940.9 157.5 43997.9 157.5 43997.9 559.5 44019.9 559.5 44019.9 157.5 44075.9 157.5 44075.9 559.5 44097.9 559.5 44097.9 157.5 44115.9 157.5 44115.9 559.5 44174.9 559.5 44174.9 157.5 44193.9 157.5 44193.9 559.5 44253 559.5 44253 157.5 44309 157.5 44309 559.5 44331 559.5 44331 157.5 44350 157.5 44350 559.5 44409 559.5 44409 157.5 44427 157.5 44427 559.5 44486 559.5 44486 157.5 44505 157.5 44505 559.5 44564 559.5 44564 157.5 44582 157.5 44582 559.5 44642 559.5 44642 157.5 44660 157.5 44660 559.5 44719 559.5 44719 157.5 44738 157.5 44738 559.5 44797 559.5 44797 157.5 44853 157.5 44853 559.5 44875 559.5 44875 157.5 44931 157.5 44931 559.5 44953 559.5 44953 157.5 44972 157.5 44972 559.5 45031 559.5 45031 157.5 45049 157.5 45049 559.5 45108 559.5 45108 157.5 45127 157.5 45127 559.5 45186 559.5 45186 157.5 45204 157.5 45204 559.5 45264 559.5 45264 157.5 45282 157.5 45282 559.5 45341 559.5 45341 157.5 45359 157.5 45359 559.5 45419 559.5 45419 157.5 45437 157.5 45437 559.5 45496 559.5 45496 157.5 45552 157.5 45552 559.5 45574 559.5 45574 157.5 45593 157.5 45593 559.5 46170 559.5 46170 157.5 46189 157.5 46189 559.5 46248 559.5 46248 157.5 46304 157.5 46304 559.5 46326 559.5 46326 157.5 46383 157.5 46383 559.5 46405 559.5 46405 157.5 46461 157.5 46461 559.5 46482.5 559.5 46482.5 157.5" stroke="#156082" stroke-width="3.4375" stroke-linecap="round" stroke-linejoin="round" stroke-miterlimit="10" fill="none"/></g><g><text fill="#0E2841" font-family="Aptos Narrow,Aptos Narrow_MSFontService,sans-serif" font-weight="400" font-stretch="semi-condensed" font-size="41" transform="matrix(1 0 0 1 1200.8 571)">0</text></g><g><text fill="#0E2841" font-family="Aptos Narrow,Aptos Narrow_MSFontService,sans-serif" font-weight="400" font-stretch="semi-condensed" font-size="41" transform="matrix(1 0 0 1 1200.8 169)">1</text></g><g><text fill="#0E2841" font-family="Aptos Narrow,Aptos Narrow_MSFontService,sans-serif" font-weight="400" font-stretch="semi-condensed" font-size="41" transform="matrix(1 0 0 1 1249.33 624)">0</text></g><g><text fill="#0E2841" font-family="Aptos Narrow,Aptos Narrow_MSFontService,sans-serif" font-weight="400" font-stretch="semi-condensed" font-size="41" transform="matrix(1 0 0 1 1681.86 624)">10000</text></g><g><text fill="#0E2841" font-family="Aptos Narrow,Aptos Narrow_MSFontService,sans-serif" font-weight="400" font-stretch="semi-condensed" font-size="41" transform="matrix(1 0 0 1 2156.18 624)">20000</text></g><g><text fill="#0E2841" font-family="Aptos Narrow,Aptos Narrow_MSFontService,sans-serif" font-weight="400" font-stretch="semi-condensed" font-size="41" transform="matrix(1 0 0 1 2630.51 624)">30000</text></g><g><text fill="#0E2841" font-family="Aptos Narrow,Aptos Narrow_MSFontService,sans-serif" font-weight="400" font-stretch="semi-condensed" font-size="41" transform="matrix(1 0 0 1 3104.83 624)">40000</text></g><g><text fill="#0E2841" font-family="Aptos Narrow,Aptos Narrow_MSFontService,sans-serif" font-weight="400" font-stretch="semi-condensed" font-size="41" transform="matrix(1 0 0 1 3579.15 624)">50000</text></g><g><text fill="#0E2841" font-family="Aptos Narrow,Aptos Narrow_MSFontService,sans-serif" font-weight="400" font-stretch="semi-condensed" font-size="41" transform="matrix(1 0 0 1 4053.48 624)">60000</text></g><g><text fill="#0E2841" font-family="Aptos Narrow,Aptos Narrow_MSFontService,sans-serif" font-weight="700" font-stretch="semi-condensed" font-size="41" transform="matrix(1 0 0 1 2709.81 688)">Time (</text></g><g><text fill="#0E2841" font-family="Aptos Narrow,Aptos Narrow_MSFontService,sans-serif" font-weight="700" font-stretch="semi-condensed" font-size="41" transform="matrix(1 0 0 1 2812.96 688)">μ</text></g><g><text fill="#0E2841" font-family="Aptos Narrow,Aptos Narrow_MSFontService,sans-serif" font-weight="700" font-stretch="semi-condensed" font-size="41" transform="matrix(1 0 0 1 2834.75 688)">s) </text></g></g></svg>